<svg width="121" height="5" viewBox="0 0 121 5" fill="none" xmlns="http://www.w3.org/2000/svg">
<path d="M3.15601 4.09802C3.02401 4.19402 2.85601 4.26002 2.65201 4.29602C2.44801 4.33602 2.23201 4.35602 2.00401 4.35602C1.73601 4.35602 1.48001 4.31402 1.23601 4.23002C0.996008 4.14202 0.784008 4.01002 0.600008 3.83402C0.416008 3.65402 0.270008 3.42802 0.162008 3.15602C0.0540081 2.88002 8.06898e-06 2.55402 8.06898e-06 2.17801C8.06898e-06 1.78602 0.0600081 1.45202 0.180008 1.17602C0.300008 0.900015 0.456008 0.676015 0.648008 0.504015C0.840008 0.328015 1.05601 0.200015 1.29601 0.120015C1.53601 0.0400149 1.77401 1.4782e-05 2.01001 1.4782e-05C2.27401 1.4782e-05 2.49001 0.0140148 2.65801 0.042015C2.82601 0.0700148 2.96801 0.106015 3.08401 0.150015L2.95201 0.666015C2.75601 0.574015 2.45801 0.528015 2.05801 0.528015C1.87801 0.528015 1.70201 0.558015 1.53001 0.618015C1.36201 0.674015 1.21001 0.768015 1.07401 0.900015C0.942008 1.02802 0.836008 1.19802 0.756008 1.41002C0.676008 1.61801 0.636008 1.87401 0.636008 2.17801C0.636008 2.45002 0.674008 2.69002 0.750008 2.89802C0.826008 3.10202 0.930008 3.27402 1.06201 3.41402C1.19801 3.55002 1.35601 3.65402 1.53601 3.72602C1.72001 3.79402 1.92001 3.82802 2.13601 3.82802C2.33201 3.82802 2.50201 3.81002 2.64601 3.77402C2.79001 3.73802 2.91201 3.69202 3.01201 3.63602L3.15601 4.09802ZM10.1682 3.18002H8.50623L8.06223 4.27802H7.47423L9.20223 0.0180149H9.51423L11.2482 4.27802H10.6242L10.1682 3.18002ZM8.68623 2.67602H9.99423L9.50823 1.48202L9.34623 0.840015H9.33423L9.17223 1.49402L8.68623 2.67602ZM16.0274 0.120015C16.1954 0.084015 16.3774 0.060015 16.5734 0.0480149C16.7734 0.0320148 16.9694 0.0240148 17.1614 0.0240148C17.3654 0.0240148 17.5714 0.0420148 17.7794 0.0780149C17.9914 0.114015 18.1834 0.180015 18.3554 0.276015C18.5274 0.372015 18.6674 0.506015 18.7754 0.678015C18.8874 0.846015 18.9434 1.06401 18.9434 1.33201C18.9434 1.58401 18.8934 1.80001 18.7934 1.98002C18.6934 2.15602 18.5594 2.30002 18.3914 2.41202C18.2274 2.52402 18.0374 2.60602 17.8214 2.65802C17.6094 2.71002 17.3894 2.73602 17.1614 2.73602C17.1374 2.73602 17.0994 2.73602 17.0474 2.73602C16.9994 2.73202 16.9474 2.73002 16.8914 2.73002C16.8394 2.72602 16.7874 2.72202 16.7354 2.71802C16.6874 2.71402 16.6514 2.71002 16.6274 2.70601V4.27802H16.0274V0.120015ZM17.1794 0.540015C17.0714 0.540015 16.9654 0.542015 16.8614 0.546015C16.7614 0.550015 16.6834 0.560015 16.6274 0.576015V2.19002C16.6474 2.19802 16.6794 2.20402 16.7234 2.20801C16.7714 2.20801 16.8194 2.21001 16.8674 2.21402C16.9194 2.21802 16.9674 2.22001 17.0114 2.22001C17.0594 2.22001 17.0954 2.22001 17.1194 2.22001C17.2634 2.22001 17.4054 2.21001 17.5454 2.19002C17.6854 2.16602 17.8114 2.12202 17.9234 2.05802C18.0394 1.99402 18.1314 1.90402 18.1994 1.78802C18.2714 1.67201 18.3074 1.52201 18.3074 1.33802C18.3074 1.17801 18.2734 1.04601 18.2054 0.942015C18.1374 0.838015 18.0494 0.756015 17.9414 0.696015C17.8334 0.636015 17.7114 0.596015 17.5754 0.576015C17.4434 0.552015 17.3114 0.540015 17.1794 0.540015ZM26.8312 0.606015H25.4152V4.27802H24.8152V0.606015H23.3992V0.0780149H26.8312V0.606015ZM34.3093 0.0780149H34.8733V2.82002C34.8733 3.08002 34.8353 3.30402 34.7593 3.49202C34.6873 3.68002 34.5833 3.83802 34.4473 3.96602C34.3113 4.09002 34.1493 4.18202 33.9613 4.24202C33.7773 4.30202 33.5713 4.33202 33.3433 4.33202C32.8033 4.33202 32.3913 4.21602 32.1073 3.98402C31.8233 3.74802 31.6813 3.40002 31.6813 2.94002V0.0780149H32.2813V2.71202C32.2813 3.12002 32.3693 3.40402 32.5453 3.56402C32.7253 3.72402 32.9893 3.80402 33.3373 3.80402C33.6733 3.80402 33.9193 3.71602 34.0753 3.54002C34.2313 3.36402 34.3093 3.08202 34.3093 2.69402V0.0780149ZM40.1411 0.120015C40.2251 0.104015 40.3171 0.0900149 40.4171 0.0780149C40.5211 0.066015 40.6251 0.056015 40.7291 0.0480149C40.8331 0.040015 40.9371 0.0340151 41.0411 0.0300151C41.1451 0.0260149 41.2431 0.0240148 41.3351 0.0240148C41.5351 0.0240148 41.7271 0.0440148 41.9111 0.0840148C42.0991 0.124015 42.2631 0.190015 42.4031 0.282015C42.5471 0.374015 42.6611 0.494015 42.7451 0.642015C42.8331 0.790015 42.8771 0.972015 42.8771 1.18801C42.8771 1.35601 42.8511 1.50802 42.7991 1.64402C42.7471 1.78001 42.6751 1.90001 42.5831 2.00402C42.4911 2.10802 42.3811 2.19602 42.2531 2.26802C42.1291 2.33602 41.9931 2.38802 41.8451 2.42402L42.1571 2.63402L43.2851 4.27802H42.5951L41.3471 2.50802L40.7411 2.42402V4.27802H40.1411V0.120015ZM41.3531 0.540015C41.2971 0.540015 41.2391 0.540015 41.1791 0.540015C41.1231 0.540015 41.0671 0.542015 41.0111 0.546015C40.9551 0.550015 40.9031 0.554015 40.8551 0.558015C40.8071 0.562015 40.7691 0.568015 40.7411 0.576015V2.02801H41.2331C41.3771 2.02801 41.5091 2.01401 41.6291 1.98601C41.7531 1.95402 41.8591 1.90802 41.9471 1.84801C42.0391 1.78401 42.1111 1.70201 42.1631 1.60202C42.2151 1.50202 42.2411 1.38002 42.2411 1.23601C42.2411 1.02001 42.1651 0.850015 42.0131 0.726015C41.8611 0.602015 41.6411 0.540015 41.3531 0.540015ZM48.261 0.0780149H50.799V0.594015H48.861V1.87201H50.631V2.38801H48.861V3.76202H50.829V4.27802H48.261V0.0780149ZM61.9169 0.0780149H64.4549V0.594015H62.5169V1.87201H64.2869V2.38801H62.5169V3.76202H64.4849V4.27802H61.9169V0.0780149ZM70.7726 2.14202L69.3866 0.0780149H70.1006L71.0066 1.45801L71.1686 1.80601L71.3246 1.45801L72.2726 0.0780149H72.9326L71.5046 2.10002L72.9986 4.27802H72.2966L71.2946 2.81402L71.1086 2.44802L70.9406 2.81402L69.9146 4.27802H69.2546L70.7726 2.14202ZM77.893 0.120015C78.061 0.084015 78.243 0.060015 78.439 0.0480149C78.639 0.0320148 78.835 0.0240148 79.027 0.0240148C79.231 0.0240148 79.437 0.0420148 79.645 0.0780149C79.857 0.114015 80.049 0.180015 80.221 0.276015C80.393 0.372015 80.533 0.506015 80.641 0.678015C80.753 0.846015 80.809 1.06401 80.809 1.33201C80.809 1.58401 80.759 1.80001 80.659 1.98002C80.559 2.15602 80.425 2.30002 80.257 2.41202C80.093 2.52402 79.903 2.60602 79.687 2.65802C79.475 2.71002 79.255 2.73602 79.027 2.73602C79.003 2.73602 78.965 2.73602 78.913 2.73602C78.865 2.73202 78.813 2.73002 78.757 2.73002C78.705 2.72602 78.653 2.72202 78.601 2.71802C78.553 2.71402 78.517 2.71002 78.493 2.70601V4.27802H77.893V0.120015ZM79.045 0.540015C78.937 0.540015 78.831 0.542015 78.727 0.546015C78.627 0.550015 78.549 0.560015 78.493 0.576015V2.19002C78.513 2.19802 78.545 2.20402 78.589 2.20801C78.637 2.20801 78.685 2.21001 78.733 2.21402C78.785 2.21802 78.833 2.22001 78.877 2.22001C78.925 2.22001 78.961 2.22001 78.985 2.22001C79.129 2.22001 79.271 2.21001 79.411 2.19002C79.551 2.16602 79.677 2.12202 79.789 2.05802C79.905 1.99402 79.997 1.90402 80.065 1.78802C80.137 1.67201 80.173 1.52201 80.173 1.33802C80.173 1.17801 80.139 1.04601 80.071 0.942015C80.003 0.838015 79.915 0.756015 79.807 0.696015C79.699 0.636015 79.577 0.596015 79.441 0.576015C79.309 0.552015 79.177 0.540015 79.045 0.540015ZM85.7786 0.0780149H88.3166V0.594015H86.3786V1.87201H88.1486V2.38801H86.3786V3.76202H88.3466V4.27802H85.7786V0.0780149ZM94.3643 1.60802L94.0043 1.02001H93.9803L94.0523 1.60802V4.27802H93.4883V0.0180149H93.8243L95.9663 2.74202L96.3083 3.30002H96.3383L96.2663 2.74202V0.0780149H96.8303V4.33802H96.4943L94.3643 1.60802ZM104.164 3.17402C104.164 3.01002 104.11 2.88002 104.002 2.78402C103.894 2.68802 103.758 2.60602 103.594 2.53802C103.43 2.46601 103.254 2.40001 103.066 2.34002C102.878 2.27602 102.702 2.19602 102.538 2.10002C102.374 2.00402 102.238 1.88002 102.13 1.72802C102.022 1.57601 101.968 1.37801 101.968 1.13401C101.968 0.794015 102.092 0.520015 102.34 0.312015C102.592 0.104015 102.95 1.4782e-05 103.414 1.4782e-05C103.682 1.4782e-05 103.928 0.0200149 104.152 0.0600151C104.376 0.100015 104.552 0.152015 104.68 0.216015L104.494 0.720015C104.394 0.668015 104.244 0.622015 104.044 0.582015C103.844 0.538015 103.624 0.516015 103.384 0.516015C103.112 0.516015 102.908 0.574015 102.772 0.690015C102.636 0.806015 102.568 0.940015 102.568 1.09202C102.568 1.24802 102.622 1.37402 102.73 1.47001C102.838 1.56601 102.974 1.65201 103.138 1.72802C103.302 1.80002 103.478 1.87002 103.666 1.93802C103.854 2.00602 104.03 2.09001 104.194 2.19002C104.358 2.29002 104.494 2.41402 104.602 2.56202C104.71 2.70602 104.764 2.89202 104.764 3.12002C104.764 3.30802 104.728 3.47802 104.656 3.63002C104.584 3.78202 104.48 3.91202 104.344 4.02002C104.208 4.12802 104.044 4.21202 103.852 4.27202C103.66 4.32802 103.442 4.35602 103.198 4.35602C102.87 4.35602 102.592 4.33002 102.364 4.27802C102.14 4.23002 101.97 4.17802 101.854 4.12202L102.052 3.60002C102.152 3.65202 102.302 3.70602 102.502 3.76202C102.706 3.81402 102.93 3.84002 103.174 3.84002C103.314 3.84002 103.444 3.82802 103.564 3.80402C103.684 3.77602 103.788 3.73602 103.876 3.68402C103.968 3.62802 104.038 3.55802 104.086 3.47402C104.138 3.39002 104.164 3.29002 104.164 3.17402ZM109.787 0.0780149H112.325V0.594015H110.387V1.87201H112.157V2.38801H110.387V3.76202H112.355V4.27802H109.787V0.0780149ZM119.561 3.17402C119.561 3.01002 119.507 2.88002 119.399 2.78402C119.291 2.68802 119.155 2.60602 118.991 2.53802C118.827 2.46601 118.651 2.40001 118.463 2.34002C118.275 2.27602 118.099 2.19602 117.935 2.10002C117.771 2.00402 117.635 1.88002 117.527 1.72802C117.419 1.57601 117.365 1.37801 117.365 1.13401C117.365 0.794015 117.489 0.520015 117.737 0.312015C117.989 0.104015 118.347 1.4782e-05 118.811 1.4782e-05C119.079 1.4782e-05 119.325 0.0200149 119.549 0.0600151C119.773 0.100015 119.949 0.152015 120.077 0.216015L119.891 0.720015C119.791 0.668015 119.641 0.622015 119.441 0.582015C119.241 0.538015 119.021 0.516015 118.781 0.516015C118.509 0.516015 118.305 0.574015 118.169 0.690015C118.033 0.806015 117.965 0.940015 117.965 1.09202C117.965 1.24802 118.019 1.37402 118.127 1.47001C118.235 1.56601 118.371 1.65201 118.535 1.72802C118.699 1.80002 118.875 1.87002 119.063 1.93802C119.251 2.00602 119.427 2.09001 119.591 2.19002C119.755 2.29002 119.891 2.41402 119.999 2.56202C120.107 2.70602 120.161 2.89202 120.161 3.12002C120.161 3.30802 120.125 3.47802 120.053 3.63002C119.981 3.78202 119.877 3.91202 119.741 4.02002C119.605 4.12802 119.441 4.21202 119.249 4.27202C119.057 4.32802 118.839 4.35602 118.595 4.35602C118.267 4.35602 117.989 4.33002 117.761 4.27802C117.537 4.23002 117.367 4.17802 117.251 4.12202L117.449 3.60002C117.549 3.65202 117.699 3.70602 117.899 3.76202C118.103 3.81402 118.327 3.84002 118.571 3.84002C118.711 3.84002 118.841 3.82802 118.961 3.80402C119.081 3.77602 119.185 3.73602 119.273 3.68402C119.365 3.62802 119.435 3.55802 119.483 3.47402C119.535 3.39002 119.561 3.29002 119.561 3.17402Z" fill="#FFD11B"/>
</svg>
