<svg width="300" height="200" viewBox="0 0 300 200" fill="none" xmlns="http://www.w3.org/2000/svg">
<rect width="300" height="200" fill="#425363"/>
<g filter="url(#filter0_d_5_71)">
<mask id="path-2-outside-1_5_71" maskUnits="userSpaceOnUse" x="84" y="92" width="153" height="53" fill="black">
<rect fill="white" x="84" y="92" width="153" height="53"/>
<path d="M90.336 141V94.472H105.056C108.725 94.472 111.925 94.9627 114.656 95.944C117.429 96.8827 119.563 98.3547 121.056 100.36C122.592 102.365 123.36 104.947 123.36 108.104C123.36 110.195 122.976 112.115 122.208 113.864C121.44 115.571 120.331 117.064 118.88 118.344C117.472 119.581 115.723 120.584 113.632 121.352C114.997 121.992 116.107 122.995 116.96 124.36L127.584 141H118.688C116.981 141 115.787 140.36 115.104 139.08L106.464 124.936C106.123 124.381 105.717 123.976 105.248 123.72C104.821 123.464 104.181 123.336 103.328 123.336H100.192V141H90.336ZM100.192 116.488H104.992C107.893 116.488 110.069 115.805 111.52 114.44C113.013 113.032 113.76 111.176 113.76 108.872C113.76 106.653 113.035 104.947 111.584 103.752C110.176 102.557 108 101.96 105.056 101.96H100.192V116.488ZM121.568 141L118.112 133.128L122.656 134.024L121.568 141ZM85.472 141V136.84C85.472 136.2 85.664 135.709 86.048 135.368C86.432 135.027 86.9653 134.792 87.648 134.664L90.848 133.96L91.744 141H85.472ZM91.744 94.472L90.848 101.512L87.648 100.872C86.9653 100.701 86.432 100.467 86.048 100.168C85.664 99.8267 85.472 99.3147 85.472 98.632V94.472H91.744ZM98.784 141L99.616 133.96L102.88 134.664C103.563 134.792 104.096 135.027 104.48 135.368C104.864 135.709 105.056 136.2 105.056 136.84V141H98.784ZM121.568 141L122.4 133.96L125.664 134.664C126.347 134.792 126.88 135.027 127.264 135.368C127.648 135.709 127.84 136.2 127.84 136.84V141H121.568ZM137.526 141V107.912H146.614V141H137.526ZM132.662 141V136.84C132.662 136.2 132.854 135.709 133.238 135.368C133.664 135.027 134.219 134.792 134.902 134.664L138.102 133.96L138.934 141H132.662ZM145.206 141L146.038 133.96L149.238 134.664C149.92 134.792 150.454 135.027 150.838 135.368C151.264 135.709 151.478 136.2 151.478 136.84V141H145.206ZM138.934 107.912L138.102 114.952L134.902 114.312C134.219 114.141 133.664 113.907 133.238 113.608C132.854 113.267 132.662 112.755 132.662 112.072V107.912H138.934ZM142.198 104.008C140.747 104.008 139.467 103.475 138.358 102.408C137.248 101.341 136.694 100.083 136.694 98.632C136.694 97.096 137.248 95.816 138.358 94.792C139.467 93.7253 140.747 93.192 142.198 93.192C143.734 93.192 145.056 93.7253 146.166 94.792C147.318 95.816 147.894 97.096 147.894 98.632C147.894 100.083 147.318 101.341 146.166 102.408C145.056 103.475 143.734 104.008 142.198 104.008ZM170.415 141L157.423 107.912H164.975C165.615 107.912 166.148 108.083 166.575 108.424C167.044 108.723 167.364 109.107 167.535 109.576L172.847 125.704C173.188 126.771 173.508 127.837 173.807 128.904C174.105 129.971 174.383 131.059 174.639 132.168C174.852 131.101 175.108 130.035 175.407 128.968C175.705 127.901 176.047 126.813 176.431 125.704L181.935 109.576C182.105 109.107 182.404 108.723 182.831 108.424C183.257 108.083 183.769 107.912 184.367 107.912H191.535L178.607 141H170.415ZM163.823 110.216V107.912H168.623V110.216H163.823ZM181.039 110.216V107.912H185.775V110.216H181.039ZM162.223 107.912L161.327 114.952L158.127 114.312C157.444 114.141 156.911 113.907 156.527 113.608C156.143 113.267 155.951 112.755 155.951 112.072V107.912H162.223ZM172.015 107.912V112.072C172.015 112.755 171.823 113.267 171.439 113.608C171.055 113.907 170.521 114.141 169.839 114.312L166.639 114.952L165.743 107.912H172.015ZM183.215 107.912L182.383 114.952L179.183 114.312C178.5 114.141 177.945 113.907 177.519 113.608C177.135 113.267 176.943 112.755 176.943 112.072V107.912H183.215ZM193.071 107.912V112.072C193.071 112.755 192.879 113.267 192.495 113.608C192.111 113.907 191.577 114.141 190.895 114.312L187.631 114.952L186.799 107.912H193.071ZM212.624 141.512C210.277 141.512 208.25 140.979 206.544 139.912C204.88 138.803 203.621 137.309 202.768 135.432C201.914 133.512 201.488 131.336 201.488 128.904V107.912H210.512V128.904C210.512 130.739 210.917 132.168 211.728 133.192C212.581 134.173 213.818 134.664 215.44 134.664C216.634 134.664 217.765 134.408 218.832 133.896C219.898 133.341 220.901 132.595 221.84 131.656V107.912H230.928V141H225.36C224.122 141 223.354 140.467 223.056 139.4L222.544 137.16C221.178 138.44 219.706 139.485 218.128 140.296C216.549 141.107 214.714 141.512 212.624 141.512ZM229.52 141L230.352 133.96L233.552 134.664C234.234 134.792 234.768 135.027 235.152 135.368C235.578 135.709 235.792 136.2 235.792 136.84V141H229.52ZM202.896 107.912L202 114.952L198.8 114.312C198.117 114.141 197.584 113.907 197.2 113.608C196.816 113.267 196.624 112.755 196.624 112.072V107.912H202.896ZM223.248 107.912L222.416 114.952L219.216 114.312C218.533 114.141 217.978 113.907 217.552 113.608C217.168 113.267 216.976 112.755 216.976 112.072V107.912H223.248Z"/>
</mask>
<path d="M90.336 141V94.472H105.056C108.725 94.472 111.925 94.9627 114.656 95.944C117.429 96.8827 119.563 98.3547 121.056 100.36C122.592 102.365 123.36 104.947 123.36 108.104C123.36 110.195 122.976 112.115 122.208 113.864C121.44 115.571 120.331 117.064 118.88 118.344C117.472 119.581 115.723 120.584 113.632 121.352C114.997 121.992 116.107 122.995 116.96 124.36L127.584 141H118.688C116.981 141 115.787 140.36 115.104 139.08L106.464 124.936C106.123 124.381 105.717 123.976 105.248 123.72C104.821 123.464 104.181 123.336 103.328 123.336H100.192V141H90.336ZM100.192 116.488H104.992C107.893 116.488 110.069 115.805 111.52 114.44C113.013 113.032 113.76 111.176 113.76 108.872C113.76 106.653 113.035 104.947 111.584 103.752C110.176 102.557 108 101.96 105.056 101.96H100.192V116.488ZM121.568 141L118.112 133.128L122.656 134.024L121.568 141ZM85.472 141V136.84C85.472 136.2 85.664 135.709 86.048 135.368C86.432 135.027 86.9653 134.792 87.648 134.664L90.848 133.96L91.744 141H85.472ZM91.744 94.472L90.848 101.512L87.648 100.872C86.9653 100.701 86.432 100.467 86.048 100.168C85.664 99.8267 85.472 99.3147 85.472 98.632V94.472H91.744ZM98.784 141L99.616 133.96L102.88 134.664C103.563 134.792 104.096 135.027 104.48 135.368C104.864 135.709 105.056 136.2 105.056 136.84V141H98.784ZM121.568 141L122.4 133.96L125.664 134.664C126.347 134.792 126.88 135.027 127.264 135.368C127.648 135.709 127.84 136.2 127.84 136.84V141H121.568ZM137.526 141V107.912H146.614V141H137.526ZM132.662 141V136.84C132.662 136.2 132.854 135.709 133.238 135.368C133.664 135.027 134.219 134.792 134.902 134.664L138.102 133.96L138.934 141H132.662ZM145.206 141L146.038 133.96L149.238 134.664C149.92 134.792 150.454 135.027 150.838 135.368C151.264 135.709 151.478 136.2 151.478 136.84V141H145.206ZM138.934 107.912L138.102 114.952L134.902 114.312C134.219 114.141 133.664 113.907 133.238 113.608C132.854 113.267 132.662 112.755 132.662 112.072V107.912H138.934ZM142.198 104.008C140.747 104.008 139.467 103.475 138.358 102.408C137.248 101.341 136.694 100.083 136.694 98.632C136.694 97.096 137.248 95.816 138.358 94.792C139.467 93.7253 140.747 93.192 142.198 93.192C143.734 93.192 145.056 93.7253 146.166 94.792C147.318 95.816 147.894 97.096 147.894 98.632C147.894 100.083 147.318 101.341 146.166 102.408C145.056 103.475 143.734 104.008 142.198 104.008ZM170.415 141L157.423 107.912H164.975C165.615 107.912 166.148 108.083 166.575 108.424C167.044 108.723 167.364 109.107 167.535 109.576L172.847 125.704C173.188 126.771 173.508 127.837 173.807 128.904C174.105 129.971 174.383 131.059 174.639 132.168C174.852 131.101 175.108 130.035 175.407 128.968C175.705 127.901 176.047 126.813 176.431 125.704L181.935 109.576C182.105 109.107 182.404 108.723 182.831 108.424C183.257 108.083 183.769 107.912 184.367 107.912H191.535L178.607 141H170.415ZM163.823 110.216V107.912H168.623V110.216H163.823ZM181.039 110.216V107.912H185.775V110.216H181.039ZM162.223 107.912L161.327 114.952L158.127 114.312C157.444 114.141 156.911 113.907 156.527 113.608C156.143 113.267 155.951 112.755 155.951 112.072V107.912H162.223ZM172.015 107.912V112.072C172.015 112.755 171.823 113.267 171.439 113.608C171.055 113.907 170.521 114.141 169.839 114.312L166.639 114.952L165.743 107.912H172.015ZM183.215 107.912L182.383 114.952L179.183 114.312C178.5 114.141 177.945 113.907 177.519 113.608C177.135 113.267 176.943 112.755 176.943 112.072V107.912H183.215ZM193.071 107.912V112.072C193.071 112.755 192.879 113.267 192.495 113.608C192.111 113.907 191.577 114.141 190.895 114.312L187.631 114.952L186.799 107.912H193.071ZM212.624 141.512C210.277 141.512 208.25 140.979 206.544 139.912C204.88 138.803 203.621 137.309 202.768 135.432C201.914 133.512 201.488 131.336 201.488 128.904V107.912H210.512V128.904C210.512 130.739 210.917 132.168 211.728 133.192C212.581 134.173 213.818 134.664 215.44 134.664C216.634 134.664 217.765 134.408 218.832 133.896C219.898 133.341 220.901 132.595 221.84 131.656V107.912H230.928V141H225.36C224.122 141 223.354 140.467 223.056 139.4L222.544 137.16C221.178 138.44 219.706 139.485 218.128 140.296C216.549 141.107 214.714 141.512 212.624 141.512ZM229.52 141L230.352 133.96L233.552 134.664C234.234 134.792 234.768 135.027 235.152 135.368C235.578 135.709 235.792 136.2 235.792 136.84V141H229.52ZM202.896 107.912L202 114.952L198.8 114.312C198.117 114.141 197.584 113.907 197.2 113.608C196.816 113.267 196.624 112.755 196.624 112.072V107.912H202.896ZM223.248 107.912L222.416 114.952L219.216 114.312C218.533 114.141 217.978 113.907 217.552 113.608C217.168 113.267 216.976 112.755 216.976 112.072V107.912H223.248Z" fill="white"/>
<path d="M90.336 141H89.336V142H90.336V141ZM90.336 94.472V93.472H89.336V94.472H90.336ZM114.656 95.944L114.318 96.8851L114.327 96.8882L114.335 96.8912L114.656 95.944ZM121.056 100.36L120.254 100.957L120.262 100.968L121.056 100.36ZM122.208 113.864L123.12 114.274L123.124 114.266L122.208 113.864ZM118.88 118.344L119.54 119.095L119.542 119.094L118.88 118.344ZM113.632 121.352L113.287 120.413L111.037 121.24L113.208 122.257L113.632 121.352ZM116.96 124.36L116.112 124.89L116.117 124.898L116.96 124.36ZM127.584 141V142H129.409L128.427 140.462L127.584 141ZM115.104 139.08L115.986 138.609L115.973 138.584L115.957 138.559L115.104 139.08ZM106.464 124.936L107.317 124.415L107.316 124.412L106.464 124.936ZM105.248 123.72L104.734 124.577L104.751 124.588L104.769 124.598L105.248 123.72ZM100.192 123.336V122.336H99.192V123.336H100.192ZM100.192 141V142H101.192V141H100.192ZM100.192 116.488H99.192V117.488H100.192V116.488ZM111.52 114.44L112.205 115.168L112.206 115.168L111.52 114.44ZM111.584 103.752L110.937 104.515L110.943 104.519L110.948 104.524L111.584 103.752ZM100.192 101.96V100.96H99.192V101.96H100.192ZM121.568 141L120.652 141.402L122.029 144.537L122.556 141.154L121.568 141ZM118.112 133.128L118.305 132.147L116.426 131.776L117.196 133.53L118.112 133.128ZM122.656 134.024L123.644 134.178L123.792 133.229L122.849 133.043L122.656 134.024ZM85.472 141H84.472V142H85.472V141ZM86.048 135.368L85.3836 134.621L85.3836 134.621L86.048 135.368ZM87.648 134.664L87.8323 135.647L87.8476 135.644L87.8629 135.641L87.648 134.664ZM90.848 133.96L91.84 133.834L91.7018 132.748L90.6331 132.983L90.848 133.96ZM91.744 141V142H92.8793L92.736 140.874L91.744 141ZM91.744 94.472L92.736 94.5983L92.8793 93.472H91.744V94.472ZM90.848 101.512L90.6519 102.493L91.7045 102.703L91.84 101.638L90.848 101.512ZM87.648 100.872L87.4055 101.842L87.4286 101.848L87.4519 101.853L87.648 100.872ZM86.048 100.168L85.3836 100.915L85.4082 100.937L85.4341 100.957L86.048 100.168ZM85.472 94.472V93.472H84.472V94.472H85.472ZM98.784 141L97.7909 140.883L97.6589 142H98.784V141ZM99.616 133.96L99.8268 132.982L98.752 132.751L98.6229 133.843L99.616 133.96ZM102.88 134.664L102.669 135.642L102.682 135.644L102.696 135.647L102.88 134.664ZM104.48 135.368L105.144 134.621L105.144 134.621L104.48 135.368ZM105.056 141V142H106.056V141H105.056ZM121.568 141L120.575 140.883L120.443 142H121.568V141ZM122.4 133.96L122.611 132.982L121.536 132.751L121.407 133.843L122.4 133.96ZM125.664 134.664L125.453 135.642L125.466 135.644L125.48 135.647L125.664 134.664ZM127.264 135.368L127.928 134.621L127.928 134.621L127.264 135.368ZM127.84 141V142H128.84V141H127.84ZM90.336 141H91.336V94.472H90.336H89.336V141H90.336ZM90.336 94.472V95.472H105.056V94.472V93.472H90.336V94.472ZM105.056 94.472V95.472C108.639 95.472 111.72 95.9515 114.318 96.8851L114.656 95.944L114.994 95.0029C112.131 93.9738 108.811 93.472 105.056 93.472V94.472ZM114.656 95.944L114.335 96.8912C116.95 97.7762 118.902 99.1412 120.254 100.957L121.056 100.36L121.858 99.7627C120.224 97.5682 117.908 95.9891 114.977 94.9968L114.656 95.944ZM121.056 100.36L120.262 100.968C121.634 102.759 122.36 105.111 122.36 108.104H123.36H124.36C124.36 104.783 123.55 101.972 121.85 99.7519L121.056 100.36ZM123.36 108.104H122.36C122.36 110.069 122 111.851 121.292 113.462L122.208 113.864L123.124 114.266C123.952 112.378 124.36 110.32 124.36 108.104H123.36ZM122.208 113.864L121.296 113.454C120.588 115.026 119.566 116.405 118.218 117.594L118.88 118.344L119.542 119.094C121.095 117.723 122.292 116.115 123.12 114.274L122.208 113.864ZM118.88 118.344L118.22 117.593C116.92 118.735 115.283 119.68 113.287 120.413L113.632 121.352L113.977 122.291C116.162 121.488 118.024 120.428 119.54 119.095L118.88 118.344ZM113.632 121.352L113.208 122.257C114.387 122.81 115.354 123.676 116.112 124.89L116.96 124.36L117.808 123.83C116.86 122.313 115.608 121.174 114.056 120.447L113.632 121.352ZM116.96 124.36L116.117 124.898L126.741 141.538L127.584 141L128.427 140.462L117.803 123.822L116.96 124.36ZM127.584 141V140H118.688V141V142H127.584V141ZM118.688 141V140C117.272 140 116.461 139.5 115.986 138.609L115.104 139.08L114.222 139.551C115.112 141.22 116.691 142 118.688 142V141ZM115.104 139.08L115.957 138.559L107.317 124.415L106.464 124.936L105.611 125.457L114.251 139.601L115.104 139.08ZM106.464 124.936L107.316 124.412C106.903 123.741 106.379 123.198 105.727 122.842L105.248 123.72L104.769 124.598C105.055 124.754 105.342 125.022 105.612 125.46L106.464 124.936ZM105.248 123.72L105.762 122.863C105.105 122.468 104.249 122.336 103.328 122.336V123.336V124.336C104.114 124.336 104.537 124.46 104.734 124.577L105.248 123.72ZM103.328 123.336V122.336H100.192V123.336V124.336H103.328V123.336ZM100.192 123.336H99.192V141H100.192H101.192V123.336H100.192ZM100.192 141V140H90.336V141V142H100.192V141ZM100.192 116.488V117.488H104.992V116.488V115.488H100.192V116.488ZM104.992 116.488V117.488C108.033 117.488 110.5 116.774 112.205 115.168L111.52 114.44L110.835 113.712C109.639 114.837 107.754 115.488 104.992 115.488V116.488ZM111.52 114.44L112.206 115.168C113.925 113.547 114.76 111.414 114.76 108.872H113.76H112.76C112.76 110.938 112.101 112.517 110.834 113.712L111.52 114.44ZM113.76 108.872H114.76C114.76 106.414 113.944 104.4 112.22 102.98L111.584 103.752L110.948 104.524C112.126 105.494 112.76 106.892 112.76 108.872H113.76ZM111.584 103.752L112.231 102.989C110.562 101.573 108.104 100.96 105.056 100.96V101.96V102.96C107.896 102.96 109.79 103.541 110.937 104.515L111.584 103.752ZM105.056 101.96V100.96H100.192V101.96V102.96H105.056V101.96ZM100.192 101.96H99.192V116.488H100.192H101.192V101.96H100.192ZM121.568 141L122.484 140.598L119.028 132.726L118.112 133.128L117.196 133.53L120.652 141.402L121.568 141ZM118.112 133.128L117.919 134.109L122.463 135.005L122.656 134.024L122.849 133.043L118.305 132.147L118.112 133.128ZM122.656 134.024L121.668 133.87L120.58 140.846L121.568 141L122.556 141.154L123.644 134.178L122.656 134.024ZM85.472 141H86.472V136.84H85.472H84.472V141H85.472ZM85.472 136.84H86.472C86.472 136.41 86.5925 136.222 86.7124 136.115L86.048 135.368L85.3836 134.621C84.7355 135.197 84.472 135.99 84.472 136.84H85.472ZM86.048 135.368L86.7124 136.115C86.921 135.93 87.2674 135.753 87.8323 135.647L87.648 134.664L87.4637 133.681C86.6632 133.831 85.943 134.123 85.3836 134.621L86.048 135.368ZM87.648 134.664L87.8629 135.641L91.0629 134.937L90.848 133.96L90.6331 132.983L87.4331 133.687L87.648 134.664ZM90.848 133.96L89.856 134.086L90.752 141.126L91.744 141L92.736 140.874L91.84 133.834L90.848 133.96ZM91.744 141V140H85.472V141V142H91.744V141ZM91.744 94.472L90.752 94.3457L89.856 101.386L90.848 101.512L91.84 101.638L92.736 94.5983L91.744 94.472ZM90.848 101.512L91.0441 100.531L87.8441 99.8914L87.648 100.872L87.4519 101.853L90.6519 102.493L90.848 101.512ZM87.648 100.872L87.8905 99.9019C87.2874 99.7511 86.8984 99.5626 86.6619 99.3786L86.048 100.168L85.4341 100.957C85.9656 101.371 86.6433 101.652 87.4055 101.842L87.648 100.872ZM86.048 100.168L86.7124 99.4206C86.6061 99.3261 86.472 99.128 86.472 98.632H85.472H84.472C84.472 99.5013 84.7219 100.327 85.3836 100.915L86.048 100.168ZM85.472 98.632H86.472V94.472H85.472H84.472V98.632H85.472ZM85.472 94.472V95.472H91.744V94.472V93.472H85.472V94.472ZM98.784 141L99.7771 141.117L100.609 134.077L99.616 133.96L98.6229 133.843L97.7909 140.883L98.784 141ZM99.616 133.96L99.4052 134.938L102.669 135.642L102.88 134.664L103.091 133.686L99.8268 132.982L99.616 133.96ZM102.88 134.664L102.696 135.647C103.261 135.753 103.607 135.93 103.816 136.115L104.48 135.368L105.144 134.621C104.585 134.123 103.865 133.831 103.064 133.681L102.88 134.664ZM104.48 135.368L103.816 136.115C103.935 136.222 104.056 136.41 104.056 136.84H105.056H106.056C106.056 135.99 105.793 135.197 105.144 134.621L104.48 135.368ZM105.056 136.84H104.056V141H105.056H106.056V136.84H105.056ZM105.056 141V140H98.784V141V142H105.056V141ZM121.568 141L122.561 141.117L123.393 134.077L122.4 133.96L121.407 133.843L120.575 140.883L121.568 141ZM122.4 133.96L122.189 134.938L125.453 135.642L125.664 134.664L125.875 133.686L122.611 132.982L122.4 133.96ZM125.664 134.664L125.48 135.647C126.045 135.753 126.391 135.93 126.6 136.115L127.264 135.368L127.928 134.621C127.369 134.123 126.649 133.831 125.848 133.681L125.664 134.664ZM127.264 135.368L126.6 136.115C126.719 136.222 126.84 136.41 126.84 136.84H127.84H128.84C128.84 135.99 128.577 135.197 127.928 134.621L127.264 135.368ZM127.84 136.84H126.84V141H127.84H128.84V136.84H127.84ZM127.84 141V140H121.568V141V142H127.84V141ZM137.526 141H136.526V142H137.526V141ZM137.526 107.912V106.912H136.526V107.912H137.526ZM146.614 107.912H147.614V106.912H146.614V107.912ZM146.614 141V142H147.614V141H146.614ZM132.662 141H131.662V142H132.662V141ZM133.238 135.368L132.613 134.587L132.593 134.603L132.573 134.621L133.238 135.368ZM134.902 134.664L135.086 135.647L135.101 135.644L135.116 135.641L134.902 134.664ZM138.102 133.96L139.095 133.843L138.965 132.746L137.887 132.983L138.102 133.96ZM138.934 141V142H140.059L139.927 140.883L138.934 141ZM145.206 141L144.212 140.883L144.08 142H145.206V141ZM146.038 133.96L146.252 132.983L145.174 132.746L145.044 133.843L146.038 133.96ZM149.238 134.664L149.023 135.641L149.038 135.644L149.053 135.647L149.238 134.664ZM150.838 135.368L150.173 136.115L150.193 136.133L150.213 136.149L150.838 135.368ZM151.478 141V142H152.478V141H151.478ZM138.934 107.912L139.927 108.029L140.059 106.912H138.934V107.912ZM138.102 114.952L137.905 115.933L138.967 116.145L139.095 115.069L138.102 114.952ZM134.902 114.312L134.659 115.282L134.682 115.288L134.705 115.293L134.902 114.312ZM133.238 113.608L132.573 114.355L132.617 114.394L132.664 114.427L133.238 113.608ZM132.662 107.912V106.912H131.662V107.912H132.662ZM138.358 102.408L139.051 101.687L139.051 101.687L138.358 102.408ZM138.358 94.792L139.036 95.5268L139.043 95.5199L139.051 95.5128L138.358 94.792ZM146.166 94.792L145.472 95.5128L145.487 95.5264L145.501 95.5394L146.166 94.792ZM146.166 102.408L145.486 101.674L145.479 101.681L145.472 101.687L146.166 102.408ZM137.526 141H138.526V107.912H137.526H136.526V141H137.526ZM137.526 107.912V108.912H146.614V107.912V106.912H137.526V107.912ZM146.614 107.912H145.614V141H146.614H147.614V107.912H146.614ZM146.614 141V140H137.526V141V142H146.614V141ZM132.662 141H133.662V136.84H132.662H131.662V141H132.662ZM132.662 136.84H133.662C133.662 136.41 133.782 136.222 133.902 136.115L133.238 135.368L132.573 134.621C131.925 135.197 131.662 135.99 131.662 136.84H132.662ZM133.238 135.368L133.862 136.149C134.131 135.934 134.522 135.753 135.086 135.647L134.902 134.664L134.717 133.681C133.916 133.831 133.198 134.119 132.613 134.587L133.238 135.368ZM134.902 134.664L135.116 135.641L138.316 134.937L138.102 133.96L137.887 132.983L134.687 133.687L134.902 134.664ZM138.102 133.96L137.108 134.077L137.94 141.117L138.934 141L139.927 140.883L139.095 133.843L138.102 133.96ZM138.934 141V140H132.662V141V142H138.934V141ZM145.206 141L146.199 141.117L147.031 134.077L146.038 133.96L145.044 133.843L144.212 140.883L145.206 141ZM146.038 133.96L145.823 134.937L149.023 135.641L149.238 134.664L149.452 133.687L146.252 132.983L146.038 133.96ZM149.238 134.664L149.053 135.647C149.618 135.753 149.965 135.93 150.173 136.115L150.838 135.368L151.502 134.621C150.942 134.123 150.222 133.831 149.422 133.681L149.238 134.664ZM150.838 135.368L150.213 136.149C150.36 136.267 150.478 136.446 150.478 136.84H151.478H152.478C152.478 135.954 152.168 135.152 151.462 134.587L150.838 135.368ZM151.478 136.84H150.478V141H151.478H152.478V136.84H151.478ZM151.478 141V140H145.206V141V142H151.478V141ZM138.934 107.912L137.94 107.795L137.108 114.835L138.102 114.952L139.095 115.069L139.927 108.029L138.934 107.912ZM138.102 114.952L138.298 113.971L135.098 113.331L134.902 114.312L134.705 115.293L137.905 115.933L138.102 114.952ZM134.902 114.312L135.144 113.342C134.541 113.191 134.109 112.997 133.811 112.789L133.238 113.608L132.664 114.427C133.219 114.816 133.897 115.092 134.659 115.282L134.902 114.312ZM133.238 113.608L133.902 112.861C133.796 112.766 133.662 112.568 133.662 112.072H132.662H131.662C131.662 112.941 131.911 113.767 132.573 114.355L133.238 113.608ZM132.662 112.072H133.662V107.912H132.662H131.662V112.072H132.662ZM132.662 107.912V108.912H138.934V107.912V106.912H132.662V107.912ZM142.198 104.008V103.008C141.022 103.008 139.986 102.587 139.051 101.687L138.358 102.408L137.664 103.129C138.948 104.363 140.472 105.008 142.198 105.008V104.008ZM138.358 102.408L139.051 101.687C138.124 100.796 137.694 99.7927 137.694 98.632H136.694H135.694C135.694 100.373 136.372 101.886 137.664 103.129L138.358 102.408ZM136.694 98.632H137.694C137.694 97.3696 138.136 96.3578 139.036 95.5268L138.358 94.792L137.679 94.0572C136.361 95.2742 135.694 96.8224 135.694 98.632H136.694ZM138.358 94.792L139.051 95.5128C139.986 94.6133 141.022 94.192 142.198 94.192V93.192V92.192C140.472 92.192 138.948 92.8374 137.664 94.0712L138.358 94.792ZM142.198 93.192V94.192C143.475 94.192 144.549 94.6249 145.472 95.5128L146.166 94.792L146.859 94.0712C145.563 92.8258 143.992 92.192 142.198 92.192V93.192ZM146.166 94.792L145.501 95.5394C146.44 96.3744 146.894 97.3828 146.894 98.632H147.894H148.894C148.894 96.8092 148.195 95.2576 146.83 94.0446L146.166 94.792ZM147.894 98.632H146.894C146.894 99.7795 146.452 100.779 145.486 101.674L146.166 102.408L146.845 103.142C148.183 101.903 148.894 100.386 148.894 98.632H147.894ZM146.166 102.408L145.472 101.687C144.549 102.575 143.475 103.008 142.198 103.008V104.008V105.008C143.992 105.008 145.563 104.374 146.859 103.129L146.166 102.408ZM170.415 141L169.484 141.365L169.733 142H170.415V141ZM157.423 107.912V106.912H155.956L156.492 108.277L157.423 107.912ZM166.575 108.424L165.95 109.205L165.992 109.239L166.038 109.268L166.575 108.424ZM167.535 109.576L168.484 109.263L168.48 109.249L168.474 109.234L167.535 109.576ZM172.847 125.704L173.799 125.399L173.796 125.391L172.847 125.704ZM174.639 132.168L173.664 132.393L175.619 132.364L174.639 132.168ZM176.431 125.704L177.375 126.031L177.377 126.027L176.431 125.704ZM181.935 109.576L180.995 109.234L180.991 109.244L180.988 109.253L181.935 109.576ZM182.831 108.424L183.404 109.243L183.43 109.225L183.455 109.205L182.831 108.424ZM191.535 107.912L192.466 108.276L192.999 106.912H191.535V107.912ZM178.607 141V142H179.289L179.538 141.364L178.607 141ZM163.823 110.216H162.823V111.216H163.823V110.216ZM163.823 107.912V106.912H162.823V107.912H163.823ZM168.623 107.912H169.623V106.912H168.623V107.912ZM168.623 110.216V111.216H169.623V110.216H168.623ZM181.039 110.216H180.039V111.216H181.039V110.216ZM181.039 107.912V106.912H180.039V107.912H181.039ZM185.775 107.912H186.775V106.912H185.775V107.912ZM185.775 110.216V111.216H186.775V110.216H185.775ZM162.223 107.912L163.215 108.038L163.358 106.912H162.223V107.912ZM161.327 114.952L161.13 115.933L162.183 116.143L162.319 115.078L161.327 114.952ZM158.127 114.312L157.884 115.282L157.907 115.288L157.93 115.293L158.127 114.312ZM156.527 113.608L155.862 114.355L155.887 114.377L155.913 114.397L156.527 113.608ZM155.951 107.912V106.912H154.951V107.912H155.951ZM172.015 107.912H173.015V106.912H172.015V107.912ZM171.439 113.608L172.052 114.397L172.078 114.377L172.103 114.355L171.439 113.608ZM169.839 114.312L170.035 115.293L170.058 115.288L170.081 115.282L169.839 114.312ZM166.639 114.952L165.647 115.078L165.782 116.143L166.835 115.933L166.639 114.952ZM165.743 107.912V106.912H164.607L164.751 108.038L165.743 107.912ZM183.215 107.912L184.208 108.029L184.34 106.912H183.215V107.912ZM182.383 114.952L182.186 115.933L183.248 116.145L183.376 115.069L182.383 114.952ZM179.183 114.312L178.94 115.282L178.963 115.288L178.986 115.293L179.183 114.312ZM177.519 113.608L176.854 114.355L176.898 114.394L176.945 114.427L177.519 113.608ZM176.943 107.912V106.912H175.943V107.912H176.943ZM193.071 107.912H194.071V106.912H193.071V107.912ZM192.495 113.608L193.108 114.397L193.134 114.377L193.159 114.355L192.495 113.608ZM190.895 114.312L191.087 115.293L191.112 115.288L191.137 115.282L190.895 114.312ZM187.631 114.952L186.637 115.069L186.764 116.141L187.823 115.933L187.631 114.952ZM186.799 107.912V106.912H185.673L185.805 108.029L186.799 107.912ZM170.415 141L171.345 140.635L158.353 107.547L157.423 107.912L156.492 108.277L169.484 141.365L170.415 141ZM157.423 107.912V108.912H164.975V107.912V106.912H157.423V107.912ZM164.975 107.912V108.912C165.428 108.912 165.73 109.029 165.95 109.205L166.575 108.424L167.199 107.643C166.566 107.136 165.801 106.912 164.975 106.912V107.912ZM166.575 108.424L166.038 109.268C166.343 109.462 166.508 109.679 166.595 109.918L167.535 109.576L168.474 109.234C168.22 108.534 167.744 107.983 167.111 107.58L166.575 108.424ZM167.535 109.576L166.585 109.889L171.897 126.017L172.847 125.704L173.796 125.391L168.484 109.263L167.535 109.576ZM172.847 125.704L171.894 126.009C172.232 127.064 172.548 128.119 172.844 129.174L173.807 128.904L174.769 128.634C174.467 127.556 174.144 126.477 173.799 125.399L172.847 125.704ZM173.807 128.904L172.844 129.174C173.138 130.225 173.411 131.298 173.664 132.393L174.639 132.168L175.613 131.943C175.354 130.819 175.072 129.716 174.769 128.634L173.807 128.904ZM174.639 132.168L175.619 132.364C175.827 131.323 176.077 130.28 176.369 129.238L175.407 128.968L174.444 128.698C174.138 129.789 173.876 130.88 173.658 131.972L174.639 132.168ZM175.407 128.968L176.369 129.238C176.662 128.191 176.998 127.123 177.375 126.031L176.431 125.704L175.486 125.377C175.095 126.504 174.748 127.611 174.444 128.698L175.407 128.968ZM176.431 125.704L177.377 126.027L182.881 109.899L181.935 109.576L180.988 109.253L175.484 125.381L176.431 125.704ZM181.935 109.576L182.874 109.918C182.972 109.65 183.138 109.429 183.404 109.243L182.831 108.424L182.257 107.605C181.67 108.016 181.239 108.563 180.995 109.234L181.935 109.576ZM182.831 108.424L183.455 109.205C183.688 109.019 183.974 108.912 184.367 108.912V107.912V106.912C183.565 106.912 182.827 107.146 182.206 107.643L182.831 108.424ZM184.367 107.912V108.912H191.535V107.912V106.912H184.367V107.912ZM191.535 107.912L190.603 107.548L177.675 140.636L178.607 141L179.538 141.364L192.466 108.276L191.535 107.912ZM178.607 141V140H170.415V141V142H178.607V141ZM163.823 110.216H164.823V107.912H163.823H162.823V110.216H163.823ZM163.823 107.912V108.912H168.623V107.912V106.912H163.823V107.912ZM168.623 107.912H167.623V110.216H168.623H169.623V107.912H168.623ZM168.623 110.216V109.216H163.823V110.216V111.216H168.623V110.216ZM181.039 110.216H182.039V107.912H181.039H180.039V110.216H181.039ZM181.039 107.912V108.912H185.775V107.912V106.912H181.039V107.912ZM185.775 107.912H184.775V110.216H185.775H186.775V107.912H185.775ZM185.775 110.216V109.216H181.039V110.216V111.216H185.775V110.216ZM162.223 107.912L161.231 107.786L160.335 114.826L161.327 114.952L162.319 115.078L163.215 108.038L162.223 107.912ZM161.327 114.952L161.523 113.971L158.323 113.331L158.127 114.312L157.93 115.293L161.13 115.933L161.327 114.952ZM158.127 114.312L158.369 113.342C157.766 113.191 157.377 113.003 157.14 112.819L156.527 113.608L155.913 114.397C156.444 114.811 157.122 115.092 157.884 115.282L158.127 114.312ZM156.527 113.608L157.191 112.861C157.085 112.766 156.951 112.568 156.951 112.072H155.951H154.951C154.951 112.941 155.2 113.767 155.862 114.355L156.527 113.608ZM155.951 112.072H156.951V107.912H155.951H154.951V112.072H155.951ZM155.951 107.912V108.912H162.223V107.912V106.912H155.951V107.912ZM172.015 107.912H171.015V112.072H172.015H173.015V107.912H172.015ZM172.015 112.072H171.015C171.015 112.568 170.88 112.766 170.774 112.861L171.439 113.608L172.103 114.355C172.765 113.767 173.015 112.941 173.015 112.072H172.015ZM171.439 113.608L170.825 112.819C170.588 113.003 170.199 113.191 169.596 113.342L169.839 114.312L170.081 115.282C170.843 115.092 171.521 114.811 172.052 114.397L171.439 113.608ZM169.839 114.312L169.642 113.331L166.442 113.971L166.639 114.952L166.835 115.933L170.035 115.293L169.839 114.312ZM166.639 114.952L167.631 114.826L166.735 107.786L165.743 107.912L164.751 108.038L165.647 115.078L166.639 114.952ZM165.743 107.912V108.912H172.015V107.912V106.912H165.743V107.912ZM183.215 107.912L182.221 107.795L181.389 114.835L182.383 114.952L183.376 115.069L184.208 108.029L183.215 107.912ZM182.383 114.952L182.579 113.971L179.379 113.331L179.183 114.312L178.986 115.293L182.186 115.933L182.383 114.952ZM179.183 114.312L179.425 113.342C178.822 113.191 178.39 112.997 178.092 112.789L177.519 113.608L176.945 114.427C177.5 114.816 178.178 115.092 178.94 115.282L179.183 114.312ZM177.519 113.608L178.183 112.861C178.077 112.766 177.943 112.568 177.943 112.072H176.943H175.943C175.943 112.941 176.192 113.767 176.854 114.355L177.519 113.608ZM176.943 112.072H177.943V107.912H176.943H175.943V112.072H176.943ZM176.943 107.912V108.912H183.215V107.912V106.912H176.943V107.912ZM193.071 107.912H192.071V112.072H193.071H194.071V107.912H193.071ZM193.071 112.072H192.071C192.071 112.568 191.936 112.766 191.83 112.861L192.495 113.608L193.159 114.355C193.821 113.767 194.071 112.941 194.071 112.072H193.071ZM192.495 113.608L191.881 112.819C191.644 113.003 191.255 113.191 190.652 113.342L190.895 114.312L191.137 115.282C191.899 115.092 192.577 114.811 193.108 114.397L192.495 113.608ZM190.895 114.312L190.702 113.331L187.438 113.971L187.631 114.952L187.823 115.933L191.087 115.293L190.895 114.312ZM187.631 114.952L188.624 114.835L187.792 107.795L186.799 107.912L185.805 108.029L186.637 115.069L187.631 114.952ZM186.799 107.912V108.912H193.071V107.912V106.912H186.799V107.912ZM206.544 139.912L205.989 140.744L206.001 140.752L206.014 140.76L206.544 139.912ZM202.768 135.432L201.854 135.838L201.857 135.846L202.768 135.432ZM201.488 107.912V106.912H200.488V107.912H201.488ZM210.512 107.912H211.512V106.912H210.512V107.912ZM211.728 133.192L210.943 133.813L210.958 133.831L210.973 133.848L211.728 133.192ZM218.832 133.896L219.264 134.798L219.279 134.791L219.293 134.783L218.832 133.896ZM221.84 131.656L222.547 132.363L222.84 132.07V131.656H221.84ZM221.84 107.912V106.912H220.84V107.912H221.84ZM230.928 107.912H231.928V106.912H230.928V107.912ZM230.928 141V142H231.928V141H230.928ZM223.056 139.4L222.081 139.623L222.086 139.646L222.093 139.67L223.056 139.4ZM222.544 137.16L223.518 136.937L223.13 135.239L221.86 136.43L222.544 137.16ZM218.128 140.296L217.671 139.406L217.671 139.406L218.128 140.296ZM229.52 141L228.526 140.883L228.394 142H229.52V141ZM230.352 133.96L230.566 132.983L229.488 132.746L229.358 133.843L230.352 133.96ZM233.552 134.664L233.337 135.641L233.352 135.644L233.367 135.647L233.552 134.664ZM235.152 135.368L234.487 136.115L234.507 136.133L234.527 136.149L235.152 135.368ZM235.792 141V142H236.792V141H235.792ZM202.896 107.912L203.887 108.038L204.031 106.912H202.896V107.912ZM202 114.952L201.803 115.933L202.856 116.143L202.991 115.078L202 114.952ZM198.8 114.312L198.557 115.282L198.58 115.288L198.603 115.293L198.8 114.312ZM197.2 113.608L196.535 114.355L196.56 114.377L196.586 114.397L197.2 113.608ZM196.624 107.912V106.912H195.624V107.912H196.624ZM223.248 107.912L224.241 108.029L224.373 106.912H223.248V107.912ZM222.416 114.952L222.219 115.933L223.281 116.145L223.409 115.069L222.416 114.952ZM219.216 114.312L218.973 115.282L218.996 115.288L219.019 115.293L219.216 114.312ZM217.552 113.608L216.887 114.355L216.931 114.394L216.978 114.427L217.552 113.608ZM216.976 107.912V106.912H215.976V107.912H216.976ZM212.624 141.512V140.512C210.433 140.512 208.596 140.016 207.073 139.064L206.544 139.912L206.014 140.76C207.904 141.942 210.121 142.512 212.624 142.512V141.512ZM206.544 139.912L207.098 139.08C205.594 138.077 204.457 136.731 203.678 135.018L202.768 135.432L201.857 135.846C202.785 137.887 204.165 139.528 205.989 140.744L206.544 139.912ZM202.768 135.432L203.681 135.026C202.893 133.252 202.488 131.218 202.488 128.904H201.488H200.488C200.488 131.454 200.935 133.772 201.854 135.838L202.768 135.432ZM201.488 128.904H202.488V107.912H201.488H200.488V128.904H201.488ZM201.488 107.912V108.912H210.512V107.912V106.912H201.488V107.912ZM210.512 107.912H209.512V128.904H210.512H211.512V107.912H210.512ZM210.512 128.904H209.512C209.512 130.875 209.946 132.553 210.943 133.813L211.728 133.192L212.512 132.571C211.888 131.783 211.512 130.603 211.512 128.904H210.512ZM211.728 133.192L210.973 133.848C212.062 135.1 213.606 135.664 215.44 135.664V134.664V133.664C214.03 133.664 213.1 133.247 212.482 132.536L211.728 133.192ZM215.44 134.664V135.664C216.782 135.664 218.061 135.375 219.264 134.798L218.832 133.896L218.399 132.994C217.469 133.441 216.486 133.664 215.44 133.664V134.664ZM218.832 133.896L219.293 134.783C220.459 134.177 221.543 133.367 222.547 132.363L221.84 131.656L221.132 130.949C220.259 131.823 219.337 132.506 218.37 133.009L218.832 133.896ZM221.84 131.656H222.84V107.912H221.84H220.84V131.656H221.84ZM221.84 107.912V108.912H230.928V107.912V106.912H221.84V107.912ZM230.928 107.912H229.928V141H230.928H231.928V107.912H230.928ZM230.928 141V140H225.36V141V142H230.928V141ZM225.36 141V140C224.88 140 224.596 139.897 224.426 139.779C224.267 139.668 224.117 139.483 224.018 139.13L223.056 139.4L222.093 139.67C222.292 140.384 222.676 140.999 223.285 141.421C223.883 141.837 224.602 142 225.36 142V141ZM223.056 139.4L224.03 139.177L223.518 136.937L222.544 137.16L221.569 137.383L222.081 139.623L223.056 139.4ZM222.544 137.16L221.86 136.43C220.558 137.65 219.162 138.641 217.671 139.406L218.128 140.296L218.584 141.186C220.25 140.33 221.798 139.23 223.227 137.89L222.544 137.16ZM218.128 140.296L217.671 139.406C216.256 140.133 214.584 140.512 212.624 140.512V141.512V142.512C214.845 142.512 216.841 142.081 218.584 141.186L218.128 140.296ZM229.52 141L230.513 141.117L231.345 134.077L230.352 133.96L229.358 133.843L228.526 140.883L229.52 141ZM230.352 133.96L230.137 134.937L233.337 135.641L233.552 134.664L233.766 133.687L230.566 132.983L230.352 133.96ZM233.552 134.664L233.367 135.647C233.932 135.753 234.279 135.93 234.487 136.115L235.152 135.368L235.816 134.621C235.256 134.123 234.536 133.831 233.736 133.681L233.552 134.664ZM235.152 135.368L234.527 136.149C234.674 136.267 234.792 136.446 234.792 136.84H235.792H236.792C236.792 135.954 236.482 135.152 235.776 134.587L235.152 135.368ZM235.792 136.84H234.792V141H235.792H236.792V136.84H235.792ZM235.792 141V140H229.52V141V142H235.792V141ZM202.896 107.912L201.904 107.786L201.008 114.826L202 114.952L202.991 115.078L203.887 108.038L202.896 107.912ZM202 114.952L202.196 113.971L198.996 113.331L198.8 114.312L198.603 115.293L201.803 115.933L202 114.952ZM198.8 114.312L199.042 113.342C198.439 113.191 198.05 113.003 197.813 112.819L197.2 113.608L196.586 114.397C197.117 114.811 197.795 115.092 198.557 115.282L198.8 114.312ZM197.2 113.608L197.864 112.861C197.758 112.766 197.624 112.568 197.624 112.072H196.624H195.624C195.624 112.941 195.873 113.767 196.535 114.355L197.2 113.608ZM196.624 112.072H197.624V107.912H196.624H195.624V112.072H196.624ZM196.624 107.912V108.912H202.896V107.912V106.912H196.624V107.912ZM223.248 107.912L222.254 107.795L221.422 114.835L222.416 114.952L223.409 115.069L224.241 108.029L223.248 107.912ZM222.416 114.952L222.612 113.971L219.412 113.331L219.216 114.312L219.019 115.293L222.219 115.933L222.416 114.952ZM219.216 114.312L219.458 113.342C218.855 113.191 218.423 112.997 218.125 112.789L217.552 113.608L216.978 114.427C217.533 114.816 218.211 115.092 218.973 115.282L219.216 114.312ZM217.552 113.608L218.216 112.861C218.11 112.766 217.976 112.568 217.976 112.072H216.976H215.976C215.976 112.941 216.225 113.767 216.887 114.355L217.552 113.608ZM216.976 112.072H217.976V107.912H216.976H215.976V112.072H216.976ZM216.976 107.912V108.912H223.248V107.912V106.912H216.976V107.912Z" fill="white" mask="url(#path-2-outside-1_5_71)"/>
</g>
<path fill-rule="evenodd" clip-rule="evenodd" d="M187 74C187.5 74.5 184.5 77.5 184 77C183.75 76.75 180.875 74.125 178 71.5C175.125 68.875 172.25 66.25 172 66C171.5 65.5 172 65 172 65L171 64L168.5 65.5L164.5 67L161 67.5L156.5 67L153 65.5L149.5 63L147 60L145.5 57.5L144.5 53V48.5L145.5 44.5L148 40.5L150.5 38L153.5 36L157.5 34.5H161.5L165 35L169.5 37L173.5 40.5L176 44.5L177 47.5V52.5L176 56.5L173.5 61.5L174.5 62.5C174.5 62.5 175 62 175.5 62.5L185.5 72.5L187 74ZM154.5 62.5L157 64L160 64.5L163 64L167.5 62.5L171 60.5L172.5 57L173.5 54L174 51.5V47L172.5 44L170.5 41.5L168.5 40L166 38.5L163.5 38C163.5 38 161.5 37.5 161 37.5C160.5 37.5 157.5 38 157.5 38L155.5 38.5L153 40L151 42L149.5 44L148.5 45.5L148 47L147.5 50L148 54C148 54 148.5 57 149 57.5C149.25 57.75 149.5 58.125 149.75 58.5C150 58.875 150.25 59.25 150.5 59.5C151 60 152 60.5 152 60.5L154.5 62.5Z" fill="url(#paint0_linear_5_71)"/>
<path d="M144.5 60.5L143.5 59L134 68C134 68 132 67.5 131.5 68C131 68.5 130 69.5 130 69.5C130 69.5 129.5 70.5 130 71.5C130.5 72.5 130.5 72.5 131 73C131.5 73.5 132.5 73.5 132.5 73.5C132.5 73.5 133.5 73.5 134 73.5C134.5 73.5 135 72.5 135.5 72C136 71.5 135.5 69.5 135.5 69.5L144.5 60.5Z" fill="url(#paint1_linear_5_71)"/>
<path d="M178 43L187 33C187 33 188.5 34 189 33.5L189.5 33L190 32.5L190.5 32C191 31.5 190.5 30 190.5 30L190 29L189.5 28.5L188.5 28H187.5L186.5 28.5C186.5 28.5 186 29 186 29.5V31.5L177 41L178 43Z" fill="url(#paint2_linear_5_71)"/>
<path d="M189 33.5C188.5 34 187 33 187 33L178 43L177 41L186 31.5M189 33.5L189.5 33M189 33.5C189.5 33 189.5 33 189.5 33M189.5 33L190 32.5M190 32.5L190.5 32M190 32.5C190 32.5 190 32.5 190.5 32M190.5 32C191 31.5 190.5 30 190.5 30L190 29L189.5 28.5L188.5 28H187.5L186.5 28.5C186.5 28.5 186 29 186 29.5M186 29.5V31.5M186 29.5C186 30 186 31.5 186 31.5M144.5 60.5L143.5 59L134 68C134 68 132 67.5 131.5 68C131 68.5 130 69.5 130 69.5C130 69.5 129.5 70.5 130 71.5C130.5 72.5 130.5 72.5 131 73C131.5 73.5 132.5 73.5 132.5 73.5C132.5 73.5 133.5 73.5 134 73.5C134.5 73.5 135 72.5 135.5 72C136 71.5 135.5 69.5 135.5 69.5L144.5 60.5ZM187 74C187.5 74.5 184.5 77.5 184 77C183.75 76.75 180.875 74.125 178 71.5C175.125 68.875 172.25 66.25 172 66C171.5 65.5 172 65 172 65L171 64L168.5 65.5L164.5 67L161 67.5L156.5 67L153 65.5L149.5 63L147 60L145.5 57.5L144.5 53V48.5L145.5 44.5L148 40.5L150.5 38L153.5 36L157.5 34.5H161.5L165 35L169.5 37L173.5 40.5L176 44.5L177 47.5V52.5L176 56.5L173.5 61.5L174.5 62.5C174.5 62.5 175 62 175.5 62.5L185.5 72.5L187 74ZM157 64L154.5 62.5L152 60.5C152 60.5 151 60 150.5 59.5C150.25 59.25 150 58.875 149.75 58.5C149.5 58.125 149.25 57.75 149 57.5C148.5 57 148 54 148 54L147.5 50L148 47L148.5 45.5L149.5 44L151 42L153 40L155.5 38.5L157.5 38C157.5 38 160.5 37.5 161 37.5C161.5 37.5 163.5 38 163.5 38L166 38.5L168.5 40L170.5 41.5L172.5 44L174 47V51.5L173.5 54L172.5 57L171 60.5L167.5 62.5L163 64L160 64.5L157 64ZM151 55.5L155.5 51H158.5L161 53V55.5L161.5 56.5L162 57.5C162 57.5 162.5 58.5 163 58.5C163.5 58.5 164 58.5 164 58.5H165C165 58.5 165.5 58.5 166 58.5C166.5 58.5 167.5 57.5 167.5 57.5L168 56.5L168.5 55.5V53.5V53L171.5 50V46L167 50.5H163L161 49V46C161 46 159.5 43.5 159 43.5C158.5 43.5 156 43.5 155.5 43.5C155 43.5 154 44.5 153.5 45C153 45.5 153 48.5 153 48.5L149.5 52L150 54L150.5 56L151 55.5Z" stroke="url(#paint3_linear_5_71)"/>
<path d="M103.504 154.82C103.372 154.916 103.204 154.982 103 155.018C102.796 155.058 102.58 155.078 102.352 155.078C102.084 155.078 101.828 155.036 101.584 154.952C101.344 154.864 101.132 154.732 100.948 154.556C100.764 154.376 100.618 154.15 100.51 153.878C100.402 153.602 100.348 153.276 100.348 152.9C100.348 152.508 100.408 152.174 100.528 151.898C100.648 151.622 100.804 151.398 100.996 151.226C101.188 151.05 101.404 150.922 101.644 150.842C101.884 150.762 102.122 150.722 102.358 150.722C102.622 150.722 102.838 150.736 103.006 150.764C103.174 150.792 103.316 150.828 103.432 150.872L103.3 151.388C103.104 151.296 102.806 151.25 102.406 151.25C102.226 151.25 102.05 151.28 101.878 151.34C101.71 151.396 101.558 151.49 101.422 151.622C101.29 151.75 101.184 151.92 101.104 152.132C101.024 152.34 100.984 152.596 100.984 152.9C100.984 153.172 101.022 153.412 101.098 153.62C101.174 153.824 101.278 153.996 101.41 154.136C101.546 154.272 101.704 154.376 101.884 154.448C102.068 154.516 102.268 154.55 102.484 154.55C102.68 154.55 102.85 154.532 102.994 154.496C103.138 154.46 103.26 154.414 103.36 154.358L103.504 154.82ZM110.516 153.902H108.854L108.41 155H107.822L109.55 150.74H109.862L111.596 155H110.972L110.516 153.902ZM109.034 153.398H110.342L109.856 152.204L109.694 151.562H109.682L109.52 152.216L109.034 153.398ZM116.375 150.842C116.543 150.806 116.725 150.782 116.921 150.77C117.121 150.754 117.317 150.746 117.509 150.746C117.713 150.746 117.919 150.764 118.127 150.8C118.339 150.836 118.531 150.902 118.703 150.998C118.875 151.094 119.015 151.228 119.123 151.4C119.235 151.568 119.291 151.786 119.291 152.054C119.291 152.306 119.241 152.522 119.141 152.702C119.041 152.878 118.907 153.022 118.739 153.134C118.575 153.246 118.385 153.328 118.169 153.38C117.957 153.432 117.737 153.458 117.509 153.458C117.485 153.458 117.447 153.458 117.395 153.458C117.347 153.454 117.295 153.452 117.239 153.452C117.187 153.448 117.135 153.444 117.083 153.44C117.035 153.436 116.999 153.432 116.975 153.428V155H116.375V150.842ZM117.527 151.262C117.419 151.262 117.313 151.264 117.209 151.268C117.109 151.272 117.031 151.282 116.975 151.298V152.912C116.995 152.92 117.027 152.926 117.071 152.93C117.119 152.93 117.167 152.932 117.215 152.936C117.267 152.94 117.315 152.942 117.359 152.942C117.407 152.942 117.443 152.942 117.467 152.942C117.611 152.942 117.753 152.932 117.893 152.912C118.033 152.888 118.159 152.844 118.271 152.78C118.387 152.716 118.479 152.626 118.547 152.51C118.619 152.394 118.655 152.244 118.655 152.06C118.655 151.9 118.621 151.768 118.553 151.664C118.485 151.56 118.397 151.478 118.289 151.418C118.181 151.358 118.059 151.318 117.923 151.298C117.791 151.274 117.659 151.262 117.527 151.262ZM127.179 151.328H125.763V155H125.163V151.328H123.747V150.8H127.179V151.328ZM134.657 150.8H135.221V153.542C135.221 153.802 135.183 154.026 135.107 154.214C135.035 154.402 134.931 154.56 134.795 154.688C134.659 154.812 134.497 154.904 134.309 154.964C134.125 155.024 133.919 155.054 133.691 155.054C133.151 155.054 132.739 154.938 132.455 154.706C132.171 154.47 132.029 154.122 132.029 153.662V150.8H132.629V153.434C132.629 153.842 132.717 154.126 132.893 154.286C133.073 154.446 133.337 154.526 133.685 154.526C134.021 154.526 134.267 154.438 134.423 154.262C134.579 154.086 134.657 153.804 134.657 153.416V150.8ZM140.489 150.842C140.573 150.826 140.665 150.812 140.765 150.8C140.869 150.788 140.973 150.778 141.077 150.77C141.181 150.762 141.285 150.756 141.389 150.752C141.493 150.748 141.591 150.746 141.683 150.746C141.883 150.746 142.075 150.766 142.259 150.806C142.447 150.846 142.611 150.912 142.751 151.004C142.895 151.096 143.009 151.216 143.093 151.364C143.181 151.512 143.225 151.694 143.225 151.91C143.225 152.078 143.199 152.23 143.147 152.366C143.095 152.502 143.023 152.622 142.931 152.726C142.839 152.83 142.729 152.918 142.601 152.99C142.477 153.058 142.341 153.11 142.193 153.146L142.505 153.356L143.633 155H142.943L141.695 153.23L141.089 153.146V155H140.489V150.842ZM141.701 151.262C141.645 151.262 141.587 151.262 141.527 151.262C141.471 151.262 141.415 151.264 141.359 151.268C141.303 151.272 141.251 151.276 141.203 151.28C141.155 151.284 141.117 151.29 141.089 151.298V152.75H141.581C141.725 152.75 141.857 152.736 141.977 152.708C142.101 152.676 142.207 152.63 142.295 152.57C142.387 152.506 142.459 152.424 142.511 152.324C142.563 152.224 142.589 152.102 142.589 151.958C142.589 151.742 142.513 151.572 142.361 151.448C142.209 151.324 141.989 151.262 141.701 151.262ZM148.609 150.8H151.147V151.316H149.209V152.594H150.979V153.11H149.209V154.484H151.177V155H148.609V150.8ZM162.265 150.8H164.803V151.316H162.865V152.594H164.635V153.11H162.865V154.484H164.833V155H162.265V150.8ZM171.121 152.864L169.735 150.8H170.449L171.355 152.18L171.517 152.528L171.673 152.18L172.621 150.8H173.281L171.853 152.822L173.347 155H172.645L171.643 153.536L171.457 153.17L171.289 153.536L170.263 155H169.603L171.121 152.864ZM178.241 150.842C178.409 150.806 178.591 150.782 178.787 150.77C178.987 150.754 179.183 150.746 179.375 150.746C179.579 150.746 179.785 150.764 179.993 150.8C180.205 150.836 180.397 150.902 180.569 150.998C180.741 151.094 180.881 151.228 180.989 151.4C181.101 151.568 181.157 151.786 181.157 152.054C181.157 152.306 181.107 152.522 181.007 152.702C180.907 152.878 180.773 153.022 180.605 153.134C180.441 153.246 180.251 153.328 180.035 153.38C179.823 153.432 179.603 153.458 179.375 153.458C179.351 153.458 179.313 153.458 179.261 153.458C179.213 153.454 179.161 153.452 179.105 153.452C179.053 153.448 179.001 153.444 178.949 153.44C178.901 153.436 178.865 153.432 178.841 153.428V155H178.241V150.842ZM179.393 151.262C179.285 151.262 179.179 151.264 179.075 151.268C178.975 151.272 178.897 151.282 178.841 151.298V152.912C178.861 152.92 178.893 152.926 178.937 152.93C178.985 152.93 179.033 152.932 179.081 152.936C179.133 152.94 179.181 152.942 179.225 152.942C179.273 152.942 179.309 152.942 179.333 152.942C179.477 152.942 179.619 152.932 179.759 152.912C179.899 152.888 180.025 152.844 180.137 152.78C180.253 152.716 180.345 152.626 180.413 152.51C180.485 152.394 180.521 152.244 180.521 152.06C180.521 151.9 180.487 151.768 180.419 151.664C180.351 151.56 180.263 151.478 180.155 151.418C180.047 151.358 179.925 151.318 179.789 151.298C179.657 151.274 179.525 151.262 179.393 151.262ZM186.127 150.8H188.665V151.316H186.727V152.594H188.497V153.11H186.727V154.484H188.695V155H186.127V150.8ZM194.712 152.33L194.352 151.742H194.328L194.4 152.33V155H193.836V150.74H194.172L196.314 153.464L196.656 154.022H196.686L196.614 153.464V150.8H197.178V155.06H196.842L194.712 152.33ZM204.512 153.896C204.512 153.732 204.458 153.602 204.35 153.506C204.242 153.41 204.106 153.328 203.942 153.26C203.778 153.188 203.602 153.122 203.414 153.062C203.226 152.998 203.05 152.918 202.886 152.822C202.722 152.726 202.586 152.602 202.478 152.45C202.37 152.298 202.316 152.1 202.316 151.856C202.316 151.516 202.44 151.242 202.688 151.034C202.94 150.826 203.298 150.722 203.762 150.722C204.03 150.722 204.276 150.742 204.5 150.782C204.724 150.822 204.9 150.874 205.028 150.938L204.842 151.442C204.742 151.39 204.592 151.344 204.392 151.304C204.192 151.26 203.972 151.238 203.732 151.238C203.46 151.238 203.256 151.296 203.12 151.412C202.984 151.528 202.916 151.662 202.916 151.814C202.916 151.97 202.97 152.096 203.078 152.192C203.186 152.288 203.322 152.374 203.486 152.45C203.65 152.522 203.826 152.592 204.014 152.66C204.202 152.728 204.378 152.812 204.542 152.912C204.706 153.012 204.842 153.136 204.95 153.284C205.058 153.428 205.112 153.614 205.112 153.842C205.112 154.03 205.076 154.2 205.004 154.352C204.932 154.504 204.828 154.634 204.692 154.742C204.556 154.85 204.392 154.934 204.2 154.994C204.008 155.05 203.79 155.078 203.546 155.078C203.218 155.078 202.94 155.052 202.712 155C202.488 154.952 202.318 154.9 202.202 154.844L202.4 154.322C202.5 154.374 202.65 154.428 202.85 154.484C203.054 154.536 203.278 154.562 203.522 154.562C203.662 154.562 203.792 154.55 203.912 154.526C204.032 154.498 204.136 154.458 204.224 154.406C204.316 154.35 204.386 154.28 204.434 154.196C204.486 154.112 204.512 154.012 204.512 153.896ZM210.135 150.8H212.673V151.316H210.735V152.594H212.505V153.11H210.735V154.484H212.703V155H210.135V150.8ZM219.909 153.896C219.909 153.732 219.855 153.602 219.747 153.506C219.639 153.41 219.503 153.328 219.339 153.26C219.175 153.188 218.999 153.122 218.811 153.062C218.623 152.998 218.447 152.918 218.283 152.822C218.119 152.726 217.983 152.602 217.875 152.45C217.767 152.298 217.713 152.1 217.713 151.856C217.713 151.516 217.837 151.242 218.085 151.034C218.337 150.826 218.695 150.722 219.159 150.722C219.427 150.722 219.673 150.742 219.897 150.782C220.121 150.822 220.297 150.874 220.425 150.938L220.239 151.442C220.139 151.39 219.989 151.344 219.789 151.304C219.589 151.26 219.369 151.238 219.129 151.238C218.857 151.238 218.653 151.296 218.517 151.412C218.381 151.528 218.313 151.662 218.313 151.814C218.313 151.97 218.367 152.096 218.475 152.192C218.583 152.288 218.719 152.374 218.883 152.45C219.047 152.522 219.223 152.592 219.411 152.66C219.599 152.728 219.775 152.812 219.939 152.912C220.103 153.012 220.239 153.136 220.347 153.284C220.455 153.428 220.509 153.614 220.509 153.842C220.509 154.03 220.473 154.2 220.401 154.352C220.329 154.504 220.225 154.634 220.089 154.742C219.953 154.85 219.789 154.934 219.597 154.994C219.405 155.05 219.187 155.078 218.943 155.078C218.615 155.078 218.337 155.052 218.109 155C217.885 154.952 217.715 154.9 217.599 154.844L217.797 154.322C217.897 154.374 218.047 154.428 218.247 154.484C218.451 154.536 218.675 154.562 218.919 154.562C219.059 154.562 219.189 154.55 219.309 154.526C219.429 154.498 219.533 154.458 219.621 154.406C219.713 154.35 219.783 154.28 219.831 154.196C219.883 154.112 219.909 154.012 219.909 153.896Z" fill="#FFD11B"/>
<defs>
<filter id="filter0_d_5_71" x="80.472" y="92.192" width="160.32" height="60.3446" filterUnits="userSpaceOnUse" color-interpolation-filters="sRGB">
<feFlood flood-opacity="0" result="BackgroundImageFix"/>
<feColorMatrix in="SourceAlpha" type="matrix" values="0 0 0 0 0 0 0 0 0 0 0 0 0 0 0 0 0 0 127 0" result="hardAlpha"/>
<feOffset dy="4"/>
<feGaussianBlur stdDeviation="2"/>
<feComposite in2="hardAlpha" operator="out"/>
<feColorMatrix type="matrix" values="0 0 0 0 0 0 0 0 0 0 0 0 0 0 0 0 0 0 0.25 0"/>
<feBlend mode="normal" in2="BackgroundImageFix" result="effect1_dropShadow_5_71"/>
<feBlend mode="normal" in="SourceGraphic" in2="effect1_dropShadow_5_71" result="shape"/>
</filter>
<linearGradient id="paint0_linear_5_71" x1="131" y1="53.7638" x2="190.722" y2="51.2922" gradientUnits="userSpaceOnUse">
<stop stop-color="#C0A847"/>
<stop offset="1" stop-color="#FFD11B"/>
</linearGradient>
<linearGradient id="paint1_linear_5_71" x1="131" y1="53.7638" x2="190.722" y2="51.2922" gradientUnits="userSpaceOnUse">
<stop stop-color="#C0A847"/>
<stop offset="1" stop-color="#FFD11B"/>
</linearGradient>
<linearGradient id="paint2_linear_5_71" x1="131" y1="53.7638" x2="190.722" y2="51.2922" gradientUnits="userSpaceOnUse">
<stop stop-color="#C0A847"/>
<stop offset="1" stop-color="#FFD11B"/>
</linearGradient>
<linearGradient id="paint3_linear_5_71" x1="131" y1="52.6738" x2="190.722" y2="52.3822" gradientUnits="userSpaceOnUse">
<stop stop-color="#C0A847"/>
<stop offset="1" stop-color="#FFD11B"/>
</linearGradient>
</defs>
</svg>
