<svg width="62" height="51" viewBox="0 0 62 51" fill="none" xmlns="http://www.w3.org/2000/svg">
<path fill-rule="evenodd" clip-rule="evenodd" d="M57.7222 46.5C58.2222 47 55.2222 50 54.7222 49.5C54.4722 49.25 51.5972 46.625 48.7222 44C45.8472 41.375 42.9722 38.75 42.7222 38.5C42.2222 38 42.7222 37.5 42.7222 37.5L41.7222 36.5L39.2222 38L35.2222 39.5L31.7222 40L27.2222 39.5L23.7222 38L20.2222 35.5L17.7222 32.5L16.2222 30L15.2222 25.5V21L16.2222 17L18.7222 13L21.2222 10.5L24.2222 8.5L28.2222 7H32.2222L35.7222 7.5L40.2222 9.5L44.2222 13L46.7222 17L47.7222 20V25L46.7222 29L44.2222 34L45.2222 35C45.2222 35 45.7222 34.5 46.2222 35L56.2222 45L57.7222 46.5ZM25.2222 35L27.7222 36.5L30.7222 37L33.7222 36.5L38.2222 35L41.7222 33L43.2222 29.5L44.2222 26.5L44.7222 24V19.5L43.2222 16.5L41.2222 14L39.2222 12.5L36.7222 11L34.2222 10.5C34.2222 10.5 32.2222 10 31.7222 10C31.2222 10 28.2222 10.5 28.2222 10.5L26.2222 11L23.7222 12.5L21.7222 14.5L20.2222 16.5L19.2222 18L18.7222 19.5L18.2222 22.5L18.7222 26.5C18.7222 26.5 19.2222 29.5 19.7222 30C19.9722 30.25 20.2222 30.625 20.4722 31C20.7222 31.375 20.9722 31.75 21.2222 32C21.7222 32.5 22.7222 33 22.7222 33L25.2222 35Z" fill="url(#paint0_linear_5_74)"/>
<path d="M15.2222 33L14.2222 31.5L4.72218 40.5C4.72218 40.5 2.72218 40 2.22218 40.5C1.72218 41 0.722183 42 0.722183 42C0.722183 42 0.222183 43 0.722183 44C1.22218 45 1.22218 45 1.72218 45.5C2.22219 46 3.22218 46 3.22218 46C3.22218 46 4.22218 46 4.72218 46C5.22218 46 5.72218 45 6.22218 44.5C6.72219 44 6.22218 42 6.22218 42L15.2222 33Z" fill="url(#paint1_linear_5_74)"/>
<path d="M48.7222 15.5L57.7222 5.5C57.7222 5.5 59.2222 6.5 59.7222 6L60.2222 5.5L60.7222 5L61.2222 4.5C61.7222 4 61.2222 2.5 61.2222 2.5L60.7222 1.5L60.2222 1L59.2222 0.5H58.2222L57.2222 1C57.2222 1 56.7222 1.5 56.7222 2V4L47.7222 13.5L48.7222 15.5Z" fill="url(#paint2_linear_5_74)"/>
<path d="M59.7222 6C59.2222 6.5 57.7222 5.5 57.7222 5.5L48.7222 15.5L47.7222 13.5L56.7222 4M59.7222 6L60.2222 5.5M59.7222 6C60.2222 5.5 60.2222 5.5 60.2222 5.5M60.2222 5.5L60.7222 5M60.7222 5L61.2222 4.5M60.7222 5C60.7222 5 60.7222 5 61.2222 4.5M61.2222 4.5C61.7222 4 61.2222 2.5 61.2222 2.5L60.7222 1.5L60.2222 1L59.2222 0.5H58.2222L57.2222 1C57.2222 1 56.7222 1.5 56.7222 2M56.7222 2V4M56.7222 2C56.7222 2.5 56.7222 4 56.7222 4M15.2222 33L14.2222 31.5L4.72218 40.5C4.72218 40.5 2.72218 40 2.22218 40.5C1.72218 41 0.722183 42 0.722183 42C0.722183 42 0.222183 43 0.722183 44C1.22218 45 1.22218 45 1.72218 45.5C2.22219 46 3.22218 46 3.22218 46C3.22218 46 4.22218 46 4.72218 46C5.22218 46 5.72218 45 6.22218 44.5C6.72219 44 6.22218 42 6.22218 42L15.2222 33ZM57.7222 46.5C58.2222 47 55.2222 50 54.7222 49.5C54.4722 49.25 51.5972 46.625 48.7222 44C45.8472 41.375 42.9722 38.75 42.7222 38.5C42.2222 38 42.7222 37.5 42.7222 37.5L41.7222 36.5L39.2222 38L35.2222 39.5L31.7222 40L27.2222 39.5L23.7222 38L20.2222 35.5L17.7222 32.5L16.2222 30L15.2222 25.5V21L16.2222 17L18.7222 13L21.2222 10.5L24.2222 8.5L28.2222 7H32.2222L35.7222 7.5L40.2222 9.5L44.2222 13L46.7222 17L47.7222 20V25L46.7222 29L44.2222 34L45.2222 35C45.2222 35 45.7222 34.5 46.2222 35L56.2222 45L57.7222 46.5ZM27.7222 36.5L25.2222 35L22.7222 33C22.7222 33 21.7222 32.5 21.2222 32C20.9722 31.75 20.7222 31.375 20.4722 31C20.2222 30.625 19.9722 30.25 19.7222 30C19.2222 29.5 18.7222 26.5 18.7222 26.5L18.2222 22.5L18.7222 19.5L19.2222 18L20.2222 16.5L21.7222 14.5L23.7222 12.5L26.2222 11L28.2222 10.5C28.2222 10.5 31.2222 10 31.7222 10C32.2222 10 34.2222 10.5 34.2222 10.5L36.7222 11L39.2222 12.5L41.2222 14L43.2222 16.5L44.7222 19.5V24L44.2222 26.5L43.2222 29.5L41.7222 33L38.2222 35L33.7222 36.5L30.7222 37L27.7222 36.5ZM21.7222 28L26.2222 23.5H29.2222L31.7222 25.5V28L32.2222 29L32.7222 30C32.7222 30 33.2222 31 33.7222 31C34.2222 31 34.7222 31 34.7222 31H35.7222C35.7222 31 36.2222 31 36.7222 31C37.2222 31 38.2222 30 38.2222 30L38.7222 29L39.2222 28V26V25.5L42.2222 22.5V18.5L37.7222 23H33.7222L31.7222 21.5V18.5C31.7222 18.5 30.2222 16 29.7222 16C29.2222 16 26.7222 16 26.2222 16C25.7222 16 24.7222 17 24.2222 17.5C23.7222 18 23.7222 21 23.7222 21L20.2222 24.5L20.7222 26.5L21.2222 28.5L21.7222 28Z" stroke="url(#paint3_linear_5_74)"/>
<defs>
<linearGradient id="paint0_linear_5_74" x1="1.72218" y1="26.2638" x2="61.4444" y2="23.7922" gradientUnits="userSpaceOnUse">
<stop stop-color="#C0A847"/>
<stop offset="1" stop-color="#FFD11B"/>
</linearGradient>
<linearGradient id="paint1_linear_5_74" x1="1.72218" y1="26.2638" x2="61.4444" y2="23.7922" gradientUnits="userSpaceOnUse">
<stop stop-color="#C0A847"/>
<stop offset="1" stop-color="#FFD11B"/>
</linearGradient>
<linearGradient id="paint2_linear_5_74" x1="1.72218" y1="26.2638" x2="61.4444" y2="23.7922" gradientUnits="userSpaceOnUse">
<stop stop-color="#C0A847"/>
<stop offset="1" stop-color="#FFD11B"/>
</linearGradient>
<linearGradient id="paint3_linear_5_74" x1="1.72218" y1="25.1738" x2="61.4444" y2="24.8822" gradientUnits="userSpaceOnUse">
<stop stop-color="#C0A847"/>
<stop offset="1" stop-color="#FFD11B"/>
</linearGradient>
</defs>
</svg>
