<svg width="161" height="61" viewBox="0 0 161 61" fill="none" xmlns="http://www.w3.org/2000/svg">
<g filter="url(#filter0_d_1_4)">
<mask id="path-1-outside-1_1_4" maskUnits="userSpaceOnUse" x="3.52802" y="-0.191986" width="153" height="53" fill="black">
<rect fill="white" x="3.52802" y="-0.191986" width="153" height="53"/>
<path d="M9.86402 48.808V2.28001H24.584C28.2533 2.28001 31.4534 2.77068 34.184 3.75201C36.9574 4.69068 39.0907 6.16268 40.584 8.16801C42.12 10.1733 42.888 12.7547 42.888 15.912C42.888 18.0027 42.504 19.9227 41.736 21.672C40.968 23.3787 39.8587 24.872 38.408 26.152C37 27.3893 35.2507 28.392 33.16 29.16C34.5254 29.8 35.6347 30.8027 36.488 32.168L47.112 48.808H38.216C36.5094 48.808 35.3147 48.168 34.632 46.888L25.992 32.744C25.6507 32.1893 25.2453 31.784 24.776 31.528C24.3493 31.272 23.7093 31.144 22.856 31.144H19.72V48.808H9.86402ZM19.72 24.296H24.52C27.4213 24.296 29.5973 23.6133 31.048 22.248C32.5414 20.84 33.288 18.984 33.288 16.68C33.288 14.4613 32.5627 12.7547 31.112 11.56C29.704 10.3653 27.528 9.76801 24.584 9.76801H19.72V24.296ZM41.096 48.808L37.64 40.936L42.184 41.832L41.096 48.808ZM5.00002 48.808V44.648C5.00002 44.008 5.19202 43.5173 5.57602 43.176C5.96002 42.8347 6.49335 42.6 7.17602 42.472L10.376 41.768L11.272 48.808H5.00002ZM11.272 2.28001L10.376 9.32001L7.17602 8.68001C6.49335 8.50934 5.96002 8.27468 5.57602 7.97601C5.19202 7.63468 5.00002 7.12268 5.00002 6.44001V2.28001H11.272ZM18.312 48.808L19.144 41.768L22.408 42.472C23.0907 42.6 23.624 42.8347 24.008 43.176C24.392 43.5173 24.584 44.008 24.584 44.648V48.808H18.312ZM41.096 48.808L41.928 41.768L45.192 42.472C45.8747 42.6 46.408 42.8347 46.792 43.176C47.176 43.5173 47.368 44.008 47.368 44.648V48.808H41.096ZM57.0535 48.808V15.72H66.1415V48.808H57.0535ZM52.1895 48.808V44.648C52.1895 44.008 52.3815 43.5173 52.7655 43.176C53.1922 42.8347 53.7469 42.6 54.4295 42.472L57.6295 41.768L58.4615 48.808H52.1895ZM64.7335 48.808L65.5655 41.768L68.7655 42.472C69.4482 42.6 69.9815 42.8347 70.3655 43.176C70.7922 43.5173 71.0055 44.008 71.0055 44.648V48.808H64.7335ZM58.4615 15.72L57.6295 22.76L54.4295 22.12C53.7469 21.9493 53.1922 21.7147 52.7655 21.416C52.3815 21.0747 52.1895 20.5627 52.1895 19.88V15.72H58.4615ZM61.7255 11.816C60.2749 11.816 58.9948 11.2827 57.8855 10.216C56.7762 9.14935 56.2215 7.89068 56.2215 6.44001C56.2215 4.90401 56.7762 3.62401 57.8855 2.60001C58.9948 1.53334 60.2749 1.00001 61.7255 1.00001C63.2615 1.00001 64.5842 1.53334 65.6935 2.60001C66.8455 3.62401 67.4215 4.90401 67.4215 6.44001C67.4215 7.89068 66.8455 9.14935 65.6935 10.216C64.5842 11.2827 63.2615 11.816 61.7255 11.816ZM89.9425 48.808L76.9505 15.72H84.5025C85.1425 15.72 85.6759 15.8907 86.1025 16.232C86.5719 16.5307 86.8919 16.9147 87.0625 17.384L92.3745 33.512C92.7159 34.5787 93.0359 35.6453 93.3345 36.712C93.6332 37.7787 93.9105 38.8667 94.1665 39.976C94.3799 38.9093 94.6359 37.8427 94.9345 36.776C95.2332 35.7093 95.5745 34.6213 95.9585 33.512L101.463 17.384C101.633 16.9147 101.932 16.5307 102.359 16.232C102.785 15.8907 103.297 15.72 103.895 15.72H111.063L98.1345 48.808H89.9425ZM83.3505 18.024V15.72H88.1505V18.024H83.3505ZM100.567 18.024V15.72H105.303V18.024H100.567ZM81.7505 15.72L80.8545 22.76L77.6545 22.12C76.9719 21.9493 76.4385 21.7147 76.0545 21.416C75.6705 21.0747 75.4785 20.5627 75.4785 19.88V15.72H81.7505ZM91.5425 15.72V19.88C91.5425 20.5627 91.3505 21.0747 90.9665 21.416C90.5825 21.7147 90.0492 21.9493 89.3665 22.12L86.1665 22.76L85.2705 15.72H91.5425ZM102.743 15.72L101.911 22.76L98.7105 22.12C98.0279 21.9493 97.4732 21.7147 97.0465 21.416C96.6625 21.0747 96.4705 20.5627 96.4705 19.88V15.72H102.743ZM112.599 15.72V19.88C112.599 20.5627 112.407 21.0747 112.023 21.416C111.639 21.7147 111.105 21.9493 110.423 22.12L107.159 22.76L106.327 15.72H112.599ZM132.152 49.32C129.805 49.32 127.778 48.7867 126.072 47.72C124.408 46.6107 123.149 45.1173 122.296 43.24C121.442 41.32 121.016 39.144 121.016 36.712V15.72H130.04V36.712C130.04 38.5467 130.445 39.976 131.256 41C132.109 41.9813 133.346 42.472 134.968 42.472C136.162 42.472 137.293 42.216 138.36 41.704C139.426 41.1493 140.429 40.4027 141.368 39.464V15.72H150.456V48.808H144.888C143.65 48.808 142.882 48.2747 142.584 47.208L142.072 44.968C140.706 46.248 139.234 47.2933 137.656 48.104C136.077 48.9147 134.242 49.32 132.152 49.32ZM149.048 48.808L149.88 41.768L153.08 42.472C153.762 42.6 154.296 42.8347 154.68 43.176C155.106 43.5173 155.32 44.008 155.32 44.648V48.808H149.048ZM122.424 15.72L121.528 22.76L118.328 22.12C117.645 21.9493 117.112 21.7147 116.728 21.416C116.344 21.0747 116.152 20.5627 116.152 19.88V15.72H122.424ZM142.776 15.72L141.944 22.76L138.744 22.12C138.061 21.9493 137.506 21.7147 137.08 21.416C136.696 21.0747 136.504 20.5627 136.504 19.88V15.72H142.776Z"/>
</mask>
<path d="M9.86402 48.808V2.28001H24.584C28.2533 2.28001 31.4534 2.77068 34.184 3.75201C36.9574 4.69068 39.0907 6.16268 40.584 8.16801C42.12 10.1733 42.888 12.7547 42.888 15.912C42.888 18.0027 42.504 19.9227 41.736 21.672C40.968 23.3787 39.8587 24.872 38.408 26.152C37 27.3893 35.2507 28.392 33.16 29.16C34.5254 29.8 35.6347 30.8027 36.488 32.168L47.112 48.808H38.216C36.5094 48.808 35.3147 48.168 34.632 46.888L25.992 32.744C25.6507 32.1893 25.2453 31.784 24.776 31.528C24.3493 31.272 23.7093 31.144 22.856 31.144H19.72V48.808H9.86402ZM19.72 24.296H24.52C27.4213 24.296 29.5973 23.6133 31.048 22.248C32.5414 20.84 33.288 18.984 33.288 16.68C33.288 14.4613 32.5627 12.7547 31.112 11.56C29.704 10.3653 27.528 9.76801 24.584 9.76801H19.72V24.296ZM41.096 48.808L37.64 40.936L42.184 41.832L41.096 48.808ZM5.00002 48.808V44.648C5.00002 44.008 5.19202 43.5173 5.57602 43.176C5.96002 42.8347 6.49335 42.6 7.17602 42.472L10.376 41.768L11.272 48.808H5.00002ZM11.272 2.28001L10.376 9.32001L7.17602 8.68001C6.49335 8.50934 5.96002 8.27468 5.57602 7.97601C5.19202 7.63468 5.00002 7.12268 5.00002 6.44001V2.28001H11.272ZM18.312 48.808L19.144 41.768L22.408 42.472C23.0907 42.6 23.624 42.8347 24.008 43.176C24.392 43.5173 24.584 44.008 24.584 44.648V48.808H18.312ZM41.096 48.808L41.928 41.768L45.192 42.472C45.8747 42.6 46.408 42.8347 46.792 43.176C47.176 43.5173 47.368 44.008 47.368 44.648V48.808H41.096ZM57.0535 48.808V15.72H66.1415V48.808H57.0535ZM52.1895 48.808V44.648C52.1895 44.008 52.3815 43.5173 52.7655 43.176C53.1922 42.8347 53.7469 42.6 54.4295 42.472L57.6295 41.768L58.4615 48.808H52.1895ZM64.7335 48.808L65.5655 41.768L68.7655 42.472C69.4482 42.6 69.9815 42.8347 70.3655 43.176C70.7922 43.5173 71.0055 44.008 71.0055 44.648V48.808H64.7335ZM58.4615 15.72L57.6295 22.76L54.4295 22.12C53.7469 21.9493 53.1922 21.7147 52.7655 21.416C52.3815 21.0747 52.1895 20.5627 52.1895 19.88V15.72H58.4615ZM61.7255 11.816C60.2749 11.816 58.9948 11.2827 57.8855 10.216C56.7762 9.14935 56.2215 7.89068 56.2215 6.44001C56.2215 4.90401 56.7762 3.62401 57.8855 2.60001C58.9948 1.53334 60.2749 1.00001 61.7255 1.00001C63.2615 1.00001 64.5842 1.53334 65.6935 2.60001C66.8455 3.62401 67.4215 4.90401 67.4215 6.44001C67.4215 7.89068 66.8455 9.14935 65.6935 10.216C64.5842 11.2827 63.2615 11.816 61.7255 11.816ZM89.9425 48.808L76.9505 15.72H84.5025C85.1425 15.72 85.6759 15.8907 86.1025 16.232C86.5719 16.5307 86.8919 16.9147 87.0625 17.384L92.3745 33.512C92.7159 34.5787 93.0359 35.6453 93.3345 36.712C93.6332 37.7787 93.9105 38.8667 94.1665 39.976C94.3799 38.9093 94.6359 37.8427 94.9345 36.776C95.2332 35.7093 95.5745 34.6213 95.9585 33.512L101.463 17.384C101.633 16.9147 101.932 16.5307 102.359 16.232C102.785 15.8907 103.297 15.72 103.895 15.72H111.063L98.1345 48.808H89.9425ZM83.3505 18.024V15.72H88.1505V18.024H83.3505ZM100.567 18.024V15.72H105.303V18.024H100.567ZM81.7505 15.72L80.8545 22.76L77.6545 22.12C76.9719 21.9493 76.4385 21.7147 76.0545 21.416C75.6705 21.0747 75.4785 20.5627 75.4785 19.88V15.72H81.7505ZM91.5425 15.72V19.88C91.5425 20.5627 91.3505 21.0747 90.9665 21.416C90.5825 21.7147 90.0492 21.9493 89.3665 22.12L86.1665 22.76L85.2705 15.72H91.5425ZM102.743 15.72L101.911 22.76L98.7105 22.12C98.0279 21.9493 97.4732 21.7147 97.0465 21.416C96.6625 21.0747 96.4705 20.5627 96.4705 19.88V15.72H102.743ZM112.599 15.72V19.88C112.599 20.5627 112.407 21.0747 112.023 21.416C111.639 21.7147 111.105 21.9493 110.423 22.12L107.159 22.76L106.327 15.72H112.599ZM132.152 49.32C129.805 49.32 127.778 48.7867 126.072 47.72C124.408 46.6107 123.149 45.1173 122.296 43.24C121.442 41.32 121.016 39.144 121.016 36.712V15.72H130.04V36.712C130.04 38.5467 130.445 39.976 131.256 41C132.109 41.9813 133.346 42.472 134.968 42.472C136.162 42.472 137.293 42.216 138.36 41.704C139.426 41.1493 140.429 40.4027 141.368 39.464V15.72H150.456V48.808H144.888C143.65 48.808 142.882 48.2747 142.584 47.208L142.072 44.968C140.706 46.248 139.234 47.2933 137.656 48.104C136.077 48.9147 134.242 49.32 132.152 49.32ZM149.048 48.808L149.88 41.768L153.08 42.472C153.762 42.6 154.296 42.8347 154.68 43.176C155.106 43.5173 155.32 44.008 155.32 44.648V48.808H149.048ZM122.424 15.72L121.528 22.76L118.328 22.12C117.645 21.9493 117.112 21.7147 116.728 21.416C116.344 21.0747 116.152 20.5627 116.152 19.88V15.72H122.424ZM142.776 15.72L141.944 22.76L138.744 22.12C138.061 21.9493 137.506 21.7147 137.08 21.416C136.696 21.0747 136.504 20.5627 136.504 19.88V15.72H142.776Z" fill="white"/>
<path d="M9.86402 48.808H8.86402V49.808H9.86402V48.808ZM9.86402 2.28001V1.28001H8.86402V2.28001H9.86402ZM34.184 3.75201L33.8458 4.69309L33.8546 4.69624L33.8634 4.69923L34.184 3.75201ZM40.584 8.16801L39.7819 8.76533L39.7901 8.77609L40.584 8.16801ZM41.736 21.672L42.648 22.0824L42.6517 22.074L41.736 21.672ZM38.408 26.152L39.0681 26.9032L39.0696 26.9019L38.408 26.152ZM33.16 29.16L32.8152 28.2213L30.5649 29.048L32.7356 30.0655L33.16 29.16ZM36.488 32.168L35.64 32.698L35.6452 32.7061L36.488 32.168ZM47.112 48.808V49.808H48.9369L47.9549 48.2699L47.112 48.808ZM34.632 46.888L35.5144 46.4174L35.5006 46.3916L35.4854 46.3667L34.632 46.888ZM25.992 32.744L26.8454 32.2227L26.8437 32.2199L25.992 32.744ZM24.776 31.528L24.2615 32.3855L24.2791 32.3961L24.2972 32.4059L24.776 31.528ZM19.72 31.144V30.144H18.72V31.144H19.72ZM19.72 48.808V49.808H20.72V48.808H19.72ZM19.72 24.296H18.72V25.296H19.72V24.296ZM31.048 22.248L31.7334 22.9762L31.734 22.9756L31.048 22.248ZM31.112 11.56L30.465 12.3225L30.4706 12.3273L30.4763 12.3319L31.112 11.56ZM19.72 9.76801V8.76801H18.72V9.76801H19.72ZM41.096 48.808L40.1804 49.21L41.5565 52.3446L42.0841 48.9621L41.096 48.808ZM37.64 40.936L37.8335 39.9549L35.9545 39.5844L36.7244 41.338L37.64 40.936ZM42.184 41.832L43.1721 41.9861L43.3201 41.0368L42.3775 40.8509L42.184 41.832ZM5.00002 48.808H4.00002V49.808H5.00002V48.808ZM5.57602 43.176L4.91165 42.4286L4.91165 42.4286L5.57602 43.176ZM7.17602 42.472L7.3603 43.4549L7.37564 43.452L7.39088 43.4487L7.17602 42.472ZM10.376 41.768L11.368 41.6418L11.2299 40.5563L10.1612 40.7914L10.376 41.768ZM11.272 48.808V49.808H12.4074L12.264 48.6818L11.272 48.808ZM11.272 2.28001L12.264 2.40626L12.4074 1.28001H11.272V2.28001ZM10.376 9.32001L10.1799 10.3006L11.2325 10.5111L11.368 9.44627L10.376 9.32001ZM7.17602 8.68001L6.93348 9.65015L6.95657 9.65593L6.9799 9.66059L7.17602 8.68001ZM5.57602 7.97601L4.91165 8.72342L4.93618 8.74522L4.96208 8.76537L5.57602 7.97601ZM5.00002 2.28001V1.28001H4.00002V2.28001H5.00002ZM18.312 48.808L17.3189 48.6906L17.1869 49.808H18.312V48.808ZM19.144 41.768L19.3549 40.7905L18.28 40.5587L18.1509 41.6506L19.144 41.768ZM22.408 42.472L22.1972 43.4495L22.2104 43.4524L22.2237 43.4549L22.408 42.472ZM24.008 43.176L24.6724 42.4286L24.6724 42.4286L24.008 43.176ZM24.584 48.808V49.808H25.584V48.808H24.584ZM41.096 48.808L40.1029 48.6906L39.9709 49.808H41.096V48.808ZM41.928 41.768L42.1389 40.7905L41.064 40.5587L40.9349 41.6506L41.928 41.768ZM45.192 42.472L44.9812 43.4495L44.9944 43.4524L45.0077 43.4549L45.192 42.472ZM46.792 43.176L47.4564 42.4286L47.4564 42.4286L46.792 43.176ZM47.368 48.808V49.808H48.368V48.808H47.368ZM9.86402 48.808H10.864V2.28001H9.86402H8.86402V48.808H9.86402ZM9.86402 2.28001V3.28001H24.584V2.28001V1.28001H9.86402V2.28001ZM24.584 2.28001V3.28001C28.1672 3.28001 31.2481 3.75951 33.8458 4.69309L34.184 3.75201L34.5222 2.81094C31.6586 1.78184 28.3395 1.28001 24.584 1.28001V2.28001ZM34.184 3.75201L33.8634 4.69923C36.4782 5.58424 38.4296 6.94917 39.782 8.76528L40.584 8.16801L41.3861 7.57074C39.7518 5.37618 37.4365 3.79712 34.5046 2.80479L34.184 3.75201ZM40.584 8.16801L39.7901 8.77609C41.162 10.5672 41.888 12.9186 41.888 15.912H42.888H43.888C43.888 12.5908 43.078 9.77952 41.3779 7.55993L40.584 8.16801ZM42.888 15.912H41.888C41.888 17.8775 41.5277 19.6589 40.8204 21.27L41.736 21.672L42.6517 22.074C43.4803 20.1864 43.888 18.1279 43.888 15.912H42.888ZM41.736 21.672L40.8241 21.2616C40.1164 22.8342 39.0941 24.213 37.7464 25.4022L38.408 26.152L39.0696 26.9019C40.6232 25.531 41.8196 23.9231 42.6479 22.0824L41.736 21.672ZM38.408 26.152L37.7479 25.4008C36.4482 26.543 34.8114 27.488 32.8152 28.2213L33.16 29.16L33.5048 30.0987C35.69 29.296 37.5518 28.2357 39.0681 26.9032L38.408 26.152ZM33.16 29.16L32.7356 30.0655C33.9145 30.6181 34.8815 31.4844 35.64 32.698L36.488 32.168L37.336 31.638C36.3878 30.1209 35.1362 28.9819 33.5845 28.2546L33.16 29.16ZM36.488 32.168L35.6452 32.7061L46.2692 49.3461L47.112 48.808L47.9549 48.2699L37.3309 31.6299L36.488 32.168ZM47.112 48.808V47.808H38.216V48.808V49.808H47.112V48.808ZM38.216 48.808V47.808C36.8 47.808 35.9891 47.3076 35.5144 46.4174L34.632 46.888L33.7497 47.3586C34.6402 49.0284 36.2187 49.808 38.216 49.808V48.808ZM34.632 46.888L35.4854 46.3667L26.8454 32.2227L25.992 32.744L25.1386 33.2653L33.7786 47.4093L34.632 46.888ZM25.992 32.744L26.8437 32.2199C26.4309 31.5491 25.9073 31.006 25.2549 30.6501L24.776 31.528L24.2972 32.4059C24.5834 32.562 24.8705 32.8296 25.1404 33.2681L25.992 32.744ZM24.776 31.528L25.2905 30.6705C24.6335 30.2763 23.7767 30.144 22.856 30.144V31.144V32.144C23.642 32.144 24.0652 32.2677 24.2615 32.3855L24.776 31.528ZM22.856 31.144V30.144H19.72V31.144V32.144H22.856V31.144ZM19.72 31.144H18.72V48.808H19.72H20.72V31.144H19.72ZM19.72 48.808V47.808H9.86402V48.808V49.808H19.72V48.808ZM19.72 24.296V25.296H24.52V24.296V23.296H19.72V24.296ZM24.52 24.296V25.296C27.5609 25.296 30.0276 24.5817 31.7334 22.9762L31.048 22.248L30.3627 21.5198C29.1671 22.645 27.2818 23.296 24.52 23.296V24.296ZM31.048 22.248L31.734 22.9756C33.4533 21.3546 34.288 19.2222 34.288 16.68H33.288H32.288C32.288 18.7458 31.6294 20.3255 30.362 21.5204L31.048 22.248ZM33.288 16.68H34.288C34.288 14.2225 33.4717 12.2078 31.7477 10.7881L31.112 11.56L30.4763 12.3319C31.6537 13.3016 32.288 14.7002 32.288 16.68H33.288ZM31.112 11.56L31.759 10.7975C30.0899 9.38131 27.6324 8.76801 24.584 8.76801V9.76801V10.768C27.4237 10.768 29.3181 11.3494 30.465 12.3225L31.112 11.56ZM24.584 9.76801V8.76801H19.72V9.76801V10.768H24.584V9.76801ZM19.72 9.76801H18.72V24.296H19.72H20.72V9.76801H19.72ZM41.096 48.808L42.0117 48.406L38.5557 40.534L37.64 40.936L36.7244 41.338L40.1804 49.21L41.096 48.808ZM37.64 40.936L37.4466 41.9171L41.9906 42.8131L42.184 41.832L42.3775 40.8509L37.8335 39.9549L37.64 40.936ZM42.184 41.832L41.196 41.6779L40.108 48.6539L41.096 48.808L42.0841 48.9621L43.1721 41.9861L42.184 41.832ZM5.00002 48.808H6.00002V44.648H5.00002H4.00002V48.808H5.00002ZM5.00002 44.648H6.00002C6.00002 44.218 6.12054 44.0299 6.24038 43.9234L5.57602 43.176L4.91165 42.4286C4.26349 43.0047 4.00002 43.798 4.00002 44.648H5.00002ZM5.57602 43.176L6.24038 43.9234C6.44901 43.738 6.79544 43.5608 7.3603 43.4549L7.17602 42.472L6.99173 41.4891C6.19125 41.6392 5.47102 41.9314 4.91165 42.4286L5.57602 43.176ZM7.17602 42.472L7.39088 43.4487L10.5909 42.7447L10.376 41.768L10.1612 40.7914L6.96115 41.4954L7.17602 42.472ZM10.376 41.768L9.38402 41.8943L10.28 48.9343L11.272 48.808L12.264 48.6818L11.368 41.6418L10.376 41.768ZM11.272 48.808V47.808H5.00002V48.808V49.808H11.272V48.808ZM11.272 2.28001L10.28 2.15376L9.38402 9.19376L10.376 9.32001L11.368 9.44627L12.264 2.40626L11.272 2.28001ZM10.376 9.32001L10.5721 8.33943L7.37213 7.69943L7.17602 8.68001L6.9799 9.66059L10.1799 10.3006L10.376 9.32001ZM7.17602 8.68001L7.41855 7.70987C6.81539 7.55908 6.42645 7.3706 6.18995 7.18666L5.57602 7.97601L4.96208 8.76537C5.49358 9.17875 6.17131 9.45961 6.93348 9.65015L7.17602 8.68001ZM5.57602 7.97601L6.24038 7.2286C6.13411 7.13414 6.00002 6.93603 6.00002 6.44001H5.00002H4.00002C4.00002 7.30933 4.24993 8.13522 4.91165 8.72342L5.57602 7.97601ZM5.00002 6.44001H6.00002V2.28001H5.00002H4.00002V6.44001H5.00002ZM5.00002 2.28001V3.28001H11.272V2.28001V1.28001H5.00002V2.28001ZM18.312 48.808L19.3051 48.9254L20.1371 41.8854L19.144 41.768L18.1509 41.6506L17.3189 48.6906L18.312 48.808ZM19.144 41.768L18.9332 42.7455L22.1972 43.4495L22.408 42.472L22.6189 41.4945L19.3549 40.7905L19.144 41.768ZM22.408 42.472L22.2237 43.4549C22.7886 43.5608 23.135 43.738 23.3437 43.9234L24.008 43.176L24.6724 42.4286C24.113 41.9314 23.3928 41.6392 22.5923 41.4891L22.408 42.472ZM24.008 43.176L23.3437 43.9234C23.4635 44.0299 23.584 44.218 23.584 44.648H24.584H25.584C25.584 43.798 25.3205 43.0047 24.6724 42.4286L24.008 43.176ZM24.584 44.648H23.584V48.808H24.584H25.584V44.648H24.584ZM24.584 48.808V47.808H18.312V48.808V49.808H24.584V48.808ZM41.096 48.808L42.0891 48.9254L42.9211 41.8854L41.928 41.768L40.9349 41.6506L40.1029 48.6906L41.096 48.808ZM41.928 41.768L41.7172 42.7455L44.9812 43.4495L45.192 42.472L45.4029 41.4945L42.1389 40.7905L41.928 41.768ZM45.192 42.472L45.0077 43.4549C45.5726 43.5608 45.919 43.738 46.1277 43.9234L46.792 43.176L47.4564 42.4286C46.897 41.9314 46.1768 41.6392 45.3763 41.4891L45.192 42.472ZM46.792 43.176L46.1277 43.9234C46.2475 44.0299 46.368 44.218 46.368 44.648H47.368H48.368C48.368 43.798 48.1045 43.0047 47.4564 42.4286L46.792 43.176ZM47.368 44.648H46.368V48.808H47.368H48.368V44.648H47.368ZM47.368 48.808V47.808H41.096V48.808V49.808H47.368V48.808ZM57.0535 48.808H56.0535V49.808H57.0535V48.808ZM57.0535 15.72V14.72H56.0535V15.72H57.0535ZM66.1415 15.72H67.1415V14.72H66.1415V15.72ZM66.1415 48.808V49.808H67.1415V48.808H66.1415ZM52.1895 48.808H51.1895V49.808H52.1895V48.808ZM52.7655 43.176L52.1408 42.3951L52.1206 42.4114L52.1012 42.4286L52.7655 43.176ZM54.4295 42.472L54.6138 43.4549L54.6291 43.452L54.6444 43.4487L54.4295 42.472ZM57.6295 41.768L58.6226 41.6506L58.493 40.5541L57.4147 40.7914L57.6295 41.768ZM58.4615 48.808V49.808H59.5867L59.4546 48.6906L58.4615 48.808ZM64.7335 48.808L63.7404 48.6906L63.6084 49.808H64.7335V48.808ZM65.5655 41.768L65.7804 40.7914L64.702 40.5541L64.5724 41.6506L65.5655 41.768ZM68.7655 42.472L68.5507 43.4487L68.5659 43.452L68.5812 43.4549L68.7655 42.472ZM70.3655 43.176L69.7012 43.9234L69.7206 43.9407L69.7408 43.9569L70.3655 43.176ZM71.0055 48.808V49.808H72.0055V48.808H71.0055ZM58.4615 15.72L59.4546 15.8374L59.5867 14.72H58.4615V15.72ZM57.6295 22.76L57.4334 23.7406L58.4955 23.953L58.6226 22.8774L57.6295 22.76ZM54.4295 22.12L54.187 23.0902L54.2101 23.0959L54.2334 23.1006L54.4295 22.12ZM52.7655 21.416L52.1012 22.1634L52.1445 22.202L52.1921 22.2352L52.7655 21.416ZM52.1895 15.72V14.72H51.1895V15.72H52.1895ZM57.8855 10.216L58.5786 9.49518L58.5786 9.49518L57.8855 10.216ZM57.8855 2.60001L58.5638 3.33481L58.5713 3.3279L58.5786 3.32084L57.8855 2.60001ZM65.6935 2.60001L65.0004 3.32084L65.0145 3.33441L65.0292 3.34742L65.6935 2.60001ZM65.6935 10.216L65.0141 9.48225L65.0072 9.48865L65.0004 9.49518L65.6935 10.216ZM57.0535 48.808H58.0535V15.72H57.0535H56.0535V48.808H57.0535ZM57.0535 15.72V16.72H66.1415V15.72V14.72H57.0535V15.72ZM66.1415 15.72H65.1415V48.808H66.1415H67.1415V15.72H66.1415ZM66.1415 48.808V47.808H57.0535V48.808V49.808H66.1415V48.808ZM52.1895 48.808H53.1895V44.648H52.1895H51.1895V48.808H52.1895ZM52.1895 44.648H53.1895C53.1895 44.218 53.31 44.0299 53.4299 43.9234L52.7655 43.176L52.1012 42.4286C51.453 43.0047 51.1895 43.798 51.1895 44.648H52.1895ZM52.7655 43.176L53.3902 43.9569C53.6588 43.742 54.0496 43.5607 54.6138 43.4549L54.4295 42.472L54.2452 41.4891C53.4441 41.6394 52.7256 41.9273 52.1408 42.3951L52.7655 43.176ZM54.4295 42.472L54.6444 43.4487L57.8444 42.7447L57.6295 41.768L57.4147 40.7914L54.2147 41.4954L54.4295 42.472ZM57.6295 41.768L56.6364 41.8854L57.4684 48.9254L58.4615 48.808L59.4546 48.6906L58.6226 41.6506L57.6295 41.768ZM58.4615 48.808V47.808H52.1895V48.808V49.808H58.4615V48.808ZM64.7335 48.808L65.7266 48.9254L66.5586 41.8854L65.5655 41.768L64.5724 41.6506L63.7404 48.6906L64.7335 48.808ZM65.5655 41.768L65.3507 42.7447L68.5507 43.4487L68.7655 42.472L68.9804 41.4954L65.7804 40.7914L65.5655 41.768ZM68.7655 42.472L68.5812 43.4549C69.1461 43.5608 69.4925 43.738 69.7012 43.9234L70.3655 43.176L71.0299 42.4286C70.4705 41.9314 69.7503 41.6392 68.9498 41.4891L68.7655 42.472ZM70.3655 43.176L69.7408 43.9569C69.8882 44.0748 70.0055 44.2535 70.0055 44.648H71.0055H72.0055C72.0055 43.7625 71.6961 42.9599 70.9902 42.3951L70.3655 43.176ZM71.0055 44.648H70.0055V48.808H71.0055H72.0055V44.648H71.0055ZM71.0055 48.808V47.808H64.7335V48.808V49.808H71.0055V48.808ZM58.4615 15.72L57.4684 15.6026L56.6364 22.6426L57.6295 22.76L58.6226 22.8774L59.4546 15.8374L58.4615 15.72ZM57.6295 22.76L57.8256 21.7794L54.6256 21.1394L54.4295 22.12L54.2334 23.1006L57.4334 23.7406L57.6295 22.76ZM54.4295 22.12L54.6721 21.1499C54.069 20.9991 53.6371 20.8055 53.339 20.5968L52.7655 21.416L52.1921 22.2352C52.7473 22.6239 53.4247 22.8996 54.187 23.0902L54.4295 22.12ZM52.7655 21.416L53.4299 20.6686C53.3236 20.5741 53.1895 20.376 53.1895 19.88H52.1895H51.1895C51.1895 20.7493 51.4394 21.5752 52.1012 22.1634L52.7655 21.416ZM52.1895 19.88H53.1895V15.72H52.1895H51.1895V19.88H52.1895ZM52.1895 15.72V16.72H58.4615V15.72V14.72H52.1895V15.72ZM61.7255 11.816V10.816C60.5501 10.816 59.5142 10.3948 58.5786 9.49518L57.8855 10.216L57.1924 10.9368C58.4755 12.1706 59.9996 12.816 61.7255 12.816V11.816ZM57.8855 10.216L58.5786 9.49518C57.652 8.60424 57.2215 7.60071 57.2215 6.44001H56.2215H55.2215C55.2215 8.18065 55.9003 9.69446 57.1924 10.9368L57.8855 10.216ZM56.2215 6.44001H57.2215C57.2215 5.17758 57.6636 4.16579 58.5638 3.33481L57.8855 2.60001L57.2072 1.86521C55.8888 3.08223 55.2215 4.63044 55.2215 6.44001H56.2215ZM57.8855 2.60001L58.5786 3.32084C59.5142 2.42127 60.5501 2.00001 61.7255 2.00001V1.00001V1.14441e-05C59.9996 1.14441e-05 58.4755 0.645417 57.1924 1.87918L57.8855 2.60001ZM61.7255 1.00001V2.00001C63.0025 2.00001 64.077 2.43291 65.0004 3.32084L65.6935 2.60001L66.3866 1.87918C65.0914 0.633778 63.5205 1.14441e-05 61.7255 1.14441e-05V1.00001ZM65.6935 2.60001L65.0292 3.34742C65.9685 4.18241 66.4215 5.19078 66.4215 6.44001H67.4215H68.4215C68.4215 4.61724 67.7225 3.06562 66.3579 1.8526L65.6935 2.60001ZM67.4215 6.44001H66.4215C66.4215 7.5875 65.9805 8.58745 65.0141 9.48225L65.6935 10.216L66.3729 10.9498C67.7105 9.71124 68.4215 8.19386 68.4215 6.44001H67.4215ZM65.6935 10.216L65.0004 9.49518C64.077 10.3831 63.0025 10.816 61.7255 10.816V11.816V12.816C63.5205 12.816 65.0914 12.1822 66.3866 10.9368L65.6935 10.216ZM89.9425 48.808L89.0117 49.1735L89.2608 49.808H89.9425V48.808ZM76.9505 15.72V14.72H75.4835L76.0197 16.0855L76.9505 15.72ZM86.1025 16.232L85.4778 17.0129L85.52 17.0467L85.5656 17.0757L86.1025 16.232ZM87.0625 17.384L88.0123 17.0712L88.0075 17.0566L88.0023 17.0423L87.0625 17.384ZM92.3745 33.512L93.327 33.2072L93.3243 33.1992L92.3745 33.512ZM94.1665 39.976L93.1921 40.2009L95.1471 40.1721L94.1665 39.976ZM95.9585 33.512L96.9035 33.8391L96.9049 33.835L95.9585 33.512ZM101.463 17.384L100.523 17.0423L100.519 17.0516L100.516 17.061L101.463 17.384ZM102.359 16.232L102.932 17.0512L102.958 17.0329L102.983 17.0129L102.359 16.232ZM111.063 15.72L111.994 16.0839L112.527 14.72H111.063V15.72ZM98.1345 48.808V49.808H98.8174L99.0659 49.1719L98.1345 48.808ZM83.3505 18.024H82.3505V19.024H83.3505V18.024ZM83.3505 15.72V14.72H82.3505V15.72H83.3505ZM88.1505 15.72H89.1505V14.72H88.1505V15.72ZM88.1505 18.024V19.024H89.1505V18.024H88.1505ZM100.567 18.024H99.5665V19.024H100.567V18.024ZM100.567 15.72V14.72H99.5665V15.72H100.567ZM105.303 15.72H106.303V14.72H105.303V15.72ZM105.303 18.024V19.024H106.303V18.024H105.303ZM81.7505 15.72L82.7425 15.8463L82.8859 14.72H81.7505V15.72ZM80.8545 22.76L80.6584 23.7406L81.711 23.9511L81.8465 22.8863L80.8545 22.76ZM77.6545 22.12L77.412 23.0902L77.4351 23.0959L77.4584 23.1006L77.6545 22.12ZM76.0545 21.416L75.3902 22.1634L75.4147 22.1852L75.4406 22.2054L76.0545 21.416ZM75.4785 15.72V14.72H74.4785V15.72H75.4785ZM91.5425 15.72H92.5425V14.72H91.5425V15.72ZM90.9665 21.416L91.5805 22.2054L91.6064 22.1852L91.6309 22.1634L90.9665 21.416ZM89.3665 22.12L89.5626 23.1006L89.586 23.0959L89.6091 23.0902L89.3665 22.12ZM86.1665 22.76L85.1745 22.8863L85.31 23.9511L86.3626 23.7406L86.1665 22.76ZM85.2705 15.72V14.72H84.1352L84.2785 15.8463L85.2705 15.72ZM102.743 15.72L103.736 15.8374L103.868 14.72H102.743V15.72ZM101.911 22.76L101.714 23.7406L102.776 23.953L102.904 22.8774L101.911 22.76ZM98.7105 22.12L98.468 23.0902L98.4911 23.0959L98.5144 23.1006L98.7105 22.12ZM97.0465 21.416L96.3822 22.1634L96.4255 22.202L96.4731 22.2352L97.0465 21.416ZM96.4705 15.72V14.72H95.4705V15.72H96.4705ZM112.599 15.72H113.599V14.72H112.599V15.72ZM112.023 21.416L112.636 22.2054L112.662 22.1852L112.687 22.1634L112.023 21.416ZM110.423 22.12L110.615 23.1013L110.64 23.0964L110.665 23.0902L110.423 22.12ZM107.159 22.76L106.165 22.8774L106.292 23.9489L107.351 23.7413L107.159 22.76ZM106.327 15.72V14.72H105.201L105.333 15.8374L106.327 15.72ZM89.9425 48.808L90.8733 48.4425L77.8813 15.3545L76.9505 15.72L76.0197 16.0855L89.0117 49.1735L89.9425 48.808ZM76.9505 15.72V16.72H84.5025V15.72V14.72H76.9505V15.72ZM84.5025 15.72V16.72C84.9561 16.72 85.2578 16.8369 85.4778 17.0129L86.1025 16.232L86.7272 15.4511C86.0939 14.9445 85.329 14.72 84.5025 14.72V15.72ZM86.1025 16.232L85.5656 17.0757C85.8714 17.2702 86.036 17.4871 86.1227 17.7258L87.0625 17.384L88.0023 17.0423C87.7477 16.3422 87.2723 15.7911 86.6394 15.3884L86.1025 16.232ZM87.0625 17.384L86.1127 17.6968L91.4247 33.8248L92.3745 33.512L93.3243 33.1992L88.0123 17.0712L87.0625 17.384ZM92.3745 33.512L91.4221 33.8168C91.7597 34.8719 92.0762 35.9269 92.3716 36.9816L93.3345 36.712L94.2975 36.4424C93.9955 35.3638 93.672 34.2854 93.3269 33.2072L92.3745 33.512ZM93.3345 36.712L92.3716 36.9816C92.666 38.0331 92.9395 39.1061 93.1921 40.2009L94.1665 39.976L95.1409 39.7512C94.8815 38.6272 94.6004 37.5243 94.2975 36.4424L93.3345 36.712ZM94.1665 39.976L95.1471 40.1721C95.3554 39.1306 95.6055 38.0885 95.8975 37.0456L94.9345 36.776L93.9716 36.5064C93.6662 37.5969 93.4043 38.6881 93.1859 39.7799L94.1665 39.976ZM94.9345 36.776L95.8975 37.0456C96.1904 35.9994 96.5257 34.9306 96.9035 33.8391L95.9585 33.512L95.0135 33.1849C94.6234 34.3121 94.2759 35.4193 93.9716 36.5064L94.9345 36.776ZM95.9585 33.512L96.9049 33.835L102.409 17.707L101.463 17.384L100.516 17.061L95.0121 33.189L95.9585 33.512ZM101.463 17.384L102.402 17.7258C102.5 17.458 102.666 17.2375 102.932 17.0512L102.359 16.232L101.785 15.4128C101.198 15.8239 100.767 16.3713 100.523 17.0423L101.463 17.384ZM102.359 16.232L102.983 17.0129C103.216 16.8269 103.502 16.72 103.895 16.72V15.72V14.72C103.093 14.72 102.355 14.9545 101.734 15.4511L102.359 16.232ZM103.895 15.72V16.72H111.063V15.72V14.72H103.895V15.72ZM111.063 15.72L110.131 15.3561L97.2031 48.4441L98.1345 48.808L99.0659 49.1719L111.994 16.0839L111.063 15.72ZM98.1345 48.808V47.808H89.9425V48.808V49.808H98.1345V48.808ZM83.3505 18.024H84.3505V15.72H83.3505H82.3505V18.024H83.3505ZM83.3505 15.72V16.72H88.1505V15.72V14.72H83.3505V15.72ZM88.1505 15.72H87.1505V18.024H88.1505H89.1505V15.72H88.1505ZM88.1505 18.024V17.024H83.3505V18.024V19.024H88.1505V18.024ZM100.567 18.024H101.567V15.72H100.567H99.5665V18.024H100.567ZM100.567 15.72V16.72H105.303V15.72V14.72H100.567V15.72ZM105.303 15.72H104.303V18.024H105.303H106.303V15.72H105.303ZM105.303 18.024V17.024H100.567V18.024V19.024H105.303V18.024ZM81.7505 15.72L80.7585 15.5938L79.8625 22.6338L80.8545 22.76L81.8465 22.8863L82.7425 15.8463L81.7505 15.72ZM80.8545 22.76L81.0506 21.7794L77.8506 21.1394L77.6545 22.12L77.4584 23.1006L80.6584 23.7406L80.8545 22.76ZM77.6545 22.12L77.8971 21.1499C77.2939 20.9991 76.905 20.8106 76.6685 20.6267L76.0545 21.416L75.4406 22.2054C75.9721 22.6188 76.6498 22.8996 77.412 23.0902L77.6545 22.12ZM76.0545 21.416L76.7189 20.6686C76.6126 20.5741 76.4785 20.376 76.4785 19.88H75.4785H74.4785C74.4785 20.7493 74.7284 21.5752 75.3902 22.1634L76.0545 21.416ZM75.4785 19.88H76.4785V15.72H75.4785H74.4785V19.88H75.4785ZM75.4785 15.72V16.72H81.7505V15.72V14.72H75.4785V15.72ZM91.5425 15.72H90.5425V19.88H91.5425H92.5425V15.72H91.5425ZM91.5425 19.88H90.5425C90.5425 20.376 90.4084 20.5741 90.3022 20.6686L90.9665 21.416L91.6309 22.1634C92.2926 21.5752 92.5425 20.7493 92.5425 19.88H91.5425ZM90.9665 21.416L90.3526 20.6267C90.1161 20.8106 89.7271 20.9991 89.124 21.1499L89.3665 22.12L89.6091 23.0902C90.3712 22.8996 91.049 22.6188 91.5805 22.2054L90.9665 21.416ZM89.3665 22.12L89.1704 21.1394L85.9704 21.7794L86.1665 22.76L86.3626 23.7406L89.5626 23.1006L89.3665 22.12ZM86.1665 22.76L87.1585 22.6338L86.2625 15.5938L85.2705 15.72L84.2785 15.8463L85.1745 22.8863L86.1665 22.76ZM85.2705 15.72V16.72H91.5425V15.72V14.72H85.2705V15.72ZM102.743 15.72L101.749 15.6026L100.917 22.6426L101.911 22.76L102.904 22.8774L103.736 15.8374L102.743 15.72ZM101.911 22.76L102.107 21.7794L98.9066 21.1394L98.7105 22.12L98.5144 23.1006L101.714 23.7406L101.911 22.76ZM98.7105 22.12L98.9531 21.1499C98.35 20.9991 97.9181 20.8055 97.62 20.5968L97.0465 21.416L96.4731 22.2352C97.0283 22.6239 97.7057 22.8996 98.468 23.0902L98.7105 22.12ZM97.0465 21.416L97.7109 20.6686C97.6046 20.5741 97.4705 20.376 97.4705 19.88H96.4705H95.4705C95.4705 20.7493 95.7204 21.5752 96.3822 22.1634L97.0465 21.416ZM96.4705 19.88H97.4705V15.72H96.4705H95.4705V19.88H96.4705ZM96.4705 15.72V16.72H102.743V15.72V14.72H96.4705V15.72ZM112.599 15.72H111.599V19.88H112.599H113.599V15.72H112.599ZM112.599 19.88H111.599C111.599 20.376 111.464 20.5741 111.358 20.6686L112.023 21.416L112.687 22.1634C113.349 21.5752 113.599 20.7493 113.599 19.88H112.599ZM112.023 21.416L111.409 20.6267C111.172 20.8106 110.783 20.9991 110.18 21.1499L110.423 22.12L110.665 23.0902C111.427 22.8996 112.105 22.6188 112.636 22.2054L112.023 21.416ZM110.423 22.12L110.23 21.1387L106.966 21.7787L107.159 22.76L107.351 23.7413L110.615 23.1013L110.423 22.12ZM107.159 22.76L108.152 22.6426L107.32 15.6026L106.327 15.72L105.333 15.8374L106.165 22.8774L107.159 22.76ZM106.327 15.72V16.72H112.599V15.72V14.72H106.327V15.72ZM126.072 47.72L125.517 48.5521L125.529 48.5602L125.542 48.568L126.072 47.72ZM122.296 43.24L121.382 43.6462L121.385 43.6538L122.296 43.24ZM121.016 15.72V14.72H120.016V15.72H121.016ZM130.04 15.72H131.04V14.72H130.04V15.72ZM131.256 41L130.471 41.6207L130.486 41.6388L130.501 41.6562L131.256 41ZM138.36 41.704L138.792 42.6055L138.807 42.5986L138.821 42.5912L138.36 41.704ZM141.368 39.464L142.075 40.1711L142.368 39.8782V39.464H141.368ZM141.368 15.72V14.72H140.368V15.72H141.368ZM150.456 15.72H151.456V14.72H150.456V15.72ZM150.456 48.808V49.808H151.456V48.808H150.456ZM142.584 47.208L141.609 47.4308L141.614 47.4544L141.621 47.4776L142.584 47.208ZM142.072 44.968L143.046 44.7452L142.658 43.0472L141.388 44.2385L142.072 44.968ZM137.656 48.104L137.199 47.2144L137.199 47.2144L137.656 48.104ZM149.048 48.808L148.054 48.6906L147.922 49.808H149.048V48.808ZM149.88 41.768L150.094 40.7914L149.016 40.5541L148.886 41.6506L149.88 41.768ZM153.08 42.472L152.865 43.4487L152.88 43.452L152.895 43.4549L153.08 42.472ZM154.68 43.176L154.015 43.9234L154.035 43.9407L154.055 43.9569L154.68 43.176ZM155.32 48.808V49.808H156.32V48.808H155.32ZM122.424 15.72L123.416 15.8463L123.559 14.72H122.424V15.72ZM121.528 22.76L121.331 23.7406L122.384 23.9511L122.52 22.8863L121.528 22.76ZM118.328 22.12L118.085 23.0902L118.108 23.0959L118.131 23.1006L118.328 22.12ZM116.728 21.416L116.063 22.1634L116.088 22.1852L116.114 22.2054L116.728 21.416ZM116.152 15.72V14.72H115.152V15.72H116.152ZM142.776 15.72L143.769 15.8374L143.901 14.72H142.776V15.72ZM141.944 22.76L141.747 23.7406L142.809 23.953L142.937 22.8774L141.944 22.76ZM138.744 22.12L138.501 23.0902L138.524 23.0959L138.547 23.1006L138.744 22.12ZM137.08 21.416L136.415 22.1634L136.459 22.202L136.506 22.2352L137.08 21.416ZM136.504 15.72V14.72H135.504V15.72H136.504ZM132.152 49.32V48.32C129.961 48.32 128.124 47.8238 126.602 46.872L126.072 47.72L125.542 48.568C127.432 49.7495 129.649 50.32 132.152 50.32V49.32ZM126.072 47.72L126.626 46.888C125.122 45.8855 123.985 44.5392 123.206 42.8262L122.296 43.24L121.385 43.6538C122.313 45.6954 123.693 47.3359 125.517 48.5521L126.072 47.72ZM122.296 43.24L123.209 42.8339C122.421 41.0603 122.016 39.026 122.016 36.712H121.016H120.016C120.016 39.262 120.463 41.5797 121.382 43.6462L122.296 43.24ZM121.016 36.712H122.016V15.72H121.016H120.016V36.712H121.016ZM121.016 15.72V16.72H130.04V15.72V14.72H121.016V15.72ZM130.04 15.72H129.04V36.712H130.04H131.04V15.72H130.04ZM130.04 36.712H129.04C129.04 38.6825 129.474 40.3608 130.471 41.6207L131.256 41L132.04 40.3793C131.416 39.5912 131.04 38.4108 131.04 36.712H130.04ZM131.256 41L130.501 41.6562C131.59 42.9082 133.134 43.472 134.968 43.472V42.472V41.472C133.558 41.472 132.628 41.0545 132.01 40.3438L131.256 41ZM134.968 42.472V43.472C136.31 43.472 137.589 43.183 138.792 42.6055L138.36 41.704L137.927 40.8025C136.997 41.249 136.014 41.472 134.968 41.472V42.472ZM138.36 41.704L138.821 42.5912C139.987 41.9848 141.071 41.1746 142.075 40.1711L141.368 39.464L140.66 38.7569C139.787 39.6308 138.865 40.3139 137.898 40.8168L138.36 41.704ZM141.368 39.464H142.368V15.72H141.368H140.368V39.464H141.368ZM141.368 15.72V16.72H150.456V15.72V14.72H141.368V15.72ZM150.456 15.72H149.456V48.808H150.456H151.456V15.72H150.456ZM150.456 48.808V47.808H144.888V48.808V49.808H150.456V48.808ZM144.888 48.808V47.808C144.408 47.808 144.124 47.7047 143.954 47.5866C143.795 47.4762 143.645 47.291 143.546 46.9384L142.584 47.208L141.621 47.4776C141.82 48.1917 142.204 48.8065 142.813 49.2294C143.411 49.6446 144.13 49.808 144.888 49.808V48.808ZM142.584 47.208L143.558 46.9852L143.046 44.7452L142.072 44.968L141.097 45.1908L141.609 47.4308L142.584 47.208ZM142.072 44.968L141.388 44.2385C140.086 45.4583 138.69 46.4486 137.199 47.2144L137.656 48.104L138.112 48.9936C139.778 48.1381 141.326 47.0377 142.755 45.6976L142.072 44.968ZM137.656 48.104L137.199 47.2144C135.785 47.9407 134.112 48.32 132.152 48.32V49.32V50.32C134.373 50.32 136.369 49.8887 138.112 48.9936L137.656 48.104ZM149.048 48.808L150.041 48.9254L150.873 41.8854L149.88 41.768L148.886 41.6506L148.054 48.6906L149.048 48.808ZM149.88 41.768L149.665 42.7447L152.865 43.4487L153.08 42.472L153.294 41.4954L150.094 40.7914L149.88 41.768ZM153.08 42.472L152.895 43.4549C153.46 43.5608 153.807 43.738 154.015 43.9234L154.68 43.176L155.344 42.4286C154.785 41.9314 154.064 41.6392 153.264 41.4891L153.08 42.472ZM154.68 43.176L154.055 43.9569C154.202 44.0748 154.32 44.2535 154.32 44.648H155.32H156.32C156.32 43.7625 156.01 42.9599 155.304 42.3951L154.68 43.176ZM155.32 44.648H154.32V48.808H155.32H156.32V44.648H155.32ZM155.32 48.808V47.808H149.048V48.808V49.808H155.32V48.808ZM122.424 15.72L121.432 15.5938L120.536 22.6338L121.528 22.76L122.52 22.8863L123.416 15.8463L122.424 15.72ZM121.528 22.76L121.724 21.7794L118.524 21.1394L118.328 22.12L118.131 23.1006L121.331 23.7406L121.528 22.76ZM118.328 22.12L118.57 21.1499C117.967 20.9991 117.578 20.8106 117.341 20.6267L116.728 21.416L116.114 22.2054C116.645 22.6188 117.323 22.8996 118.085 23.0902L118.328 22.12ZM116.728 21.416L117.392 20.6686C117.286 20.5741 117.152 20.376 117.152 19.88H116.152H115.152C115.152 20.7493 115.401 21.5752 116.063 22.1634L116.728 21.416ZM116.152 19.88H117.152V15.72H116.152H115.152V19.88H116.152ZM116.152 15.72V16.72H122.424V15.72V14.72H116.152V15.72ZM142.776 15.72L141.782 15.6026L140.95 22.6426L141.944 22.76L142.937 22.8774L143.769 15.8374L142.776 15.72ZM141.944 22.76L142.14 21.7794L138.94 21.1394L138.744 22.12L138.547 23.1006L141.747 23.7406L141.944 22.76ZM138.744 22.12L138.986 21.1499C138.383 20.9991 137.951 20.8055 137.653 20.5968L137.08 21.416L136.506 22.2352C137.061 22.6239 137.739 22.8996 138.501 23.0902L138.744 22.12ZM137.08 21.416L137.744 20.6686C137.638 20.5741 137.504 20.376 137.504 19.88H136.504H135.504C135.504 20.7493 135.753 21.5752 136.415 22.1634L137.08 21.416ZM136.504 19.88H137.504V15.72H136.504H135.504V19.88H136.504ZM136.504 15.72V16.72H142.776V15.72V14.72H136.504V15.72Z" fill="white" mask="url(#path-1-outside-1_1_4)"/>
</g>
<defs>
<filter id="filter0_d_1_4" x="0" y="0" width="160.32" height="60.3446" filterUnits="userSpaceOnUse" color-interpolation-filters="sRGB">
<feFlood flood-opacity="0" result="BackgroundImageFix"/>
<feColorMatrix in="SourceAlpha" type="matrix" values="0 0 0 0 0 0 0 0 0 0 0 0 0 0 0 0 0 0 127 0" result="hardAlpha"/>
<feOffset dy="4"/>
<feGaussianBlur stdDeviation="2"/>
<feComposite in2="hardAlpha" operator="out"/>
<feColorMatrix type="matrix" values="0 0 0 0 0 0 0 0 0 0 0 0 0 0 0 0 0 0 0.25 0"/>
<feBlend mode="normal" in2="BackgroundImageFix" result="effect1_dropShadow_1_4"/>
<feBlend mode="normal" in="SourceGraphic" in2="effect1_dropShadow_1_4" result="shape"/>
</filter>
</defs>
</svg>
