<svg width="161" height="77" viewBox="0 0 161 77" fill="none" xmlns="http://www.w3.org/2000/svg">
<g filter="url(#filter0_d_5_77)">
<mask id="path-1-outside-1_5_77" maskUnits="userSpaceOnUse" x="3.52802" y="9" width="153" height="53" fill="black">
<rect fill="white" x="3.52802" y="9" width="153" height="53"/>
<path d="M9.86402 58V11.472H24.584C28.2533 11.472 31.4534 11.9627 34.184 12.944C36.9574 13.8827 39.0907 15.3547 40.584 17.36C42.12 19.3653 42.888 21.9467 42.888 25.104C42.888 27.1947 42.504 29.1147 41.736 30.864C40.968 32.5707 39.8587 34.064 38.408 35.344C37 36.5813 35.2507 37.584 33.16 38.352C34.5254 38.992 35.6347 39.9947 36.488 41.36L47.112 58H38.216C36.5094 58 35.3147 57.36 34.632 56.08L25.992 41.936C25.6507 41.3813 25.2453 40.976 24.776 40.72C24.3493 40.464 23.7093 40.336 22.856 40.336H19.72V58H9.86402ZM19.72 33.488H24.52C27.4213 33.488 29.5973 32.8053 31.048 31.44C32.5414 30.032 33.288 28.176 33.288 25.872C33.288 23.6533 32.5627 21.9467 31.112 20.752C29.704 19.5573 27.528 18.96 24.584 18.96H19.72V33.488ZM41.096 58L37.64 50.128L42.184 51.024L41.096 58ZM5.00002 58V53.84C5.00002 53.2 5.19202 52.7093 5.57602 52.368C5.96002 52.0267 6.49335 51.792 7.17602 51.664L10.376 50.96L11.272 58H5.00002ZM11.272 11.472L10.376 18.512L7.17602 17.872C6.49335 17.7013 5.96002 17.4667 5.57602 17.168C5.19202 16.8267 5.00002 16.3147 5.00002 15.632V11.472H11.272ZM18.312 58L19.144 50.96L22.408 51.664C23.0907 51.792 23.624 52.0267 24.008 52.368C24.392 52.7093 24.584 53.2 24.584 53.84V58H18.312ZM41.096 58L41.928 50.96L45.192 51.664C45.8747 51.792 46.408 52.0267 46.792 52.368C47.176 52.7093 47.368 53.2 47.368 53.84V58H41.096ZM57.0535 58V24.912H66.1415V58H57.0535ZM52.1895 58V53.84C52.1895 53.2 52.3815 52.7093 52.7655 52.368C53.1922 52.0267 53.7469 51.792 54.4295 51.664L57.6295 50.96L58.4615 58H52.1895ZM64.7335 58L65.5655 50.96L68.7655 51.664C69.4482 51.792 69.9815 52.0267 70.3655 52.368C70.7922 52.7093 71.0055 53.2 71.0055 53.84V58H64.7335ZM58.4615 24.912L57.6295 31.952L54.4295 31.312C53.7469 31.1413 53.1922 30.9067 52.7655 30.608C52.3815 30.2667 52.1895 29.7547 52.1895 29.072V24.912H58.4615ZM61.7255 21.008C60.2749 21.008 58.9948 20.4747 57.8855 19.408C56.7762 18.3413 56.2215 17.0827 56.2215 15.632C56.2215 14.096 56.7762 12.816 57.8855 11.792C58.9948 10.7253 60.2749 10.192 61.7255 10.192C63.2615 10.192 64.5842 10.7253 65.6935 11.792C66.8455 12.816 67.4215 14.096 67.4215 15.632C67.4215 17.0827 66.8455 18.3413 65.6935 19.408C64.5842 20.4747 63.2615 21.008 61.7255 21.008ZM89.9425 58L76.9505 24.912H84.5025C85.1425 24.912 85.6759 25.0827 86.1025 25.424C86.5719 25.7227 86.8919 26.1067 87.0625 26.576L92.3745 42.704C92.7159 43.7707 93.0359 44.8373 93.3345 45.904C93.6332 46.9707 93.9105 48.0587 94.1665 49.168C94.3799 48.1013 94.6359 47.0347 94.9345 45.968C95.2332 44.9013 95.5745 43.8133 95.9585 42.704L101.463 26.576C101.633 26.1067 101.932 25.7227 102.359 25.424C102.785 25.0827 103.297 24.912 103.895 24.912H111.063L98.1345 58H89.9425ZM83.3505 27.216V24.912H88.1505V27.216H83.3505ZM100.567 27.216V24.912H105.303V27.216H100.567ZM81.7505 24.912L80.8545 31.952L77.6545 31.312C76.9719 31.1413 76.4385 30.9067 76.0545 30.608C75.6705 30.2667 75.4785 29.7547 75.4785 29.072V24.912H81.7505ZM91.5425 24.912V29.072C91.5425 29.7547 91.3505 30.2667 90.9665 30.608C90.5825 30.9067 90.0492 31.1413 89.3665 31.312L86.1665 31.952L85.2705 24.912H91.5425ZM102.743 24.912L101.911 31.952L98.7105 31.312C98.0279 31.1413 97.4732 30.9067 97.0465 30.608C96.6625 30.2667 96.4705 29.7547 96.4705 29.072V24.912H102.743ZM112.599 24.912V29.072C112.599 29.7547 112.407 30.2667 112.023 30.608C111.639 30.9067 111.105 31.1413 110.423 31.312L107.159 31.952L106.327 24.912H112.599ZM132.152 58.512C129.805 58.512 127.778 57.9787 126.072 56.912C124.408 55.8027 123.149 54.3093 122.296 52.432C121.442 50.512 121.016 48.336 121.016 45.904V24.912H130.04V45.904C130.04 47.7387 130.445 49.168 131.256 50.192C132.109 51.1733 133.346 51.664 134.968 51.664C136.162 51.664 137.293 51.408 138.36 50.896C139.426 50.3413 140.429 49.5947 141.368 48.656V24.912H150.456V58H144.888C143.65 58 142.882 57.4667 142.584 56.4L142.072 54.16C140.706 55.44 139.234 56.4853 137.656 57.296C136.077 58.1067 134.242 58.512 132.152 58.512ZM149.048 58L149.88 50.96L153.08 51.664C153.762 51.792 154.296 52.0267 154.68 52.368C155.106 52.7093 155.32 53.2 155.32 53.84V58H149.048ZM122.424 24.912L121.528 31.952L118.328 31.312C117.645 31.1413 117.112 30.9067 116.728 30.608C116.344 30.2667 116.152 29.7547 116.152 29.072V24.912H122.424ZM142.776 24.912L141.944 31.952L138.744 31.312C138.061 31.1413 137.506 30.9067 137.08 30.608C136.696 30.2667 136.504 29.7547 136.504 29.072V24.912H142.776Z"/>
</mask>
<path d="M9.86402 58V11.472H24.584C28.2533 11.472 31.4534 11.9627 34.184 12.944C36.9574 13.8827 39.0907 15.3547 40.584 17.36C42.12 19.3653 42.888 21.9467 42.888 25.104C42.888 27.1947 42.504 29.1147 41.736 30.864C40.968 32.5707 39.8587 34.064 38.408 35.344C37 36.5813 35.2507 37.584 33.16 38.352C34.5254 38.992 35.6347 39.9947 36.488 41.36L47.112 58H38.216C36.5094 58 35.3147 57.36 34.632 56.08L25.992 41.936C25.6507 41.3813 25.2453 40.976 24.776 40.72C24.3493 40.464 23.7093 40.336 22.856 40.336H19.72V58H9.86402ZM19.72 33.488H24.52C27.4213 33.488 29.5973 32.8053 31.048 31.44C32.5414 30.032 33.288 28.176 33.288 25.872C33.288 23.6533 32.5627 21.9467 31.112 20.752C29.704 19.5573 27.528 18.96 24.584 18.96H19.72V33.488ZM41.096 58L37.64 50.128L42.184 51.024L41.096 58ZM5.00002 58V53.84C5.00002 53.2 5.19202 52.7093 5.57602 52.368C5.96002 52.0267 6.49335 51.792 7.17602 51.664L10.376 50.96L11.272 58H5.00002ZM11.272 11.472L10.376 18.512L7.17602 17.872C6.49335 17.7013 5.96002 17.4667 5.57602 17.168C5.19202 16.8267 5.00002 16.3147 5.00002 15.632V11.472H11.272ZM18.312 58L19.144 50.96L22.408 51.664C23.0907 51.792 23.624 52.0267 24.008 52.368C24.392 52.7093 24.584 53.2 24.584 53.84V58H18.312ZM41.096 58L41.928 50.96L45.192 51.664C45.8747 51.792 46.408 52.0267 46.792 52.368C47.176 52.7093 47.368 53.2 47.368 53.84V58H41.096ZM57.0535 58V24.912H66.1415V58H57.0535ZM52.1895 58V53.84C52.1895 53.2 52.3815 52.7093 52.7655 52.368C53.1922 52.0267 53.7469 51.792 54.4295 51.664L57.6295 50.96L58.4615 58H52.1895ZM64.7335 58L65.5655 50.96L68.7655 51.664C69.4482 51.792 69.9815 52.0267 70.3655 52.368C70.7922 52.7093 71.0055 53.2 71.0055 53.84V58H64.7335ZM58.4615 24.912L57.6295 31.952L54.4295 31.312C53.7469 31.1413 53.1922 30.9067 52.7655 30.608C52.3815 30.2667 52.1895 29.7547 52.1895 29.072V24.912H58.4615ZM61.7255 21.008C60.2749 21.008 58.9948 20.4747 57.8855 19.408C56.7762 18.3413 56.2215 17.0827 56.2215 15.632C56.2215 14.096 56.7762 12.816 57.8855 11.792C58.9948 10.7253 60.2749 10.192 61.7255 10.192C63.2615 10.192 64.5842 10.7253 65.6935 11.792C66.8455 12.816 67.4215 14.096 67.4215 15.632C67.4215 17.0827 66.8455 18.3413 65.6935 19.408C64.5842 20.4747 63.2615 21.008 61.7255 21.008ZM89.9425 58L76.9505 24.912H84.5025C85.1425 24.912 85.6759 25.0827 86.1025 25.424C86.5719 25.7227 86.8919 26.1067 87.0625 26.576L92.3745 42.704C92.7159 43.7707 93.0359 44.8373 93.3345 45.904C93.6332 46.9707 93.9105 48.0587 94.1665 49.168C94.3799 48.1013 94.6359 47.0347 94.9345 45.968C95.2332 44.9013 95.5745 43.8133 95.9585 42.704L101.463 26.576C101.633 26.1067 101.932 25.7227 102.359 25.424C102.785 25.0827 103.297 24.912 103.895 24.912H111.063L98.1345 58H89.9425ZM83.3505 27.216V24.912H88.1505V27.216H83.3505ZM100.567 27.216V24.912H105.303V27.216H100.567ZM81.7505 24.912L80.8545 31.952L77.6545 31.312C76.9719 31.1413 76.4385 30.9067 76.0545 30.608C75.6705 30.2667 75.4785 29.7547 75.4785 29.072V24.912H81.7505ZM91.5425 24.912V29.072C91.5425 29.7547 91.3505 30.2667 90.9665 30.608C90.5825 30.9067 90.0492 31.1413 89.3665 31.312L86.1665 31.952L85.2705 24.912H91.5425ZM102.743 24.912L101.911 31.952L98.7105 31.312C98.0279 31.1413 97.4732 30.9067 97.0465 30.608C96.6625 30.2667 96.4705 29.7547 96.4705 29.072V24.912H102.743ZM112.599 24.912V29.072C112.599 29.7547 112.407 30.2667 112.023 30.608C111.639 30.9067 111.105 31.1413 110.423 31.312L107.159 31.952L106.327 24.912H112.599ZM132.152 58.512C129.805 58.512 127.778 57.9787 126.072 56.912C124.408 55.8027 123.149 54.3093 122.296 52.432C121.442 50.512 121.016 48.336 121.016 45.904V24.912H130.04V45.904C130.04 47.7387 130.445 49.168 131.256 50.192C132.109 51.1733 133.346 51.664 134.968 51.664C136.162 51.664 137.293 51.408 138.36 50.896C139.426 50.3413 140.429 49.5947 141.368 48.656V24.912H150.456V58H144.888C143.65 58 142.882 57.4667 142.584 56.4L142.072 54.16C140.706 55.44 139.234 56.4853 137.656 57.296C136.077 58.1067 134.242 58.512 132.152 58.512ZM149.048 58L149.88 50.96L153.08 51.664C153.762 51.792 154.296 52.0267 154.68 52.368C155.106 52.7093 155.32 53.2 155.32 53.84V58H149.048ZM122.424 24.912L121.528 31.952L118.328 31.312C117.645 31.1413 117.112 30.9067 116.728 30.608C116.344 30.2667 116.152 29.7547 116.152 29.072V24.912H122.424ZM142.776 24.912L141.944 31.952L138.744 31.312C138.061 31.1413 137.506 30.9067 137.08 30.608C136.696 30.2667 136.504 29.7547 136.504 29.072V24.912H142.776Z" fill="white"/>
<path d="M9.86402 58H8.86402V59H9.86402V58ZM9.86402 11.472V10.472H8.86402V11.472H9.86402ZM34.184 12.944L33.8458 13.8851L33.8546 13.8882L33.8634 13.8912L34.184 12.944ZM40.584 17.36L39.7819 17.9573L39.7901 17.9681L40.584 17.36ZM41.736 30.864L42.648 31.2744L42.6517 31.266L41.736 30.864ZM38.408 35.344L39.0681 36.0952L39.0696 36.0938L38.408 35.344ZM33.16 38.352L32.8152 37.4133L30.5649 38.24L32.7356 39.2575L33.16 38.352ZM36.488 41.36L35.64 41.89L35.6452 41.8981L36.488 41.36ZM47.112 58V59H48.9369L47.9549 57.4619L47.112 58ZM34.632 56.08L35.5144 55.6094L35.5006 55.5836L35.4854 55.5587L34.632 56.08ZM25.992 41.936L26.8454 41.4147L26.8437 41.4119L25.992 41.936ZM24.776 40.72L24.2615 41.5775L24.2791 41.5881L24.2972 41.5979L24.776 40.72ZM19.72 40.336V39.336H18.72V40.336H19.72ZM19.72 58V59H20.72V58H19.72ZM19.72 33.488H18.72V34.488H19.72V33.488ZM31.048 31.44L31.7334 32.1682L31.734 32.1676L31.048 31.44ZM31.112 20.752L30.465 21.5145L30.4706 21.5193L30.4763 21.5239L31.112 20.752ZM19.72 18.96V17.96H18.72V18.96H19.72ZM41.096 58L40.1804 58.402L41.5565 61.5366L42.0841 58.1541L41.096 58ZM37.64 50.128L37.8335 49.1469L35.9545 48.7764L36.7244 50.53L37.64 50.128ZM42.184 51.024L43.1721 51.1781L43.3201 50.2288L42.3775 50.0429L42.184 51.024ZM5.00002 58H4.00002V59H5.00002V58ZM5.57602 52.368L4.91165 51.6206L4.91165 51.6206L5.57602 52.368ZM7.17602 51.664L7.3603 52.6469L7.37564 52.644L7.39088 52.6406L7.17602 51.664ZM10.376 50.96L11.368 50.8337L11.2299 49.7482L10.1612 49.9834L10.376 50.96ZM11.272 58V59H12.4074L12.264 57.8737L11.272 58ZM11.272 11.472L12.264 11.5983L12.4074 10.472H11.272V11.472ZM10.376 18.512L10.1799 19.4926L11.2325 19.7031L11.368 18.6383L10.376 18.512ZM7.17602 17.872L6.93348 18.8421L6.95657 18.8479L6.9799 18.8526L7.17602 17.872ZM5.57602 17.168L4.91165 17.9154L4.93618 17.9372L4.96208 17.9574L5.57602 17.168ZM5.00002 11.472V10.472H4.00002V11.472H5.00002ZM18.312 58L17.3189 57.8826L17.1869 59H18.312V58ZM19.144 50.96L19.3549 49.9825L18.28 49.7506L18.1509 50.8426L19.144 50.96ZM22.408 51.664L22.1972 52.6415L22.2104 52.6444L22.2237 52.6469L22.408 51.664ZM24.008 52.368L24.6724 51.6206L24.6724 51.6206L24.008 52.368ZM24.584 58V59H25.584V58H24.584ZM41.096 58L40.1029 57.8826L39.9709 59H41.096V58ZM41.928 50.96L42.1389 49.9825L41.064 49.7506L40.9349 50.8426L41.928 50.96ZM45.192 51.664L44.9812 52.6415L44.9944 52.6444L45.0077 52.6469L45.192 51.664ZM46.792 52.368L47.4564 51.6206L47.4564 51.6206L46.792 52.368ZM47.368 58V59H48.368V58H47.368ZM9.86402 58H10.864V11.472H9.86402H8.86402V58H9.86402ZM9.86402 11.472V12.472H24.584V11.472V10.472H9.86402V11.472ZM24.584 11.472V12.472C28.1672 12.472 31.2481 12.9515 33.8458 13.8851L34.184 12.944L34.5222 12.0029C31.6586 10.9738 28.3395 10.472 24.584 10.472V11.472ZM34.184 12.944L33.8634 13.8912C36.4782 14.7762 38.4296 16.1412 39.782 17.9573L40.584 17.36L41.3861 16.7627C39.7518 14.5682 37.4365 12.9891 34.5046 11.9968L34.184 12.944ZM40.584 17.36L39.7901 17.9681C41.162 19.7592 41.888 22.1106 41.888 25.104H42.888H43.888C43.888 21.7827 43.078 18.9715 41.3779 16.7519L40.584 17.36ZM42.888 25.104H41.888C41.888 27.0694 41.5277 28.8509 40.8204 30.462L41.736 30.864L42.6517 31.266C43.4803 29.3784 43.888 27.3199 43.888 25.104H42.888ZM41.736 30.864L40.8241 30.4536C40.1164 32.0262 39.0941 33.405 37.7464 34.5942L38.408 35.344L39.0696 36.0938C40.6232 34.723 41.8196 33.1151 42.6479 31.2744L41.736 30.864ZM38.408 35.344L37.7479 34.5928C36.4482 35.735 34.8114 36.68 32.8152 37.4133L33.16 38.352L33.5048 39.2907C35.69 38.488 37.5518 37.4277 39.0681 36.0952L38.408 35.344ZM33.16 38.352L32.7356 39.2575C33.9145 39.8101 34.8815 40.6764 35.64 41.89L36.488 41.36L37.336 40.83C36.3878 39.3129 35.1362 38.1739 33.5845 37.4465L33.16 38.352ZM36.488 41.36L35.6452 41.8981L46.2692 58.5381L47.112 58L47.9549 57.4619L37.3309 40.8219L36.488 41.36ZM47.112 58V57H38.216V58V59H47.112V58ZM38.216 58V57C36.8 57 35.9891 56.4996 35.5144 55.6094L34.632 56.08L33.7497 56.5506C34.6402 58.2204 36.2187 59 38.216 59V58ZM34.632 56.08L35.4854 55.5587L26.8454 41.4147L25.992 41.936L25.1386 42.4573L33.7786 56.6013L34.632 56.08ZM25.992 41.936L26.8437 41.4119C26.4309 40.7411 25.9073 40.198 25.2549 39.8421L24.776 40.72L24.2972 41.5979C24.5834 41.754 24.8705 42.0216 25.1404 42.4601L25.992 41.936ZM24.776 40.72L25.2905 39.8625C24.6335 39.4683 23.7767 39.336 22.856 39.336V40.336V41.336C23.642 41.336 24.0652 41.4597 24.2615 41.5775L24.776 40.72ZM22.856 40.336V39.336H19.72V40.336V41.336H22.856V40.336ZM19.72 40.336H18.72V58H19.72H20.72V40.336H19.72ZM19.72 58V57H9.86402V58V59H19.72V58ZM19.72 33.488V34.488H24.52V33.488V32.488H19.72V33.488ZM24.52 33.488V34.488C27.5609 34.488 30.0276 33.7737 31.7334 32.1682L31.048 31.44L30.3627 30.7118C29.1671 31.837 27.2818 32.488 24.52 32.488V33.488ZM31.048 31.44L31.734 32.1676C33.4533 30.5465 34.288 28.4142 34.288 25.872H33.288H32.288C32.288 27.9378 31.6294 29.5175 30.362 30.7124L31.048 31.44ZM33.288 25.872H34.288C34.288 23.4145 33.4717 21.3998 31.7477 19.9801L31.112 20.752L30.4763 21.5239C31.6537 22.4935 32.288 23.8922 32.288 25.872H33.288ZM31.112 20.752L31.759 19.9895C30.0899 18.5733 27.6324 17.96 24.584 17.96V18.96V19.96C27.4237 19.96 29.3181 20.5414 30.465 21.5145L31.112 20.752ZM24.584 18.96V17.96H19.72V18.96V19.96H24.584V18.96ZM19.72 18.96H18.72V33.488H19.72H20.72V18.96H19.72ZM41.096 58L42.0117 57.598L38.5557 49.726L37.64 50.128L36.7244 50.53L40.1804 58.402L41.096 58ZM37.64 50.128L37.4466 51.1091L41.9906 52.0051L42.184 51.024L42.3775 50.0429L37.8335 49.1469L37.64 50.128ZM42.184 51.024L41.196 50.8699L40.108 57.8459L41.096 58L42.0841 58.1541L43.1721 51.1781L42.184 51.024ZM5.00002 58H6.00002V53.84H5.00002H4.00002V58H5.00002ZM5.00002 53.84H6.00002C6.00002 53.41 6.12054 53.2219 6.24038 53.1154L5.57602 52.368L4.91165 51.6206C4.26349 52.1967 4.00002 52.99 4.00002 53.84H5.00002ZM5.57602 52.368L6.24038 53.1154C6.44901 52.93 6.79544 52.7528 7.3603 52.6469L7.17602 51.664L6.99173 50.6811C6.19125 50.8312 5.47102 51.1234 4.91165 51.6206L5.57602 52.368ZM7.17602 51.664L7.39088 52.6406L10.5909 51.9366L10.376 50.96L10.1612 49.9834L6.96115 50.6874L7.17602 51.664ZM10.376 50.96L9.38402 51.0863L10.28 58.1263L11.272 58L12.264 57.8737L11.368 50.8337L10.376 50.96ZM11.272 58V57H5.00002V58V59H11.272V58ZM11.272 11.472L10.28 11.3457L9.38402 18.3857L10.376 18.512L11.368 18.6383L12.264 11.5983L11.272 11.472ZM10.376 18.512L10.5721 17.5314L7.37213 16.8914L7.17602 17.872L6.9799 18.8526L10.1799 19.4926L10.376 18.512ZM7.17602 17.872L7.41855 16.9019C6.81539 16.7511 6.42645 16.5626 6.18995 16.3786L5.57602 17.168L4.96208 17.9574C5.49358 18.3707 6.17131 18.6516 6.93348 18.8421L7.17602 17.872ZM5.57602 17.168L6.24038 16.4206C6.13411 16.3261 6.00002 16.128 6.00002 15.632H5.00002H4.00002C4.00002 16.5013 4.24993 17.3272 4.91165 17.9154L5.57602 17.168ZM5.00002 15.632H6.00002V11.472H5.00002H4.00002V15.632H5.00002ZM5.00002 11.472V12.472H11.272V11.472V10.472H5.00002V11.472ZM18.312 58L19.3051 58.1174L20.1371 51.0774L19.144 50.96L18.1509 50.8426L17.3189 57.8826L18.312 58ZM19.144 50.96L18.9332 51.9375L22.1972 52.6415L22.408 51.664L22.6189 50.6865L19.3549 49.9825L19.144 50.96ZM22.408 51.664L22.2237 52.6469C22.7886 52.7528 23.135 52.93 23.3437 53.1154L24.008 52.368L24.6724 51.6206C24.113 51.1234 23.3928 50.8312 22.5923 50.6811L22.408 51.664ZM24.008 52.368L23.3437 53.1154C23.4635 53.2219 23.584 53.41 23.584 53.84H24.584H25.584C25.584 52.99 25.3205 52.1967 24.6724 51.6206L24.008 52.368ZM24.584 53.84H23.584V58H24.584H25.584V53.84H24.584ZM24.584 58V57H18.312V58V59H24.584V58ZM41.096 58L42.0891 58.1174L42.9211 51.0774L41.928 50.96L40.9349 50.8426L40.1029 57.8826L41.096 58ZM41.928 50.96L41.7172 51.9375L44.9812 52.6415L45.192 51.664L45.4029 50.6865L42.1389 49.9825L41.928 50.96ZM45.192 51.664L45.0077 52.6469C45.5726 52.7528 45.919 52.93 46.1277 53.1154L46.792 52.368L47.4564 51.6206C46.897 51.1234 46.1768 50.8312 45.3763 50.6811L45.192 51.664ZM46.792 52.368L46.1277 53.1154C46.2475 53.2219 46.368 53.41 46.368 53.84H47.368H48.368C48.368 52.99 48.1045 52.1967 47.4564 51.6206L46.792 52.368ZM47.368 53.84H46.368V58H47.368H48.368V53.84H47.368ZM47.368 58V57H41.096V58V59H47.368V58ZM57.0535 58H56.0535V59H57.0535V58ZM57.0535 24.912V23.912H56.0535V24.912H57.0535ZM66.1415 24.912H67.1415V23.912H66.1415V24.912ZM66.1415 58V59H67.1415V58H66.1415ZM52.1895 58H51.1895V59H52.1895V58ZM52.7655 52.368L52.1408 51.5871L52.1206 51.6033L52.1012 51.6206L52.7655 52.368ZM54.4295 51.664L54.6138 52.6469L54.6291 52.644L54.6444 52.6406L54.4295 51.664ZM57.6295 50.96L58.6226 50.8426L58.493 49.7461L57.4147 49.9834L57.6295 50.96ZM58.4615 58V59H59.5867L59.4546 57.8826L58.4615 58ZM64.7335 58L63.7404 57.8826L63.6084 59H64.7335V58ZM65.5655 50.96L65.7804 49.9834L64.702 49.7461L64.5724 50.8426L65.5655 50.96ZM68.7655 51.664L68.5507 52.6406L68.5659 52.644L68.5812 52.6469L68.7655 51.664ZM70.3655 52.368L69.7012 53.1154L69.7206 53.1327L69.7408 53.1489L70.3655 52.368ZM71.0055 58V59H72.0055V58H71.0055ZM58.4615 24.912L59.4546 25.0294L59.5867 23.912H58.4615V24.912ZM57.6295 31.952L57.4334 32.9326L58.4955 33.145L58.6226 32.0694L57.6295 31.952ZM54.4295 31.312L54.187 32.2821L54.2101 32.2879L54.2334 32.2926L54.4295 31.312ZM52.7655 30.608L52.1012 31.3554L52.1445 31.394L52.1921 31.4272L52.7655 30.608ZM52.1895 24.912V23.912H51.1895V24.912H52.1895ZM57.8855 19.408L58.5786 18.6872L58.5786 18.6872L57.8855 19.408ZM57.8855 11.792L58.5638 12.5268L58.5713 12.5199L58.5786 12.5128L57.8855 11.792ZM65.6935 11.792L65.0004 12.5128L65.0145 12.5264L65.0292 12.5394L65.6935 11.792ZM65.6935 19.408L65.0141 18.6742L65.0072 18.6806L65.0004 18.6872L65.6935 19.408ZM57.0535 58H58.0535V24.912H57.0535H56.0535V58H57.0535ZM57.0535 24.912V25.912H66.1415V24.912V23.912H57.0535V24.912ZM66.1415 24.912H65.1415V58H66.1415H67.1415V24.912H66.1415ZM66.1415 58V57H57.0535V58V59H66.1415V58ZM52.1895 58H53.1895V53.84H52.1895H51.1895V58H52.1895ZM52.1895 53.84H53.1895C53.1895 53.41 53.31 53.2219 53.4299 53.1154L52.7655 52.368L52.1012 51.6206C51.453 52.1967 51.1895 52.99 51.1895 53.84H52.1895ZM52.7655 52.368L53.3902 53.1489C53.6588 52.934 54.0496 52.7527 54.6138 52.6469L54.4295 51.664L54.2452 50.6811C53.4441 50.8313 52.7256 51.1193 52.1408 51.5871L52.7655 52.368ZM54.4295 51.664L54.6444 52.6406L57.8444 51.9366L57.6295 50.96L57.4147 49.9834L54.2147 50.6874L54.4295 51.664ZM57.6295 50.96L56.6364 51.0774L57.4684 58.1174L58.4615 58L59.4546 57.8826L58.6226 50.8426L57.6295 50.96ZM58.4615 58V57H52.1895V58V59H58.4615V58ZM64.7335 58L65.7266 58.1174L66.5586 51.0774L65.5655 50.96L64.5724 50.8426L63.7404 57.8826L64.7335 58ZM65.5655 50.96L65.3507 51.9366L68.5507 52.6406L68.7655 51.664L68.9804 50.6874L65.7804 49.9834L65.5655 50.96ZM68.7655 51.664L68.5812 52.6469C69.1461 52.7528 69.4925 52.93 69.7012 53.1154L70.3655 52.368L71.0299 51.6206C70.4705 51.1234 69.7503 50.8312 68.9498 50.6811L68.7655 51.664ZM70.3655 52.368L69.7408 53.1489C69.8882 53.2668 70.0055 53.4455 70.0055 53.84H71.0055H72.0055C72.0055 52.9545 71.6961 52.1519 70.9902 51.5871L70.3655 52.368ZM71.0055 53.84H70.0055V58H71.0055H72.0055V53.84H71.0055ZM71.0055 58V57H64.7335V58V59H71.0055V58ZM58.4615 24.912L57.4684 24.7946L56.6364 31.8346L57.6295 31.952L58.6226 32.0694L59.4546 25.0294L58.4615 24.912ZM57.6295 31.952L57.8256 30.9714L54.6256 30.3314L54.4295 31.312L54.2334 32.2926L57.4334 32.9326L57.6295 31.952ZM54.4295 31.312L54.6721 30.3419C54.069 30.1911 53.6371 29.9975 53.339 29.7888L52.7655 30.608L52.1921 31.4272C52.7473 31.8159 53.4247 32.0916 54.187 32.2821L54.4295 31.312ZM52.7655 30.608L53.4299 29.8606C53.3236 29.7661 53.1895 29.568 53.1895 29.072H52.1895H51.1895C51.1895 29.9413 51.4394 30.7672 52.1012 31.3554L52.7655 30.608ZM52.1895 29.072H53.1895V24.912H52.1895H51.1895V29.072H52.1895ZM52.1895 24.912V25.912H58.4615V24.912V23.912H52.1895V24.912ZM61.7255 21.008V20.008C60.5501 20.008 59.5142 19.5867 58.5786 18.6872L57.8855 19.408L57.1924 20.1288C58.4755 21.3626 59.9996 22.008 61.7255 22.008V21.008ZM57.8855 19.408L58.5786 18.6872C57.652 17.7962 57.2215 16.7927 57.2215 15.632H56.2215H55.2215C55.2215 17.3726 55.9003 18.8864 57.1924 20.1288L57.8855 19.408ZM56.2215 15.632H57.2215C57.2215 14.3696 57.6636 13.3578 58.5638 12.5268L57.8855 11.792L57.2072 11.0572C55.8888 12.2742 55.2215 13.8224 55.2215 15.632H56.2215ZM57.8855 11.792L58.5786 12.5128C59.5142 11.6133 60.5501 11.192 61.7255 11.192V10.192V9.192C59.9996 9.192 58.4755 9.8374 57.1924 11.0712L57.8855 11.792ZM61.7255 10.192V11.192C63.0025 11.192 64.077 11.6249 65.0004 12.5128L65.6935 11.792L66.3866 11.0712C65.0914 9.82576 63.5205 9.192 61.7255 9.192V10.192ZM65.6935 11.792L65.0292 12.5394C65.9685 13.3744 66.4215 14.3828 66.4215 15.632H67.4215H68.4215C68.4215 13.8092 67.7225 12.2576 66.3579 11.0446L65.6935 11.792ZM67.4215 15.632H66.4215C66.4215 16.7795 65.9805 17.7794 65.0141 18.6742L65.6935 19.408L66.3729 20.1418C67.7105 18.9032 68.4215 17.3858 68.4215 15.632H67.4215ZM65.6935 19.408L65.0004 18.6872C64.077 19.5751 63.0025 20.008 61.7255 20.008V21.008V22.008C63.5205 22.008 65.0914 21.3742 66.3866 20.1288L65.6935 19.408ZM89.9425 58L89.0117 58.3655L89.2608 59H89.9425V58ZM76.9505 24.912V23.912H75.4835L76.0197 25.2775L76.9505 24.912ZM86.1025 25.424L85.4778 26.2049L85.52 26.2386L85.5656 26.2677L86.1025 25.424ZM87.0625 26.576L88.0123 26.2632L88.0075 26.2486L88.0023 26.2343L87.0625 26.576ZM92.3745 42.704L93.327 42.3992L93.3243 42.3912L92.3745 42.704ZM94.1665 49.168L93.1921 49.3929L95.1471 49.3641L94.1665 49.168ZM95.9585 42.704L96.9035 43.0311L96.9049 43.027L95.9585 42.704ZM101.463 26.576L100.523 26.2343L100.519 26.2436L100.516 26.253L101.463 26.576ZM102.359 25.424L102.932 26.2432L102.958 26.2249L102.983 26.2049L102.359 25.424ZM111.063 24.912L111.994 25.2759L112.527 23.912H111.063V24.912ZM98.1345 58V59H98.8174L99.0659 58.3639L98.1345 58ZM83.3505 27.216H82.3505V28.216H83.3505V27.216ZM83.3505 24.912V23.912H82.3505V24.912H83.3505ZM88.1505 24.912H89.1505V23.912H88.1505V24.912ZM88.1505 27.216V28.216H89.1505V27.216H88.1505ZM100.567 27.216H99.5665V28.216H100.567V27.216ZM100.567 24.912V23.912H99.5665V24.912H100.567ZM105.303 24.912H106.303V23.912H105.303V24.912ZM105.303 27.216V28.216H106.303V27.216H105.303ZM81.7505 24.912L82.7425 25.0383L82.8859 23.912H81.7505V24.912ZM80.8545 31.952L80.6584 32.9326L81.711 33.1431L81.8465 32.0783L80.8545 31.952ZM77.6545 31.312L77.412 32.2821L77.4351 32.2879L77.4584 32.2926L77.6545 31.312ZM76.0545 30.608L75.3902 31.3554L75.4147 31.3772L75.4406 31.3974L76.0545 30.608ZM75.4785 24.912V23.912H74.4785V24.912H75.4785ZM91.5425 24.912H92.5425V23.912H91.5425V24.912ZM90.9665 30.608L91.5805 31.3974L91.6064 31.3772L91.6309 31.3554L90.9665 30.608ZM89.3665 31.312L89.5626 32.2926L89.586 32.2879L89.6091 32.2821L89.3665 31.312ZM86.1665 31.952L85.1745 32.0783L85.31 33.1431L86.3626 32.9326L86.1665 31.952ZM85.2705 24.912V23.912H84.1352L84.2785 25.0383L85.2705 24.912ZM102.743 24.912L103.736 25.0294L103.868 23.912H102.743V24.912ZM101.911 31.952L101.714 32.9326L102.776 33.145L102.904 32.0694L101.911 31.952ZM98.7105 31.312L98.468 32.2821L98.4911 32.2879L98.5144 32.2926L98.7105 31.312ZM97.0465 30.608L96.3822 31.3554L96.4255 31.394L96.4731 31.4272L97.0465 30.608ZM96.4705 24.912V23.912H95.4705V24.912H96.4705ZM112.599 24.912H113.599V23.912H112.599V24.912ZM112.023 30.608L112.636 31.3974L112.662 31.3772L112.687 31.3554L112.023 30.608ZM110.423 31.312L110.615 32.2933L110.64 32.2884L110.665 32.2821L110.423 31.312ZM107.159 31.952L106.165 32.0694L106.292 33.1409L107.351 32.9333L107.159 31.952ZM106.327 24.912V23.912H105.201L105.333 25.0294L106.327 24.912ZM89.9425 58L90.8733 57.6345L77.8813 24.5465L76.9505 24.912L76.0197 25.2775L89.0117 58.3655L89.9425 58ZM76.9505 24.912V25.912H84.5025V24.912V23.912H76.9505V24.912ZM84.5025 24.912V25.912C84.9561 25.912 85.2578 26.0288 85.4778 26.2049L86.1025 25.424L86.7272 24.6431C86.0939 24.1365 85.329 23.912 84.5025 23.912V24.912ZM86.1025 25.424L85.5656 26.2677C85.8714 26.4622 86.036 26.6791 86.1227 26.9177L87.0625 26.576L88.0023 26.2343C87.7477 25.5342 87.2723 24.9831 86.6394 24.5803L86.1025 25.424ZM87.0625 26.576L86.1127 26.8888L91.4247 43.0168L92.3745 42.704L93.3243 42.3912L88.0123 26.2632L87.0625 26.576ZM92.3745 42.704L91.4221 43.0088C91.7597 44.0639 92.0762 45.1189 92.3716 46.1736L93.3345 45.904L94.2975 45.6344C93.9955 44.5558 93.672 43.4774 93.3269 42.3992L92.3745 42.704ZM93.3345 45.904L92.3716 46.1736C92.666 47.2251 92.9395 48.2981 93.1921 49.3929L94.1665 49.168L95.1409 48.9431C94.8815 47.8192 94.6004 46.7163 94.2975 45.6344L93.3345 45.904ZM94.1665 49.168L95.1471 49.3641C95.3554 48.3226 95.6055 47.2805 95.8975 46.2376L94.9345 45.968L93.9716 45.6984C93.6662 46.7889 93.4043 47.8801 93.1859 48.9719L94.1665 49.168ZM94.9345 45.968L95.8975 46.2376C96.1904 45.1914 96.5257 44.1226 96.9035 43.0311L95.9585 42.704L95.0135 42.3769C94.6234 43.5041 94.2759 44.6113 93.9716 45.6984L94.9345 45.968ZM95.9585 42.704L96.9049 43.027L102.409 26.899L101.463 26.576L100.516 26.253L95.0121 42.381L95.9585 42.704ZM101.463 26.576L102.402 26.9177C102.5 26.65 102.666 26.4295 102.932 26.2432L102.359 25.424L101.785 24.6048C101.198 25.0158 100.767 25.5633 100.523 26.2343L101.463 26.576ZM102.359 25.424L102.983 26.2049C103.216 26.0189 103.502 25.912 103.895 25.912V24.912V23.912C103.093 23.912 102.355 24.1465 101.734 24.6431L102.359 25.424ZM103.895 24.912V25.912H111.063V24.912V23.912H103.895V24.912ZM111.063 24.912L110.131 24.5481L97.2031 57.6361L98.1345 58L99.0659 58.3639L111.994 25.2759L111.063 24.912ZM98.1345 58V57H89.9425V58V59H98.1345V58ZM83.3505 27.216H84.3505V24.912H83.3505H82.3505V27.216H83.3505ZM83.3505 24.912V25.912H88.1505V24.912V23.912H83.3505V24.912ZM88.1505 24.912H87.1505V27.216H88.1505H89.1505V24.912H88.1505ZM88.1505 27.216V26.216H83.3505V27.216V28.216H88.1505V27.216ZM100.567 27.216H101.567V24.912H100.567H99.5665V27.216H100.567ZM100.567 24.912V25.912H105.303V24.912V23.912H100.567V24.912ZM105.303 24.912H104.303V27.216H105.303H106.303V24.912H105.303ZM105.303 27.216V26.216H100.567V27.216V28.216H105.303V27.216ZM81.7505 24.912L80.7585 24.7857L79.8625 31.8257L80.8545 31.952L81.8465 32.0783L82.7425 25.0383L81.7505 24.912ZM80.8545 31.952L81.0506 30.9714L77.8506 30.3314L77.6545 31.312L77.4584 32.2926L80.6584 32.9326L80.8545 31.952ZM77.6545 31.312L77.8971 30.3419C77.2939 30.1911 76.905 30.0026 76.6685 29.8186L76.0545 30.608L75.4406 31.3974C75.9721 31.8107 76.6498 32.0916 77.412 32.2821L77.6545 31.312ZM76.0545 30.608L76.7189 29.8606C76.6126 29.7661 76.4785 29.568 76.4785 29.072H75.4785H74.4785C74.4785 29.9413 74.7284 30.7672 75.3902 31.3554L76.0545 30.608ZM75.4785 29.072H76.4785V24.912H75.4785H74.4785V29.072H75.4785ZM75.4785 24.912V25.912H81.7505V24.912V23.912H75.4785V24.912ZM91.5425 24.912H90.5425V29.072H91.5425H92.5425V24.912H91.5425ZM91.5425 29.072H90.5425C90.5425 29.568 90.4084 29.7661 90.3022 29.8606L90.9665 30.608L91.6309 31.3554C92.2926 30.7672 92.5425 29.9413 92.5425 29.072H91.5425ZM90.9665 30.608L90.3526 29.8186C90.1161 30.0026 89.7271 30.1911 89.124 30.3419L89.3665 31.312L89.6091 32.2821C90.3712 32.0916 91.049 31.8107 91.5805 31.3974L90.9665 30.608ZM89.3665 31.312L89.1704 30.3314L85.9704 30.9714L86.1665 31.952L86.3626 32.9326L89.5626 32.2926L89.3665 31.312ZM86.1665 31.952L87.1585 31.8257L86.2625 24.7857L85.2705 24.912L84.2785 25.0383L85.1745 32.0783L86.1665 31.952ZM85.2705 24.912V25.912H91.5425V24.912V23.912H85.2705V24.912ZM102.743 24.912L101.749 24.7946L100.917 31.8346L101.911 31.952L102.904 32.0694L103.736 25.0294L102.743 24.912ZM101.911 31.952L102.107 30.9714L98.9066 30.3314L98.7105 31.312L98.5144 32.2926L101.714 32.9326L101.911 31.952ZM98.7105 31.312L98.9531 30.3419C98.35 30.1911 97.9181 29.9975 97.62 29.7888L97.0465 30.608L96.4731 31.4272C97.0283 31.8159 97.7057 32.0916 98.468 32.2821L98.7105 31.312ZM97.0465 30.608L97.7109 29.8606C97.6046 29.7661 97.4705 29.568 97.4705 29.072H96.4705H95.4705C95.4705 29.9413 95.7204 30.7672 96.3822 31.3554L97.0465 30.608ZM96.4705 29.072H97.4705V24.912H96.4705H95.4705V29.072H96.4705ZM96.4705 24.912V25.912H102.743V24.912V23.912H96.4705V24.912ZM112.599 24.912H111.599V29.072H112.599H113.599V24.912H112.599ZM112.599 29.072H111.599C111.599 29.568 111.464 29.7661 111.358 29.8606L112.023 30.608L112.687 31.3554C113.349 30.7672 113.599 29.9413 113.599 29.072H112.599ZM112.023 30.608L111.409 29.8186C111.172 30.0026 110.783 30.1911 110.18 30.3419L110.423 31.312L110.665 32.2821C111.427 32.0916 112.105 31.8107 112.636 31.3974L112.023 30.608ZM110.423 31.312L110.23 30.3307L106.966 30.9707L107.159 31.952L107.351 32.9333L110.615 32.2933L110.423 31.312ZM107.159 31.952L108.152 31.8346L107.32 24.7946L106.327 24.912L105.333 25.0294L106.165 32.0694L107.159 31.952ZM106.327 24.912V25.912H112.599V24.912V23.912H106.327V24.912ZM126.072 56.912L125.517 57.7441L125.529 57.7522L125.542 57.76L126.072 56.912ZM122.296 52.432L121.382 52.8382L121.385 52.8458L122.296 52.432ZM121.016 24.912V23.912H120.016V24.912H121.016ZM130.04 24.912H131.04V23.912H130.04V24.912ZM131.256 50.192L130.471 50.8127L130.486 50.8308L130.501 50.8482L131.256 50.192ZM138.36 50.896L138.792 51.7975L138.807 51.7906L138.821 51.7832L138.36 50.896ZM141.368 48.656L142.075 49.3631L142.368 49.0702V48.656H141.368ZM141.368 24.912V23.912H140.368V24.912H141.368ZM150.456 24.912H151.456V23.912H150.456V24.912ZM150.456 58V59H151.456V58H150.456ZM142.584 56.4L141.609 56.6228L141.614 56.6464L141.621 56.6696L142.584 56.4ZM142.072 54.16L143.046 53.9372L142.658 52.2392L141.388 53.4305L142.072 54.16ZM137.656 57.296L137.199 56.4064L137.199 56.4064L137.656 57.296ZM149.048 58L148.054 57.8826L147.922 59H149.048V58ZM149.88 50.96L150.094 49.9834L149.016 49.7461L148.886 50.8426L149.88 50.96ZM153.08 51.664L152.865 52.6406L152.88 52.644L152.895 52.6469L153.08 51.664ZM154.68 52.368L154.015 53.1154L154.035 53.1327L154.055 53.1489L154.68 52.368ZM155.32 58V59H156.32V58H155.32ZM122.424 24.912L123.416 25.0383L123.559 23.912H122.424V24.912ZM121.528 31.952L121.331 32.9326L122.384 33.1431L122.52 32.0783L121.528 31.952ZM118.328 31.312L118.085 32.2821L118.108 32.2879L118.131 32.2926L118.328 31.312ZM116.728 30.608L116.063 31.3554L116.088 31.3772L116.114 31.3974L116.728 30.608ZM116.152 24.912V23.912H115.152V24.912H116.152ZM142.776 24.912L143.769 25.0294L143.901 23.912H142.776V24.912ZM141.944 31.952L141.747 32.9326L142.809 33.145L142.937 32.0694L141.944 31.952ZM138.744 31.312L138.501 32.2821L138.524 32.2879L138.547 32.2926L138.744 31.312ZM137.08 30.608L136.415 31.3554L136.459 31.394L136.506 31.4272L137.08 30.608ZM136.504 24.912V23.912H135.504V24.912H136.504ZM132.152 58.512V57.512C129.961 57.512 128.124 57.0158 126.602 56.064L126.072 56.912L125.542 57.76C127.432 58.9415 129.649 59.512 132.152 59.512V58.512ZM126.072 56.912L126.626 56.0799C125.122 55.0775 123.985 53.7312 123.206 52.0182L122.296 52.432L121.385 52.8458C122.313 54.8874 123.693 56.5279 125.517 57.7441L126.072 56.912ZM122.296 52.432L123.209 52.0259C122.421 50.2523 122.016 48.218 122.016 45.904H121.016H120.016C120.016 48.454 120.463 50.7717 121.382 52.8381L122.296 52.432ZM121.016 45.904H122.016V24.912H121.016H120.016V45.904H121.016ZM121.016 24.912V25.912H130.04V24.912V23.912H121.016V24.912ZM130.04 24.912H129.04V45.904H130.04H131.04V24.912H130.04ZM130.04 45.904H129.04C129.04 47.8745 129.474 49.5528 130.471 50.8127L131.256 50.192L132.04 49.5713C131.416 48.7832 131.04 47.6028 131.04 45.904H130.04ZM131.256 50.192L130.501 50.8482C131.59 52.1001 133.134 52.664 134.968 52.664V51.664V50.664C133.558 50.664 132.628 50.2465 132.01 49.5358L131.256 50.192ZM134.968 51.664V52.664C136.31 52.664 137.589 52.375 138.792 51.7975L138.36 50.896L137.927 49.9945C136.997 50.441 136.014 50.664 134.968 50.664V51.664ZM138.36 50.896L138.821 51.7832C139.987 51.1768 141.071 50.3666 142.075 49.3631L141.368 48.656L140.66 47.9489C139.787 48.8228 138.865 49.5059 137.898 50.0088L138.36 50.896ZM141.368 48.656H142.368V24.912H141.368H140.368V48.656H141.368ZM141.368 24.912V25.912H150.456V24.912V23.912H141.368V24.912ZM150.456 24.912H149.456V58H150.456H151.456V24.912H150.456ZM150.456 58V57H144.888V58V59H150.456V58ZM144.888 58V57C144.408 57 144.124 56.8967 143.954 56.7786C143.795 56.6682 143.645 56.483 143.546 56.1304L142.584 56.4L141.621 56.6696C141.82 57.3837 142.204 57.9985 142.813 58.4214C143.411 58.8366 144.13 59 144.888 59V58ZM142.584 56.4L143.558 56.1772L143.046 53.9372L142.072 54.16L141.097 54.3828L141.609 56.6228L142.584 56.4ZM142.072 54.16L141.388 53.4305C140.086 54.6503 138.69 55.6405 137.199 56.4064L137.656 57.296L138.112 58.1856C139.778 57.3301 141.326 56.2297 142.755 54.8895L142.072 54.16ZM137.656 57.296L137.199 56.4064C135.785 57.1326 134.112 57.512 132.152 57.512V58.512V59.512C134.373 59.512 136.369 59.0807 138.112 58.1856L137.656 57.296ZM149.048 58L150.041 58.1174L150.873 51.0774L149.88 50.96L148.886 50.8426L148.054 57.8826L149.048 58ZM149.88 50.96L149.665 51.9366L152.865 52.6406L153.08 51.664L153.294 50.6874L150.094 49.9834L149.88 50.96ZM153.08 51.664L152.895 52.6469C153.46 52.7528 153.807 52.93 154.015 53.1154L154.68 52.368L155.344 51.6206C154.785 51.1234 154.064 50.8312 153.264 50.6811L153.08 51.664ZM154.68 52.368L154.055 53.1489C154.202 53.2668 154.32 53.4455 154.32 53.84H155.32H156.32C156.32 52.9545 156.01 52.1519 155.304 51.5871L154.68 52.368ZM155.32 53.84H154.32V58H155.32H156.32V53.84H155.32ZM155.32 58V57H149.048V58V59H155.32V58ZM122.424 24.912L121.432 24.7857L120.536 31.8257L121.528 31.952L122.52 32.0783L123.416 25.0383L122.424 24.912ZM121.528 31.952L121.724 30.9714L118.524 30.3314L118.328 31.312L118.131 32.2926L121.331 32.9326L121.528 31.952ZM118.328 31.312L118.57 30.3419C117.967 30.1911 117.578 30.0026 117.341 29.8186L116.728 30.608L116.114 31.3974C116.645 31.8107 117.323 32.0916 118.085 32.2821L118.328 31.312ZM116.728 30.608L117.392 29.8606C117.286 29.7661 117.152 29.568 117.152 29.072H116.152H115.152C115.152 29.9413 115.401 30.7672 116.063 31.3554L116.728 30.608ZM116.152 29.072H117.152V24.912H116.152H115.152V29.072H116.152ZM116.152 24.912V25.912H122.424V24.912V23.912H116.152V24.912ZM142.776 24.912L141.782 24.7946L140.95 31.8346L141.944 31.952L142.937 32.0694L143.769 25.0294L142.776 24.912ZM141.944 31.952L142.14 30.9714L138.94 30.3314L138.744 31.312L138.547 32.2926L141.747 32.9326L141.944 31.952ZM138.744 31.312L138.986 30.3419C138.383 30.1911 137.951 29.9975 137.653 29.7888L137.08 30.608L136.506 31.4272C137.061 31.8159 137.739 32.0916 138.501 32.2821L138.744 31.312ZM137.08 30.608L137.744 29.8606C137.638 29.7661 137.504 29.568 137.504 29.072H136.504H135.504C135.504 29.9413 135.753 30.7672 136.415 31.3554L137.08 30.608ZM136.504 29.072H137.504V24.912H136.504H135.504V29.072H136.504ZM136.504 24.912V25.912H142.776V24.912V23.912H136.504V24.912Z" fill="white" mask="url(#path-1-outside-1_5_77)"/>
</g>
<path d="M23.032 71.82C22.9 71.916 22.732 71.982 22.528 72.018C22.324 72.058 22.108 72.078 21.88 72.078C21.612 72.078 21.356 72.036 21.112 71.952C20.872 71.864 20.66 71.732 20.476 71.556C20.292 71.376 20.146 71.15 20.038 70.878C19.93 70.602 19.876 70.276 19.876 69.9C19.876 69.508 19.936 69.174 20.056 68.898C20.176 68.622 20.332 68.398 20.524 68.226C20.716 68.05 20.932 67.922 21.172 67.842C21.412 67.762 21.65 67.722 21.886 67.722C22.15 67.722 22.366 67.736 22.534 67.764C22.702 67.792 22.844 67.828 22.96 67.872L22.828 68.388C22.632 68.296 22.334 68.25 21.934 68.25C21.754 68.25 21.578 68.28 21.406 68.34C21.238 68.396 21.086 68.49 20.95 68.622C20.818 68.75 20.712 68.92 20.632 69.132C20.552 69.34 20.512 69.596 20.512 69.9C20.512 70.172 20.55 70.412 20.626 70.62C20.702 70.824 20.806 70.996 20.938 71.136C21.074 71.272 21.232 71.376 21.412 71.448C21.596 71.516 21.796 71.55 22.012 71.55C22.208 71.55 22.378 71.532 22.522 71.496C22.666 71.46 22.788 71.414 22.888 71.358L23.032 71.82ZM30.0442 70.902H28.3822L27.9382 72H27.3502L29.0782 67.74H29.3902L31.1242 72H30.5002L30.0442 70.902ZM28.5622 70.398H29.8702L29.3842 69.204L29.2222 68.562H29.2102L29.0482 69.216L28.5622 70.398ZM35.9034 67.842C36.0714 67.806 36.2534 67.782 36.4494 67.77C36.6494 67.754 36.8454 67.746 37.0374 67.746C37.2414 67.746 37.4474 67.764 37.6554 67.8C37.8674 67.836 38.0594 67.902 38.2314 67.998C38.4034 68.094 38.5434 68.228 38.6514 68.4C38.7634 68.568 38.8194 68.786 38.8194 69.054C38.8194 69.306 38.7694 69.522 38.6694 69.702C38.5694 69.878 38.4354 70.022 38.2674 70.134C38.1034 70.246 37.9134 70.328 37.6974 70.38C37.4854 70.432 37.2654 70.458 37.0374 70.458C37.0134 70.458 36.9754 70.458 36.9234 70.458C36.8754 70.454 36.8234 70.452 36.7674 70.452C36.7154 70.448 36.6634 70.444 36.6114 70.44C36.5634 70.436 36.5274 70.432 36.5034 70.428V72H35.9034V67.842ZM37.0554 68.262C36.9474 68.262 36.8414 68.264 36.7374 68.268C36.6374 68.272 36.5594 68.282 36.5034 68.298V69.912C36.5234 69.92 36.5554 69.926 36.5994 69.93C36.6474 69.93 36.6954 69.932 36.7434 69.936C36.7954 69.94 36.8434 69.942 36.8874 69.942C36.9354 69.942 36.9714 69.942 36.9954 69.942C37.1394 69.942 37.2814 69.932 37.4214 69.912C37.5614 69.888 37.6874 69.844 37.7994 69.78C37.9154 69.716 38.0074 69.626 38.0754 69.51C38.1474 69.394 38.1834 69.244 38.1834 69.06C38.1834 68.9 38.1494 68.768 38.0814 68.664C38.0134 68.56 37.9254 68.478 37.8174 68.418C37.7094 68.358 37.5874 68.318 37.4514 68.298C37.3194 68.274 37.1874 68.262 37.0554 68.262ZM46.7072 68.328H45.2912V72H44.6912V68.328H43.2752V67.8H46.7072V68.328ZM54.1853 67.8H54.7493V70.542C54.7493 70.802 54.7113 71.026 54.6353 71.214C54.5633 71.402 54.4593 71.56 54.3233 71.688C54.1873 71.812 54.0253 71.904 53.8373 71.964C53.6533 72.024 53.4473 72.054 53.2193 72.054C52.6793 72.054 52.2673 71.938 51.9833 71.706C51.6993 71.47 51.5573 71.122 51.5573 70.662V67.8H52.1573V70.434C52.1573 70.842 52.2453 71.126 52.4213 71.286C52.6013 71.446 52.8653 71.526 53.2133 71.526C53.5493 71.526 53.7953 71.438 53.9513 71.262C54.1073 71.086 54.1853 70.804 54.1853 70.416V67.8ZM60.0171 67.842C60.1011 67.826 60.1931 67.812 60.2931 67.8C60.3971 67.788 60.5011 67.778 60.6051 67.77C60.7091 67.762 60.8131 67.756 60.9171 67.752C61.0211 67.748 61.1191 67.746 61.2111 67.746C61.4111 67.746 61.6031 67.766 61.7871 67.806C61.9751 67.846 62.1391 67.912 62.2791 68.004C62.4231 68.096 62.5371 68.216 62.6211 68.364C62.7091 68.512 62.7531 68.694 62.7531 68.91C62.7531 69.078 62.7271 69.23 62.6751 69.366C62.6231 69.502 62.5511 69.622 62.4591 69.726C62.3671 69.83 62.2571 69.918 62.1291 69.99C62.0051 70.058 61.8691 70.11 61.7211 70.146L62.0331 70.356L63.1611 72H62.4711L61.2231 70.23L60.6171 70.146V72H60.0171V67.842ZM61.2291 68.262C61.1731 68.262 61.1151 68.262 61.0551 68.262C60.9991 68.262 60.9431 68.264 60.8871 68.268C60.8311 68.272 60.7791 68.276 60.7311 68.28C60.6831 68.284 60.6451 68.29 60.6171 68.298V69.75H61.1091C61.2531 69.75 61.3851 69.736 61.5051 69.708C61.6291 69.676 61.7351 69.63 61.8231 69.57C61.9151 69.506 61.9871 69.424 62.0391 69.324C62.0911 69.224 62.1171 69.102 62.1171 68.958C62.1171 68.742 62.0411 68.572 61.8891 68.448C61.7371 68.324 61.5171 68.262 61.2291 68.262ZM68.137 67.8H70.675V68.316H68.737V69.594H70.507V70.11H68.737V71.484H70.705V72H68.137V67.8ZM81.7929 67.8H84.3309V68.316H82.3929V69.594H84.1629V70.11H82.3929V71.484H84.3609V72H81.7929V67.8ZM90.6486 69.864L89.2626 67.8H89.9766L90.8826 69.18L91.0446 69.528L91.2006 69.18L92.1486 67.8H92.8086L91.3806 69.822L92.8746 72H92.1726L91.1706 70.536L90.9846 70.17L90.8166 70.536L89.7906 72H89.1306L90.6486 69.864ZM97.769 67.842C97.937 67.806 98.119 67.782 98.315 67.77C98.515 67.754 98.711 67.746 98.903 67.746C99.107 67.746 99.313 67.764 99.521 67.8C99.733 67.836 99.925 67.902 100.097 67.998C100.269 68.094 100.409 68.228 100.517 68.4C100.629 68.568 100.685 68.786 100.685 69.054C100.685 69.306 100.635 69.522 100.535 69.702C100.435 69.878 100.301 70.022 100.133 70.134C99.969 70.246 99.779 70.328 99.563 70.38C99.351 70.432 99.131 70.458 98.903 70.458C98.879 70.458 98.841 70.458 98.789 70.458C98.741 70.454 98.689 70.452 98.633 70.452C98.581 70.448 98.529 70.444 98.477 70.44C98.429 70.436 98.393 70.432 98.369 70.428V72H97.769V67.842ZM98.921 68.262C98.813 68.262 98.707 68.264 98.603 68.268C98.503 68.272 98.425 68.282 98.369 68.298V69.912C98.389 69.92 98.421 69.926 98.465 69.93C98.513 69.93 98.561 69.932 98.609 69.936C98.661 69.94 98.709 69.942 98.753 69.942C98.801 69.942 98.837 69.942 98.861 69.942C99.005 69.942 99.147 69.932 99.287 69.912C99.427 69.888 99.553 69.844 99.665 69.78C99.781 69.716 99.873 69.626 99.941 69.51C100.013 69.394 100.049 69.244 100.049 69.06C100.049 68.9 100.015 68.768 99.947 68.664C99.879 68.56 99.791 68.478 99.683 68.418C99.575 68.358 99.453 68.318 99.317 68.298C99.185 68.274 99.053 68.262 98.921 68.262ZM105.655 67.8H108.193V68.316H106.255V69.594H108.025V70.11H106.255V71.484H108.223V72H105.655V67.8ZM114.24 69.33L113.88 68.742H113.856L113.928 69.33V72H113.364V67.74H113.7L115.842 70.464L116.184 71.022H116.214L116.142 70.464V67.8H116.706V72.06H116.37L114.24 69.33ZM124.04 70.896C124.04 70.732 123.986 70.602 123.878 70.506C123.77 70.41 123.634 70.328 123.47 70.26C123.306 70.188 123.13 70.122 122.942 70.062C122.754 69.998 122.578 69.918 122.414 69.822C122.25 69.726 122.114 69.602 122.006 69.45C121.898 69.298 121.844 69.1 121.844 68.856C121.844 68.516 121.968 68.242 122.216 68.034C122.468 67.826 122.826 67.722 123.29 67.722C123.558 67.722 123.804 67.742 124.028 67.782C124.252 67.822 124.428 67.874 124.556 67.938L124.37 68.442C124.27 68.39 124.12 68.344 123.92 68.304C123.72 68.26 123.5 68.238 123.26 68.238C122.988 68.238 122.784 68.296 122.648 68.412C122.512 68.528 122.444 68.662 122.444 68.814C122.444 68.97 122.498 69.096 122.606 69.192C122.714 69.288 122.85 69.374 123.014 69.45C123.178 69.522 123.354 69.592 123.542 69.66C123.73 69.728 123.906 69.812 124.07 69.912C124.234 70.012 124.37 70.136 124.478 70.284C124.586 70.428 124.64 70.614 124.64 70.842C124.64 71.03 124.604 71.2 124.532 71.352C124.46 71.504 124.356 71.634 124.22 71.742C124.084 71.85 123.92 71.934 123.728 71.994C123.536 72.05 123.318 72.078 123.074 72.078C122.746 72.078 122.468 72.052 122.24 72C122.016 71.952 121.846 71.9 121.73 71.844L121.928 71.322C122.028 71.374 122.178 71.428 122.378 71.484C122.582 71.536 122.806 71.562 123.05 71.562C123.19 71.562 123.32 71.55 123.44 71.526C123.56 71.498 123.664 71.458 123.752 71.406C123.844 71.35 123.914 71.28 123.962 71.196C124.014 71.112 124.04 71.012 124.04 70.896ZM129.663 67.8H132.201V68.316H130.263V69.594H132.033V70.11H130.263V71.484H132.231V72H129.663V67.8ZM139.437 70.896C139.437 70.732 139.383 70.602 139.275 70.506C139.167 70.41 139.031 70.328 138.867 70.26C138.703 70.188 138.527 70.122 138.339 70.062C138.151 69.998 137.975 69.918 137.811 69.822C137.647 69.726 137.511 69.602 137.403 69.45C137.295 69.298 137.241 69.1 137.241 68.856C137.241 68.516 137.365 68.242 137.613 68.034C137.865 67.826 138.223 67.722 138.687 67.722C138.955 67.722 139.201 67.742 139.425 67.782C139.649 67.822 139.825 67.874 139.953 67.938L139.767 68.442C139.667 68.39 139.517 68.344 139.317 68.304C139.117 68.26 138.897 68.238 138.657 68.238C138.385 68.238 138.181 68.296 138.045 68.412C137.909 68.528 137.841 68.662 137.841 68.814C137.841 68.97 137.895 69.096 138.003 69.192C138.111 69.288 138.247 69.374 138.411 69.45C138.575 69.522 138.751 69.592 138.939 69.66C139.127 69.728 139.303 69.812 139.467 69.912C139.631 70.012 139.767 70.136 139.875 70.284C139.983 70.428 140.037 70.614 140.037 70.842C140.037 71.03 140.001 71.2 139.929 71.352C139.857 71.504 139.753 71.634 139.617 71.742C139.481 71.85 139.317 71.934 139.125 71.994C138.933 72.05 138.715 72.078 138.471 72.078C138.143 72.078 137.865 72.052 137.637 72C137.413 71.952 137.243 71.9 137.127 71.844L137.325 71.322C137.425 71.374 137.575 71.428 137.775 71.484C137.979 71.536 138.203 71.562 138.447 71.562C138.587 71.562 138.717 71.55 138.837 71.526C138.957 71.498 139.061 71.458 139.149 71.406C139.241 71.35 139.311 71.28 139.359 71.196C139.411 71.112 139.437 71.012 139.437 70.896Z" fill="#FFD11B"/>
<defs>
<filter id="filter0_d_5_77" x="0" y="9.19199" width="160.32" height="60.3446" filterUnits="userSpaceOnUse" color-interpolation-filters="sRGB">
<feFlood flood-opacity="0" result="BackgroundImageFix"/>
<feColorMatrix in="SourceAlpha" type="matrix" values="0 0 0 0 0 0 0 0 0 0 0 0 0 0 0 0 0 0 127 0" result="hardAlpha"/>
<feOffset dy="4"/>
<feGaussianBlur stdDeviation="2"/>
<feComposite in2="hardAlpha" operator="out"/>
<feColorMatrix type="matrix" values="0 0 0 0 0 0 0 0 0 0 0 0 0 0 0 0 0 0 0.25 0"/>
<feBlend mode="normal" in2="BackgroundImageFix" result="effect1_dropShadow_5_77"/>
<feBlend mode="normal" in="SourceGraphic" in2="effect1_dropShadow_5_77" result="shape"/>
</filter>
</defs>
</svg>
